<svg width="19" height="19" viewBox="0 0 19 19" fill="none" xmlns="http://www.w3.org/2000/svg">
<path d="M9.5 19C14.7467 19 19 14.7467 19 9.5C19 4.25329 14.7467 0 9.5 0C4.25329 0 0 4.25329 0 9.5C0 14.7467 4.25329 19 9.5 19Z" fill="#5C05D7"/>
<path d="M12.9058 7.8485C10.1618 7.8485 10.1583 10.5821 10.1583 10.5961C10.1583 10.5961 9.97031 13.3331 12.9058 13.3331C12.9058 13.3331 15.3538 13.4723 15.3538 11.4283H14.0968C14.0968 11.4283 14.1384 12.1978 12.9476 12.1978C12.9476 12.1978 11.6905 12.2815 11.6905 10.9546H15.3957C15.3957 10.9546 15.8031 7.8485 12.9058 7.8485ZM11.6765 9.99699C11.6765 9.99699 11.8297 8.89658 12.9337 8.89658C14.0411 8.89658 14.0236 9.99699 14.0236 9.99699H11.6765ZM8.53577 9.2937C8.53577 9.2937 9.62569 9.2136 9.62569 7.93215C9.62569 6.65426 8.73425 6.02734 7.60251 6.02734H3.87976V13.1832H7.60217C7.60217 13.1832 9.87615 13.253 9.87615 11.0696C9.87615 11.0696 9.97386 9.2937 8.53577 9.2937ZM5.52005 7.29829H7.60234C7.60234 7.29829 8.10733 7.29829 8.10733 8.04341C8.10733 8.78854 7.81131 8.89658 7.47346 8.89658H5.52005V7.29829ZM7.49802 11.9123H5.52005V9.99699H7.60234C7.60234 9.99699 8.35813 9.99005 8.35457 10.9824C8.35457 11.8183 7.79404 11.9054 7.49802 11.9123ZM11.3666 6.44868V7.32979H14.3196V6.44868H11.3666Z" fill="#F1F2F2"/>
</svg>
