<svg width="20" height="14" viewBox="0 0 20 14" fill="none" xmlns="http://www.w3.org/2000/svg">
<path d="M3.95946 2H0.702525C0.32828 2 -0.0459642 2.32 0.00460935 2.84L1.5825 12.83C1.5825 12.83 3.45373 5.47 3.81786 3.7C3.92912 3.17 4.43485 3 4.8091 3H10.0283C10.0283 3 9.32026 0.92 9.24946 0.69C9.12808 0.25 8.90556 0 8.46051 0H5.11254C4.74841 0 4.40451 0.23 4.30336 0.64C4.21233 1.04 3.95946 2 3.95946 2ZM8.89544 2H4.84956C4.84956 2 5.27438 1 5.72954 1H7.88397C8.36948 1 8.89544 2 8.89544 2ZM2.61421 13.25C2.30065 13.72 1.84549 14 1.33975 14H17.2502C17.7964 14 18.1807 13.69 18.292 13.17C18.7371 10.98 19.9913 4.73 19.9913 4.73C20.0621 4.23 19.6878 4 19.3642 4H16.0971V2.53C16.0971 2.37 15.8341 2 15.4295 2H11.6264C11.1005 2 10.7464 2.58 10.7464 2.58L10.0283 4H5.5677C5.24403 4 4.93048 4.19 4.86979 4.5C4.86979 4.5 3.26155 11.2 3.13006 11.83C3.05925 12.2 2.90753 12.82 2.61421 13.25ZM15.47 4H11.0398C11.0398 4 11.6264 3 12.1827 3H14.499C15.2171 3 15.47 4 15.47 4Z" fill="#5C05D7"/>
</svg>
