<svg width="19" height="19" viewBox="0 0 19 19" fill="none" xmlns="http://www.w3.org/2000/svg">
<path fill-rule="evenodd" clip-rule="evenodd" d="M9.5 19C14.7467 19 19 14.7467 19 9.5C19 4.25329 14.7467 0 9.5 0C4.25329 0 0 4.25329 0 9.5C0 14.7467 4.25329 19 9.5 19ZM9.5 17.86C14.1171 17.86 17.86 14.1171 17.86 9.5C17.86 4.8829 14.1171 1.14 9.5 1.14C4.8829 1.14 1.14 4.8829 1.14 9.5C1.14 14.1171 4.8829 17.86 9.5 17.86ZM5.32 7.64486V13.1701H7.10983V7.64486H5.32ZM6.33258 4.94C5.72029 4.94 5.32 5.35263 5.32 5.89437C5.32 6.4249 5.70846 6.84941 6.30935 6.84941H6.32079C6.94487 6.84941 7.33355 6.4249 7.33355 5.89437C7.32194 5.35263 6.94487 4.94 6.33258 4.94ZM11.6192 7.64486C10.6689 7.64486 10.2435 8.18114 10.0059 8.55735V7.77475H8.21589C8.23948 8.29321 8.21589 13.3 8.21589 13.3H10.0059V10.2142C10.0059 10.0491 10.0176 9.88438 10.0649 9.76616C10.1942 9.43626 10.4888 9.0947 10.9832 9.0947C11.6312 9.0947 11.8902 9.60135 11.8902 10.3438V13.2999H13.6799L13.68 10.1318C13.68 8.43472 12.797 7.64486 11.6192 7.64486Z" fill="#5C05D7"/>
</svg>
