<svg width="81" height="35" viewBox="0 0 81 35" fill="none" xmlns="http://www.w3.org/2000/svg">
<g clip-path="url(#clip0_619_877)">
<path d="M22.1729 33.6984C22.1567 33.6597 22.1419 33.6211 22.1257 33.5824C21.8058 32.7872 21.4847 31.9933 21.166 31.1981C20.4307 29.3625 19.6979 27.5257 18.9651 25.6889C18.9353 25.6152 18.9118 25.5378 18.8833 25.4556C19.1399 25.3964 19.3681 25.3408 19.5975 25.2937C20.179 25.1741 20.5572 24.8297 20.763 24.2968C20.8511 24.0696 20.9329 23.84 21.0123 23.6104C21.1201 23.2938 21.2193 22.9759 21.3247 22.6593C21.3904 22.4636 21.4363 22.4346 21.6521 22.4333C21.7798 22.4333 21.9087 22.437 22.0365 22.4382C22.7928 22.443 23.548 22.4454 24.3043 22.4515C24.5436 22.4527 24.618 22.5022 24.7024 22.721C24.7755 22.9095 24.8363 23.1016 24.9132 23.2889C25.0359 23.585 25.1438 23.8895 25.2988 24.1675C25.646 24.7862 26.1853 25.1838 26.8971 25.3155C27.3298 25.3952 27.7725 25.446 28.2114 25.4544C28.9951 25.4677 29.7787 25.4411 30.5636 25.4279C31.0373 25.4206 31.4986 25.3372 31.9487 25.1983C32.6418 24.9844 32.9915 24.5227 32.9815 23.8182C32.9605 22.3488 33.0621 20.8902 33.351 19.4461C33.4998 18.7017 33.6846 17.9694 33.9946 17.2709C34.131 16.9627 34.2971 16.6739 34.534 16.4262C35.0262 15.9114 35.5259 15.8884 36.0616 16.3573C36.1893 16.4685 36.3133 16.5845 36.4472 16.686C36.6431 16.8346 36.8651 16.9011 37.1093 16.8226C37.4714 16.7053 37.7231 16.4769 37.8149 16.106C38.0257 15.2601 37.3201 14.4806 36.4162 14.5495C35.9004 14.5894 35.454 14.7839 35.0473 15.0836C34.4087 15.5525 33.976 16.1712 33.666 16.8794C33.4366 17.405 33.2791 17.9525 33.139 18.5047C33.1229 18.57 33.1031 18.6328 33.0857 18.6981C33.0472 18.6485 33.0423 18.6062 33.0411 18.5651C33.0311 17.8364 33.0225 17.1078 33.0088 16.3779C33.0063 16.2111 32.9989 16.0443 32.9729 15.88C32.8935 15.37 32.612 15.0135 32.1049 14.8407C32.0107 14.8093 31.9152 14.7743 31.8185 14.761C31.3671 14.7005 30.9158 14.6389 30.4619 14.593C30.1073 14.5567 29.7502 14.5483 29.3956 14.5169C29.1898 14.4987 29.1253 14.4383 29.103 14.2486C29.067 13.932 29.0248 13.613 29.0248 13.2951C29.0273 11.1139 29.0397 8.93388 29.0472 6.75265C29.0484 6.37803 29.0509 6.00221 29.0385 5.62759C29.0211 5.10071 28.7136 4.71039 28.2102 4.55691C28.1222 4.53033 28.0304 4.51462 27.9399 4.49649C27.2443 4.36236 26.5387 4.34302 25.8332 4.3261C25.2417 4.3116 24.6503 4.30072 24.0588 4.28622C23.9832 4.28502 23.9076 4.27172 23.8195 4.26326C23.8195 4.16659 23.8208 4.09167 23.8208 4.01553C23.8232 3.33518 23.8282 2.65483 23.8282 1.97327C23.8282 1.78596 23.8245 1.59745 23.8022 1.41256C23.7352 0.840966 23.3917 0.480851 22.8139 0.396261C21.8901 0.262124 20.9602 0.185992 20.0253 0.170283C19.9496 0.169074 19.874 0.177533 19.7946 0.182367C19.7946 0.326171 19.7934 0.449432 19.7934 0.585986C19.9137 0.601695 20.0253 0.614988 20.1369 0.633115C20.5411 0.697162 20.7903 0.935224 20.8449 1.33159C20.8734 1.53703 20.8907 1.74609 20.892 1.95394C20.8932 2.8216 20.887 3.69046 20.8833 4.55812C20.8833 4.61975 20.8833 4.68138 20.8821 4.7841C20.7754 4.74543 20.7048 4.71643 20.6304 4.69468C20.3092 4.60283 19.9918 4.49528 19.6669 4.42519C18.8795 4.25722 18.0822 4.25843 17.2837 4.3394C16.5906 4.40948 15.916 4.55812 15.301 4.88682C13.6085 5.78952 12.7517 7.22998 12.5149 9.05714C12.438 9.6529 12.4739 10.2487 12.5459 10.8444C12.6798 11.9526 13.1063 12.9326 13.8701 13.7688C14.3921 14.3404 15.0084 14.796 15.6978 15.161C15.771 15.1996 15.8417 15.2419 15.9346 15.2939C15.8193 15.3773 15.7276 15.4401 15.6383 15.5078C15.1423 15.8848 14.9142 16.3718 15.0096 16.9869C15.0902 17.5077 15.311 17.944 15.828 18.1784C16.1206 18.3102 16.4294 18.3923 16.753 18.4141C17.3482 18.4527 17.8144 18.8177 17.9905 19.3748C18.1021 19.7264 18.0636 20.0757 17.9731 20.4225C17.7537 21.2672 17.3507 22.0297 16.8634 22.7524C16.8584 22.7596 16.8398 22.7596 16.8101 22.7669C16.7778 22.6956 16.7394 22.6231 16.7096 22.5457C16.4071 21.7518 16.1045 20.9578 15.8069 20.1627C15.3531 18.9506 14.9018 17.7374 14.4517 16.5229C14.1801 15.7918 13.73 15.1972 13.0319 14.8093C12.5483 14.541 12.2408 14.1543 12.0387 13.6565C10.8942 10.8372 9.73984 8.0203 8.58792 5.20222C8.49616 4.97624 8.39697 4.75389 8.29901 4.53033C8.23701 4.38894 8.11922 4.31039 7.96422 4.3116C7.5724 4.31643 7.17809 4.30918 6.79991 4.42761C6.4614 4.53395 6.21837 4.74422 6.09189 5.07292C6.0299 5.23485 5.96666 5.39799 5.91334 5.56233C5.19913 7.75807 4.48615 9.9538 3.84882 12.1725C3.71242 12.6462 3.58099 13.1223 3.42971 13.5924C3.25364 14.1398 2.87173 14.4818 2.29391 14.6123C1.68758 14.7489 1.07504 14.8274 0.453823 14.8516C0.333548 14.8564 0.214512 14.8661 0.0905166 14.8734C0.0905166 14.9894 0.0892767 15.0885 0.0892767 15.2105C0.363307 15.2117 0.618737 15.2081 0.874168 15.2141C1.62186 15.2323 2.37079 15.2443 3.11848 15.2794C3.74714 15.3096 4.17864 15.6105 4.40432 16.2038C5.51656 19.1391 6.63871 22.072 7.75839 25.0049C7.79807 25.1088 7.84395 25.2128 7.90471 25.3046C7.9729 25.4073 7.97786 25.4979 7.93571 25.614C7.82039 25.9281 7.80055 26.2508 7.89231 26.5759C8.09318 27.2876 8.76275 27.765 9.54393 27.7408C10.03 27.7263 10.49 27.8157 10.9401 27.9934C11.5229 28.223 11.8676 28.6314 12.0139 29.2236C12.1565 29.8024 12.1243 30.3812 12.066 30.9625C12.0536 31.0833 12.0362 31.2042 12.0176 31.3492C11.9569 31.3033 11.916 31.2791 11.8825 31.2465C11.7324 31.0978 11.5812 30.9504 11.4373 30.7969C10.2792 29.551 9.12358 28.3027 7.9667 27.0568C7.31077 26.3511 6.65483 25.6466 5.99394 24.9469C5.60583 24.5372 5.16441 24.2001 4.58411 24.0925C4.3262 24.0442 4.06333 23.9995 3.80046 23.9946C2.63118 23.9693 1.46191 23.9584 0.293869 23.9451C0.205832 23.9439 0.116556 23.9632 0.0309988 23.9729C0.0309988 24.0925 0.0297589 24.1868 0.0297589 24.2738C0.054558 24.2871 0.0657176 24.298 0.0781171 24.2992C0.120276 24.304 0.163674 24.3088 0.205832 24.3088C0.79853 24.3088 1.36147 24.4539 1.92069 24.623C2.14264 24.6907 2.24432 24.8369 2.26044 25.0508C2.26664 25.127 2.26416 25.2031 2.26292 25.2804C2.25548 27.371 2.24804 29.4616 2.2406 31.5522C2.23812 32.1637 2.24184 32.7752 2.22944 33.3854C2.21704 33.9933 1.91077 34.3473 1.29575 34.4416C0.959724 34.4936 0.615017 34.496 0.27403 34.5214C0.184753 34.5286 0.0942365 34.5371 0.00123995 34.5455C0.00123995 34.6676 0 34.7691 0 34.8803C0.0446383 34.8839 0.0781171 34.8911 0.111596 34.8887C0.779931 34.8428 1.44827 34.8017 2.1166 34.7473C2.32863 34.7304 2.54191 34.6942 2.7465 34.6422C3.09245 34.554 3.33176 34.334 3.46319 34.0102C3.50039 33.9196 3.53263 33.8277 3.55619 33.7334C3.68018 33.2464 3.73598 32.7498 3.73846 32.2483C3.7459 30.5468 3.75458 28.8453 3.76326 27.1438C3.7645 27.0049 3.77442 26.8659 3.78682 26.7281C3.79054 26.6858 3.81782 26.646 3.84014 26.588C3.99761 26.7728 4.13401 26.9396 4.27784 27.1003C5.40868 28.3607 6.54076 29.6199 7.6716 30.8803C8.79871 32.1347 9.92459 33.3903 11.0505 34.6458C11.2699 34.8911 11.4187 35.012 11.7895 34.8355C11.8329 34.815 11.9085 34.8114 11.947 34.8343C12.0685 34.9105 12.2011 34.9226 12.3375 34.9201C12.6364 34.9141 12.9377 34.9238 13.234 34.8911C14.0102 34.8078 14.5645 34.4331 14.815 33.6863C14.9749 33.2114 15.1423 32.7389 15.3048 32.2652C15.4213 31.9256 15.4201 31.9256 15.7784 31.9305C15.8429 31.9317 15.9074 31.9305 15.9706 31.9317C16.7617 31.9389 17.5528 31.9486 18.3451 31.951C18.5286 31.9522 18.6402 32.0296 18.6997 32.1927C18.7878 32.4344 18.8671 32.6809 18.9701 32.9165C19.1003 33.2162 19.2242 33.522 19.3966 33.7987C19.7388 34.3473 20.246 34.699 20.8994 34.8053C21.3408 34.8778 21.7897 34.9117 22.2361 34.9443C22.489 34.9624 22.7432 34.9455 23.0049 34.9431C23.0061 34.7872 23.0061 34.6579 23.0061 34.5129C22.5337 34.4307 22.3316 34.0839 22.1729 33.6984ZM23.8232 5.085C23.8232 5.00283 23.8319 4.92065 23.8381 4.80585C24.0278 4.82156 24.1903 4.83365 24.3527 4.84815C24.7507 4.88078 25.1475 4.9134 25.5455 4.94845C25.8121 4.97141 25.956 5.07292 26.0142 5.3279C26.07 5.56959 26.1172 5.81973 26.1172 6.06625C26.1159 8.58706 26.1035 11.1066 26.0986 13.6275C26.0986 13.8063 26.1097 13.9888 26.1444 14.1652C26.261 14.7549 26.5871 15.0643 27.1959 15.1585C27.4761 15.202 27.7613 15.225 28.0465 15.2407C28.5586 15.2685 29.072 15.283 29.5841 15.3036C29.6337 15.306 29.6845 15.3048 29.7329 15.312C29.8916 15.3374 29.961 15.399 29.9846 15.5513C30.0056 15.6951 30.0255 15.8413 30.0242 15.9863C30.0156 18.5627 30.0081 21.1379 29.9895 23.7131C29.9883 23.9814 29.935 24.2508 29.8916 24.5179C29.8593 24.7113 29.7304 24.8381 29.5369 24.8986C29.5171 24.9046 29.4973 24.9131 29.4762 24.9179C28.8029 25.0629 28.5276 24.9602 28.2561 24.3632C27.9486 23.6853 27.677 22.9904 27.3943 22.3016C26.3775 19.8292 25.362 17.3555 24.349 14.8818C24.2895 14.7356 24.2213 14.6063 24.0799 14.5205C23.9472 14.4395 23.8679 14.3199 23.8518 14.164C23.8319 13.9779 23.791 13.793 23.7922 13.6069C23.7972 10.7635 23.8108 7.92483 23.8232 5.085ZM7.78815 16.8769C7.70631 16.6631 7.63688 16.4431 7.55132 16.2304C7.18553 15.3229 6.49116 14.7912 5.52771 14.5809C5.24377 14.5193 4.95362 14.4806 4.66595 14.4323C4.66223 14.4214 4.65231 14.4069 4.65603 14.3972C4.88542 13.7628 5.11605 13.1296 5.34544 12.4951C5.3504 12.4819 5.35288 12.4686 5.35784 12.4553C5.42976 12.2668 5.50168 12.2148 5.70875 12.2172C5.97906 12.2208 6.25061 12.2329 6.52092 12.2329C7.11238 12.2353 7.70383 12.2317 8.29529 12.2329C8.609 12.2329 8.63504 12.2571 8.74168 12.5423C8.92147 13.0244 9.10622 13.5054 9.28601 13.9876C9.47821 14.5024 9.81299 14.883 10.3474 15.0897C10.619 15.1948 10.805 15.4051 10.9141 15.66C11.1112 16.1205 11.2848 16.5905 11.4696 17.0558C11.513 17.1646 11.4721 17.26 11.4336 17.3567C11.1013 18.1905 10.769 19.0255 10.4367 19.8594C10.2172 20.4092 9.99651 20.9578 9.7758 21.5077C9.751 21.5693 9.72 21.6297 9.67164 21.7361C9.62948 21.6527 9.61088 21.6237 9.59848 21.5923C8.99463 20.0213 8.39077 18.4491 7.78815 16.8769ZM15.7003 25.8146C14.9935 28.049 14.2855 30.2834 13.5787 32.5166C13.4299 32.9854 13.2142 33.4205 12.903 33.8072C12.6934 34.0682 12.4392 34.276 12.1267 34.4138C12.1007 34.4247 12.0747 34.4356 12.0474 34.4428C12.035 34.4464 12.0214 34.4404 11.9842 34.4343C12.0077 34.3413 12.0288 34.2495 12.0548 34.1588C12.4355 32.8706 12.6636 31.5595 12.6314 30.2157C12.6079 29.2501 12.5161 28.2894 12.2309 27.3565C12.0152 26.6484 11.6531 26.0139 11.2079 25.4218C10.7578 24.8236 10.1379 24.5481 9.38149 24.5529C9.29718 24.5529 9.21286 24.5529 9.1273 24.5517C9.14342 24.3826 11.6853 18.2099 11.8006 18.0552C11.8068 18.0552 11.8143 18.054 11.8205 18.0564C11.8267 18.0588 11.8354 18.0612 11.8378 18.0673C11.8552 18.0975 11.8738 18.1265 11.8862 18.1591C12.7442 20.3947 13.6011 22.6315 14.4566 24.8671C14.4628 24.8853 14.4579 24.907 14.4566 24.9481C14.2086 24.9469 13.9619 24.9457 13.7015 24.9457C13.7003 25.1004 13.7003 25.2357 13.7003 25.3916C14.3971 25.394 15.0915 25.3964 15.8268 25.4001C15.7772 25.5632 15.74 25.6889 15.7003 25.8146ZM18.5906 24.3717C18.5584 24.3862 18.5249 24.3958 18.4654 24.4188C18.3749 24.1952 18.293 23.9886 18.2087 23.7832C18.0748 23.4545 17.9459 23.1234 17.8008 22.7995C17.6954 22.5639 17.7065 22.3475 17.8293 22.1216C18.1765 21.4823 18.4803 20.8249 18.6873 20.1289C18.9043 19.4038 19.0048 18.663 18.975 17.9077C18.9614 17.5597 18.9043 17.2165 18.7977 16.8842C18.6601 16.4552 18.3947 16.1072 18.0525 15.8111C17.9793 15.7483 17.9074 15.6842 17.807 15.5972C17.9273 15.573 18.0091 15.5573 18.0897 15.5392C19.3966 15.254 20.1914 14.4504 20.5188 13.2069C20.582 12.9664 20.5584 12.6945 20.5312 12.442C20.4927 12.0807 20.365 11.7411 20.1852 11.4196C19.8752 10.865 19.3892 10.6003 18.7481 10.6172C18.107 10.6342 17.6321 10.9363 17.3408 11.4849C16.8225 12.4625 17.4511 13.619 18.5683 13.7628C18.6179 13.7688 18.6675 13.7797 18.7171 13.7821C19.1461 13.8051 19.3358 14.2474 19.1808 14.5833C19.0122 14.9471 18.7059 15.1247 18.3104 15.1694C18.117 15.1912 17.9273 15.1622 17.7425 15.1017C17.2453 14.9422 16.846 14.6498 16.5273 14.2522C16.0004 13.5972 15.6904 12.8456 15.5887 12.0263C15.4287 10.7332 15.4015 9.43659 15.5639 8.14114C15.6767 7.24327 15.9396 6.39132 16.4542 5.62517C16.7406 5.1998 17.1076 4.87352 17.6111 4.71401C18.417 4.45903 19.2726 4.75389 19.8145 5.4717C20.1902 5.96958 20.4481 6.52183 20.6105 7.12001C20.7593 7.66864 20.7977 8.23057 20.8077 8.79249C20.8312 10.216 20.8325 11.6384 20.8461 13.0619C20.8498 13.4015 20.8511 13.7423 20.8759 14.0806C20.9106 14.5592 21.1772 14.877 21.6422 15.0341C21.7823 15.0812 21.9249 15.1211 22.0749 15.167C22.0712 15.2081 22.0737 15.2431 22.0625 15.2733C21.4214 17.0183 20.9242 18.808 20.3551 20.5748C20.0649 21.4751 19.7921 22.3802 19.5132 23.2829C19.3606 23.7711 19.0779 24.153 18.5906 24.3717Z" fill="#F6F5F1"/>
<path d="M25.3546 25.9547C25.2939 25.8145 25.2282 25.6756 25.1711 25.533C25.1017 25.359 24.9901 25.2574 24.7843 25.2768C24.6714 25.2864 24.5561 25.2744 24.442 25.2744C24.0291 25.2719 23.6162 25.2707 23.1748 25.2695C23.2232 25.4013 23.2579 25.5124 23.3025 25.6188C24.5276 28.5637 25.7527 31.5099 26.9777 34.4549C27.0013 34.5129 27.0236 34.5709 27.0497 34.6289C27.1141 34.7679 27.2171 34.8416 27.382 34.8416C27.7316 34.8416 28.0801 34.8524 28.4297 34.8573C28.6566 34.8597 28.8836 34.8597 29.1601 34.8609C29.103 34.7062 29.0695 34.6011 29.0261 34.4996C27.8048 31.6501 26.5797 28.803 25.3546 25.9547Z" fill="#F6F5F1"/>
<path d="M23.0916 26.7513C22.9205 26.3549 22.7518 25.9573 22.5832 25.5597C22.5026 25.37 22.3786 25.2516 22.1492 25.2552C21.7004 25.2625 21.2515 25.2588 20.8026 25.2612C20.7344 25.2612 20.6662 25.2709 20.5732 25.277C20.6154 25.393 20.6464 25.4909 20.6861 25.5851C21.6706 27.9512 22.6576 30.3174 23.6421 32.6835C23.8988 33.301 24.1493 33.9209 24.4047 34.5384C24.5027 34.7765 24.6019 34.8466 24.83 34.8454C25.3433 34.8442 25.8567 34.8417 26.3688 34.8393C26.4246 34.8393 26.4791 34.8321 26.5597 34.8272C26.5225 34.7354 26.4928 34.6593 26.4593 34.5844C25.3384 31.9741 24.215 29.3627 23.0916 26.7513Z" fill="#F6F5F1"/>
<path d="M27.3992 4.12437C28.5424 4.13283 29.4922 3.21683 29.5071 2.08936C29.522 0.987261 28.5883 0.0422619 27.4748 0.0301775C26.2597 0.0168847 25.3136 0.899045 25.3012 2.05915C25.2875 3.18541 26.2336 4.1147 27.3992 4.12437Z" fill="#F6F5F1"/>
<path d="M61.1163 9.25902C61.5143 9.25902 61.8354 9.57321 61.8354 9.95991V12.4384C61.8354 14.5846 60.0486 16.3223 57.8502 16.3223H55.3071C54.909 16.3223 54.5879 16.0082 54.5879 15.6214V12.6161C54.5879 12.0856 55.1682 11.7472 55.6481 11.9973L58.6587 13.5695C58.8856 13.6904 59.1336 13.4487 59.0121 13.2275L57.3964 10.291C57.1397 9.82336 57.4869 9.25781 58.0312 9.25781H61.1163V9.25902Z" fill="#F6F5F1"/>
<path d="M71.4982 12.6161V15.6203C71.4982 16.0082 71.1759 16.3211 70.7791 16.3211H68.9563C66.3574 16.3211 64.252 14.268 64.252 11.7363V9.95993C64.252 9.57202 64.5743 9.25903 64.9711 9.25903H68.0561C68.6005 9.25903 68.9477 9.82458 68.691 10.2922L67.0753 13.2288C66.9551 13.4499 67.2018 13.6916 67.4287 13.5707L70.4393 11.9986C70.9179 11.7472 71.4982 12.0856 71.4982 12.6161Z" fill="#F6F5F1"/>
<path d="M65.4783 0.207711L67.6582 2.33215C67.9396 2.60646 67.9396 3.04996 67.6582 3.32427L66.3686 4.58105C64.531 6.37195 61.5526 6.37195 59.715 4.58105L58.4255 3.32427C58.144 3.04996 58.144 2.60646 58.4255 2.33215L60.6078 0.205294C60.9922 -0.169321 61.6481 -0.0085991 61.8056 0.498945L62.7938 3.68922C62.8695 3.92849 63.2191 3.92849 63.2923 3.6868L64.2805 0.500153C64.438 -0.0073907 65.0939 -0.166905 65.4783 0.207711Z" fill="#F6F5F1"/>
<path d="M80.7867 19.8725L78.6069 21.997C78.3254 22.2713 77.8704 22.2713 77.5889 21.997L76.2994 20.7402C74.4617 18.9493 74.4617 16.0466 76.2994 14.2557L77.5889 12.9989C77.8704 12.7246 78.3254 12.7246 78.6069 12.9989L80.788 15.1246C81.1724 15.4992 81.0075 16.1385 80.4867 16.2919L77.2132 17.2551C76.9677 17.3288 76.9677 17.6696 77.2157 17.7409L80.4854 18.704C81.0062 18.8587 81.1711 19.4979 80.7867 19.8725Z" fill="#F6F5F1"/>
<path d="M60.6077 34.792L58.4279 32.6675C58.1464 32.3932 58.1464 31.9497 58.4279 31.6754L59.7175 30.4186C61.5551 28.6277 64.5334 28.6277 66.371 30.4186L67.6606 31.6754C67.9421 31.9497 67.9421 32.3932 67.6606 32.6675L65.4795 34.7932C65.0951 35.1678 64.4392 35.0071 64.2817 34.4995L63.2935 31.3092C63.2178 31.07 62.8682 31.07 62.795 31.3117L61.8068 34.4983C61.6493 35.0071 60.9934 35.1678 60.6077 34.792Z" fill="#F6F5F1"/>
<path d="M45.3005 15.127L47.4804 13.0026C47.7618 12.7283 48.2169 12.7283 48.4984 13.0026L49.7879 14.2594C51.6255 16.0503 51.6255 18.953 49.7879 20.7439L48.4984 22.0006C48.2169 22.275 47.7618 22.275 47.4804 22.0006L45.2993 19.875C44.9149 19.5004 45.0798 18.8611 45.6006 18.7076L48.8741 17.7445C49.1196 17.6708 49.1196 17.33 48.8716 17.2587L45.6018 16.2956C45.0798 16.1409 44.9149 15.5017 45.3005 15.127Z" fill="#F6F5F1"/>
<path d="M67.0741 21.7711L68.6898 24.7076C68.9464 25.1753 68.5993 25.7408 68.0549 25.7408H64.9699C64.5719 25.7408 64.2507 25.4266 64.2507 25.0399V23.2635C64.2507 20.7306 66.3574 18.6787 68.9551 18.6787H70.7779C71.1759 18.6787 71.497 18.9929 71.497 19.3796V22.3838C71.497 22.9143 70.9167 23.2526 70.4369 23.0025L67.4263 21.4303C67.2006 21.3095 66.9538 21.55 67.0741 21.7711Z" fill="#F6F5F1"/>
<path d="M61.8366 22.5614V25.0399C61.8366 25.4278 61.5143 25.7408 61.1175 25.7408H58.0325C57.4881 25.7408 57.1409 25.1753 57.3976 24.7076L59.0133 21.7711C59.1335 21.5499 58.8868 21.3083 58.6599 21.4291L55.6493 23.0013C55.1694 23.2514 54.5891 22.9131 54.5891 22.3826V19.3784C54.5891 18.9905 54.9115 18.6775 55.3083 18.6775H57.8514C60.0499 18.6775 61.8366 20.4152 61.8366 22.5614Z" fill="#F6F5F1"/>
<path d="M55.7658 8.2209L53.55 10.3804C53.08 10.8384 52.2877 10.7236 51.9752 10.152L49.9628 6.46746C49.7582 6.09284 49.8289 5.63122 50.1364 5.33153L50.6807 4.80102C50.9969 4.49287 51.4854 4.42882 51.8735 4.64634L55.5575 6.70311C56.1241 7.0173 56.227 7.77136 55.7658 8.2209Z" fill="#F6F5F1"/>
<path d="M72.5646 10.4068L70.3488 8.24735C69.8788 7.78935 69.9966 7.01715 70.5831 6.71263L74.3637 4.75133C74.7481 4.55194 75.2218 4.62082 75.5293 4.92051L76.0736 5.45102C76.3898 5.75917 76.4555 6.2353 76.2323 6.61354L74.1244 10.205C73.7996 10.7561 73.0258 10.8576 72.5646 10.4068Z" fill="#F6F5F1"/>
<path d="M70.3204 26.779L72.5362 24.6195C73.0061 24.1615 73.7985 24.2763 74.1109 24.8479L76.1234 28.5324C76.328 28.907 76.2573 29.3686 75.9498 29.6683L75.4054 30.1988C75.0892 30.507 74.6007 30.571 74.2126 30.3535L70.5287 28.2968C69.962 27.9838 69.8591 27.2285 70.3204 26.779Z" fill="#F6F5F1"/>
<path d="M53.5225 24.5928L55.7383 26.7523C56.2083 27.2103 56.0905 27.9825 55.504 28.287L51.7234 30.2483C51.339 30.4477 50.8653 30.3788 50.5578 30.0791L50.0135 29.5486C49.6973 29.2405 49.6316 28.7643 49.8548 28.3861L51.9652 24.7958C52.2863 24.2436 53.06 24.1421 53.5225 24.5928Z" fill="#F6F5F1"/>
</g>
<defs>
<clipPath id="clip0_619_877">
<rect width="81" height="35" fill="white"/>
</clipPath>
</defs>
</svg>
