<svg width="172" height="226" viewBox="0 0 172 226" fill="none" xmlns="http://www.w3.org/2000/svg">
<path d="M74.3429 170.257H71.7779C71.2567 170.257 70.8343 170.685 70.8343 171.213V199.524C70.8343 200.052 71.2567 200.48 71.7779 200.48H74.3429C74.864 200.48 75.2865 200.052 75.2865 199.524V171.213C75.2865 170.685 74.864 170.257 74.3429 170.257Z" fill="#F6F5F1"/>
<path d="M42.2806 200.48H39.3767C39.221 200.479 39.0678 200.439 38.9306 200.365C38.7934 200.29 38.6763 200.183 38.5895 200.052L33.032 191.492C32.9532 191.372 32.8488 191.272 32.7266 191.198C32.6043 191.124 32.4673 191.08 32.3256 191.067C32.184 191.054 32.0413 191.074 31.9082 191.125C31.7751 191.175 31.6549 191.256 31.5566 191.36L29.44 193.643C29.2761 193.82 29.1848 194.054 29.1845 194.298V199.518C29.1845 199.772 29.0853 200.016 28.9085 200.196C28.7317 200.376 28.4916 200.478 28.2409 200.48H25.6759C25.5516 200.48 25.4284 200.455 25.3136 200.406C25.1988 200.358 25.0945 200.287 25.0068 200.198C24.9191 200.108 24.8497 200.002 24.8026 199.886C24.7555 199.769 24.7316 199.644 24.7323 199.518V171.192C24.7316 171.066 24.7555 170.942 24.8027 170.825C24.8499 170.709 24.9194 170.603 25.0071 170.514C25.0949 170.425 25.1992 170.355 25.314 170.307C25.4288 170.259 25.5518 170.235 25.6759 170.236H28.2409C28.3655 170.235 28.489 170.259 28.6044 170.307C28.7198 170.355 28.8248 170.425 28.9134 170.514C29.002 170.602 29.0724 170.708 29.1207 170.824C29.1691 170.941 29.1943 171.066 29.195 171.192V185.733C29.2067 186.101 29.1591 186.469 29.0542 186.821C29.0372 186.861 29.0232 186.901 29.0125 186.943L28.4912 188.391C28.4766 188.434 28.4769 188.48 28.492 188.523C28.5071 188.566 28.5361 188.602 28.5743 188.626C28.6125 188.65 28.6575 188.66 28.7021 188.655C28.7466 188.65 28.7881 188.629 28.8196 188.597L31.468 185.802L37.8075 179.17C37.8945 179.079 37.9989 179.006 38.1145 178.956C38.23 178.906 38.3544 178.88 38.48 178.88H41.4985C41.6818 178.882 41.8604 178.938 42.013 179.041C42.1655 179.144 42.2854 179.289 42.3582 179.46C42.431 179.63 42.4535 179.818 42.4231 180.001C42.3926 180.184 42.3106 180.355 42.1867 180.491L36.1496 186.996C36.0051 187.152 35.9168 187.354 35.8989 187.567C35.8809 187.781 35.9343 187.995 36.0506 188.174L43.0678 198.995C43.1621 199.139 43.216 199.306 43.2239 199.479C43.2317 199.652 43.1932 199.824 43.1125 199.976C43.0317 200.128 42.9117 200.256 42.7652 200.344C42.6187 200.433 42.4512 200.48 42.2806 200.48Z" fill="#F6F5F1"/>
<path d="M65.8138 184.401C65.3661 183.171 64.6901 182.04 63.8223 181.067C62.9357 180.077 61.8469 179.295 60.6317 178.774C59.2633 178.19 57.7891 177.904 56.3046 177.934C54.4243 177.908 52.5741 178.413 50.9608 179.392C49.3822 180.346 48.0843 181.711 47.202 183.345C46.2537 185.128 45.7777 187.131 45.8204 189.157C45.793 191.167 46.2682 193.152 47.202 194.926C48.0896 196.609 49.4101 198.017 51.0234 199C52.727 200.018 54.6765 200.536 56.6538 200.495C58.0311 200.512 59.3999 200.275 60.6942 199.798C61.8443 199.369 62.9052 198.725 63.8223 197.901C64.3423 197.437 64.7982 196.904 65.1777 196.316C65.267 196.181 65.3267 196.029 65.353 195.869C65.3792 195.709 65.3713 195.545 65.3298 195.388C65.2883 195.232 65.2142 195.086 65.1124 194.96C65.0107 194.835 64.8836 194.734 64.7398 194.662L63.0194 193.785C62.785 193.668 62.5178 193.636 62.263 193.696C62.0083 193.756 61.7819 193.903 61.6222 194.113C61.162 194.703 60.6089 195.211 59.9852 195.619C58.9886 196.234 57.836 196.541 56.6695 196.501C55.4995 196.515 54.3489 196.197 53.3486 195.582C52.3674 194.964 51.5834 194.073 51.0912 193.014C50.9151 192.663 50.7754 192.295 50.6741 191.915C50.6329 191.746 50.6301 191.571 50.6659 191.401C50.7017 191.232 50.7751 191.073 50.8807 190.936C50.9862 190.8 51.1211 190.689 51.275 190.613C51.4289 190.538 51.5978 190.498 51.7689 190.499H65.3706C65.6522 190.499 65.923 190.389 66.1269 190.193C66.3308 189.996 66.452 189.727 66.4654 189.442C66.4967 189.072 66.5071 188.713 66.5071 188.385C66.5131 187.026 66.2782 185.677 65.8138 184.401ZM60.9966 186.906H52.6552C52.1389 186.913 51.6384 187.087 51.2267 187.402L50.4603 188.121C50.4319 188.148 50.3958 188.165 50.3573 188.169C50.3188 188.174 50.2799 188.165 50.2462 188.146C50.2125 188.127 50.1858 188.097 50.1699 188.061C50.1541 188.025 50.1499 187.985 50.158 187.947L50.4291 186.742C50.6861 185.622 51.2066 184.581 51.9462 183.709C52.2988 183.282 52.7136 182.911 53.1765 182.61C54.108 182.002 55.1966 181.687 56.3046 181.707C57.4132 181.682 58.5035 181.997 59.4326 182.61C60.3138 183.202 60.9987 184.049 61.398 185.041C61.5367 185.381 61.6381 185.735 61.7004 186.097C61.7167 186.199 61.7104 186.303 61.6822 186.402C61.654 186.501 61.6044 186.593 61.5371 186.67C61.4698 186.748 61.3864 186.809 61.2929 186.85C61.1995 186.89 61.0983 186.909 60.9966 186.906Z" fill="#F6F5F1"/>
<path d="M99.8259 196.665H99.1117C98.9304 196.669 98.7524 196.715 98.5903 196.797L97.7979 197.22C97.7636 197.237 97.7248 197.243 97.6869 197.237C97.649 197.231 97.614 197.213 97.5868 197.185C97.5597 197.158 97.5418 197.122 97.5357 197.084C97.5296 197.045 97.5356 197.006 97.5529 196.971L97.9804 196.142C98.0483 196.008 98.084 195.859 98.0846 195.708V185.923C98.1115 184.533 97.7344 183.166 97.0002 181.992C96.2484 180.845 95.1984 179.93 93.9661 179.35C92.5673 178.693 91.0397 178.366 89.4982 178.394C88.1873 178.383 86.8854 178.614 85.6559 179.075C84.497 179.496 83.4333 180.148 82.5279 180.993C81.8298 181.634 81.2553 182.401 80.8335 183.255C80.7966 183.327 80.774 183.405 80.7671 183.486C80.7601 183.566 80.7691 183.647 80.7933 183.725C80.8175 183.802 80.8566 183.873 80.9083 183.935C80.9599 183.997 81.0231 184.047 81.0942 184.084L83.7791 185.432C83.9155 185.503 84.074 185.516 84.2203 185.47C84.3666 185.423 84.489 185.321 84.5611 185.183C84.972 184.415 85.5583 183.757 86.2711 183.265C87.1683 182.644 88.2346 182.323 89.3209 182.346C90.4515 182.287 91.5642 182.65 92.449 183.366C92.7803 183.639 93.0519 183.979 93.2466 184.364L93.2727 184.396C93.2727 184.396 93.2727 184.396 93.2727 184.438V184.491C93.3036 184.548 93.3281 184.608 93.3457 184.671C93.3868 184.751 93.4183 184.836 93.4395 184.924V184.998C93.575 185.442 93.695 185.997 93.8461 186.636C93.8826 186.768 93.9139 186.906 93.9504 187.049L94.1642 187.862C94.1724 187.9 94.169 187.939 94.1545 187.974C94.1399 188.009 94.1149 188.039 94.0828 188.059C94.0508 188.08 94.0133 188.089 93.9756 188.087C93.9379 188.085 93.9017 188.071 93.8722 188.047L93.0902 187.376C92.7239 187.122 92.28 187.01 91.839 187.059L86.7924 187.904C85.3625 188.095 83.9801 188.554 82.7156 189.257C81.7421 189.792 80.9343 190.591 80.3821 191.564C79.8298 192.537 79.5548 193.646 79.5875 194.768C79.5602 195.925 79.8743 197.064 80.4895 198.039C81.1145 198.992 81.9979 199.743 83.0336 200.2C84.2312 200.729 85.5279 200.989 86.8341 200.96C87.945 200.968 89.0495 200.789 90.1029 200.432C90.438 200.318 90.7653 200.182 91.0831 200.025H91.1195L91.3489 199.909L91.5001 199.825C91.6565 199.724 91.8234 199.613 92.0215 199.481C92.0475 199.481 92.0736 199.444 92.1049 199.428L92.7513 198.969L93.8566 198.192C93.8878 198.167 93.9266 198.153 93.9666 198.153C94.0066 198.152 94.0455 198.166 94.0769 198.191C94.1083 198.216 94.1304 198.251 94.1397 198.291C94.1489 198.33 94.1446 198.372 94.1277 198.408L93.867 199.122C93.8118 199.292 93.7819 199.471 93.7784 199.65V199.867C93.7797 200.027 93.8433 200.181 93.9555 200.295C94.0676 200.409 94.2193 200.473 94.3779 200.474H99.805C99.9632 200.473 100.114 200.408 100.226 200.295C100.337 200.181 100.399 200.027 100.399 199.867V197.288C100.403 197.209 100.391 197.13 100.364 197.055C100.337 196.981 100.295 196.913 100.242 196.855C100.188 196.797 100.124 196.75 100.053 196.717C99.9813 196.685 99.9042 196.667 99.8259 196.665ZM93.6063 191.471C93.6209 192.508 93.3594 193.53 92.8493 194.429C92.3392 195.328 91.5994 196.071 90.7077 196.58C89.7544 197.125 88.674 197.401 87.5797 197.378C86.7213 197.414 85.8783 197.139 85.2023 196.601C84.9049 196.36 84.6664 196.052 84.5054 195.702C84.3444 195.352 84.2654 194.969 84.2744 194.583C84.2657 194.198 84.3347 193.815 84.4772 193.458C84.6198 193.101 84.8328 192.777 85.1033 192.507C85.8367 191.862 86.7456 191.459 87.71 191.349L92.9234 190.462C93.0091 190.447 93.0969 190.452 93.1808 190.475C93.2646 190.498 93.3425 190.54 93.4089 190.597C93.4754 190.653 93.5289 190.724 93.5657 190.804C93.6024 190.884 93.6217 190.971 93.622 191.059L93.6063 191.471Z" fill="#F6F5F1"/>
<path d="M93.3196 184.471C93.3093 184.437 93.2934 184.404 93.2727 184.375C93.2727 184.375 93.2727 184.375 93.2727 184.418L93.3196 184.471Z" fill="#F6F5F1"/>
<path d="M146.673 196.665H145.975C145.794 196.662 145.616 196.702 145.453 196.781H145.417L144.63 197.204C144.595 197.221 144.557 197.227 144.519 197.221C144.481 197.215 144.446 197.197 144.419 197.169C144.392 197.142 144.374 197.106 144.368 197.068C144.361 197.03 144.367 196.99 144.385 196.955L144.812 196.126C144.876 195.991 144.91 195.843 144.911 195.693V185.923C144.941 184.533 144.563 183.165 143.827 181.992C143.078 180.842 142.027 179.927 140.793 179.35C139.394 178.692 137.866 178.365 136.325 178.394C135.016 178.384 133.716 178.615 132.488 179.075C131.328 179.495 130.264 180.147 129.36 180.993C128.662 181.636 128.086 182.402 127.66 183.255C127.587 183.4 127.573 183.569 127.622 183.724C127.671 183.879 127.778 184.009 127.921 184.084L130.606 185.432C130.743 185.502 130.902 185.515 131.049 185.468C131.196 185.422 131.319 185.32 131.393 185.183C131.802 184.415 132.386 183.758 133.098 183.265C133.996 182.647 135.062 182.326 136.148 182.346C137.278 182.285 138.392 182.648 139.276 183.366C139.619 183.647 139.899 183.998 140.099 184.396V184.438C140.129 184.496 140.156 184.556 140.177 184.618C140.221 184.718 140.26 184.82 140.292 184.924C140.469 185.453 140.615 186.203 140.814 187.038L141.027 187.852C141.036 187.889 141.032 187.928 141.018 187.963C141.003 187.999 140.978 188.029 140.946 188.049C140.914 188.069 140.876 188.079 140.839 188.077C140.801 188.074 140.765 188.06 140.735 188.037L139.953 187.366C139.586 187.11 139.14 186.998 138.697 187.049L133.656 187.894C132.224 188.084 130.84 188.543 129.573 189.247C128.6 189.782 127.792 190.58 127.24 191.553C126.688 192.526 126.413 193.635 126.445 194.757C126.42 195.915 126.736 197.054 127.353 198.028C127.974 198.983 128.856 199.734 129.891 200.189C131.089 200.719 132.386 200.978 133.692 200.95C134.803 200.957 135.907 200.778 136.961 200.422C137.304 200.3 137.64 200.159 137.967 199.999L138.191 199.883C138.359 199.794 138.521 199.695 138.676 199.587L138.759 199.529L138.947 199.402L139.594 198.942L139.687 198.884L140.761 198.139C140.793 198.114 140.831 198.1 140.871 198.1C140.911 198.1 140.95 198.113 140.982 198.138C141.013 198.163 141.035 198.199 141.044 198.238C141.054 198.277 141.049 198.319 141.032 198.356L140.772 199.069C140.714 199.239 140.682 199.417 140.678 199.597V199.814C140.679 199.975 140.743 200.128 140.855 200.242C140.967 200.356 141.119 200.42 141.278 200.422H146.699C146.858 200.42 147.009 200.356 147.12 200.242C147.231 200.128 147.294 199.974 147.294 199.814V197.235C147.29 197.157 147.272 197.079 147.239 197.008C147.206 196.936 147.159 196.872 147.101 196.819C147.043 196.766 146.976 196.725 146.902 196.698C146.829 196.672 146.751 196.661 146.673 196.665ZM140.454 191.471C140.468 192.507 140.207 193.528 139.698 194.427C139.188 195.326 138.45 196.07 137.56 196.58C136.607 197.125 135.527 197.401 134.432 197.378C133.571 197.413 132.725 197.138 132.045 196.601C131.747 196.36 131.509 196.052 131.348 195.702C131.187 195.352 131.108 194.969 131.117 194.583C131.109 194.198 131.179 193.816 131.321 193.459C131.464 193.102 131.676 192.778 131.946 192.507C132.68 191.864 133.588 191.46 134.552 191.349L139.766 190.462C139.851 190.447 139.939 190.452 140.022 190.475C140.106 190.498 140.183 190.54 140.25 190.597C140.316 190.654 140.369 190.724 140.405 190.804C140.441 190.884 140.459 190.971 140.459 191.059L140.454 191.471Z" fill="#F6F5F1"/>
<path d="M122.64 186.547V199.518C122.64 199.772 122.54 200.016 122.364 200.196C122.187 200.376 121.947 200.478 121.696 200.48H119.131C119.007 200.48 118.884 200.455 118.769 200.406C118.654 200.358 118.55 200.287 118.462 200.198C118.374 200.108 118.305 200.002 118.258 199.886C118.211 199.769 118.187 199.644 118.187 199.518V187.746C118.21 186.799 118.008 185.861 117.598 185.009C117.223 184.27 116.648 183.654 115.94 183.234C115.198 182.798 114.353 182.577 113.495 182.594C112.633 182.578 111.783 182.799 111.035 183.234C110.319 183.649 109.738 184.266 109.361 185.009C108.948 185.859 108.745 186.799 108.772 187.746V199.518C108.773 199.644 108.749 199.769 108.702 199.886C108.655 200.002 108.585 200.108 108.498 200.198C108.41 200.287 108.306 200.358 108.191 200.406C108.076 200.455 107.953 200.48 107.828 200.48H105.263C105.139 200.48 105.016 200.455 104.901 200.406C104.786 200.358 104.682 200.287 104.594 200.198C104.507 200.108 104.437 200.002 104.39 199.886C104.343 199.769 104.319 199.644 104.32 199.518V179.836C104.32 179.583 104.419 179.339 104.596 179.16C104.773 178.981 105.013 178.88 105.263 178.88H107.917C108.204 178.927 108.298 179.202 108.199 179.609C108.198 179.618 108.198 179.627 108.199 179.635L107.74 181.379C107.732 181.416 107.735 181.455 107.749 181.491C107.764 181.526 107.789 181.556 107.821 181.576C107.853 181.597 107.891 181.606 107.928 181.604C107.966 181.602 108.002 181.588 108.032 181.564L110.044 179.831L110.138 179.752C110.289 179.646 110.435 179.546 110.586 179.456C111.805 178.736 113.196 178.37 114.606 178.399C116.063 178.376 117.501 178.74 118.777 179.456C119.966 180.129 120.949 181.122 121.618 182.325C122.312 183.619 122.664 185.074 122.64 186.547Z" fill="#F6F5F1"/>
<path d="M79.4259 57.9147C79.7484 57.9147 80.0677 57.9791 80.3656 58.1041C80.6635 58.2292 80.9342 58.4125 81.1622 58.6436C81.3902 58.8747 81.5711 59.149 81.6945 59.451C81.8179 59.7529 81.8814 60.0765 81.8814 60.4033V69.2166C81.8773 72.8666 80.4444 76.3659 77.8973 78.9464C75.3501 81.527 71.8968 82.9778 68.2953 82.9806H59.6046C58.9534 82.9806 58.3288 82.7184 57.8683 82.2517C57.4078 81.785 57.1491 81.152 57.1491 80.492V69.8295C57.149 69.399 57.2591 68.9758 57.4686 68.6013C57.6781 68.2268 57.9799 67.9138 58.3444 67.6929C58.709 67.4719 59.1238 67.3506 59.5485 67.3408C59.9732 67.3309 60.3931 67.4329 60.7672 67.6367L71.0376 73.2163C71.2056 73.307 71.3979 73.3408 71.5862 73.3128C71.7745 73.2847 71.9491 73.1963 72.0843 73.0605C72.2195 72.9247 72.3082 72.7485 72.3375 72.5579C72.3668 72.3673 72.3351 72.1721 72.2471 72.0011L66.7313 61.5816C66.53 61.202 66.4294 60.776 66.4393 60.3451C66.4493 59.9143 66.5694 59.4935 66.7881 59.1238C67.0067 58.7542 67.3162 58.4485 67.6865 58.2365C68.0567 58.0246 68.4749 57.9137 68.9001 57.9147H79.4259Z" fill="#F6F5F1"/>
<path d="M114.851 69.8295V80.492C114.851 80.8192 114.787 81.1433 114.663 81.4456C114.54 81.7478 114.358 82.0224 114.13 82.2536C113.901 82.4847 113.63 82.6679 113.331 82.7927C113.033 82.9174 112.713 82.9813 112.39 82.9806H106.171C101.914 82.9792 97.8317 81.2648 94.8216 78.2141C91.8116 75.1635 90.12 71.0263 90.1186 66.7121V60.4033C90.1186 60.0765 90.1821 59.7529 90.3055 59.451C90.4289 59.149 90.6098 58.8747 90.8378 58.6436C91.0658 58.4125 91.3365 58.2292 91.6344 58.1041C91.9323 57.9791 92.2516 57.9147 92.5741 57.9147H103.1C103.525 57.9146 103.942 58.0261 104.312 58.2385C104.681 58.4508 104.99 58.7566 105.208 59.1261C105.426 59.4956 105.546 59.9161 105.555 60.3464C105.565 60.7768 105.465 61.2024 105.263 61.5816L99.7529 72.0011C99.6621 72.1715 99.6281 72.3671 99.656 72.5587C99.6838 72.7503 99.772 72.9276 99.9075 73.0643C100.043 73.2009 100.218 73.2896 100.407 73.317C100.597 73.3444 100.789 73.3091 100.957 73.2163L111.233 67.6314C111.607 67.4274 112.028 67.3254 112.453 67.3355C112.878 67.3456 113.293 67.4674 113.658 67.6889C114.023 67.9105 114.324 68.2242 114.533 68.5995C114.742 68.9747 114.852 69.3985 114.851 69.8295Z" fill="#F6F5F1"/>
<path d="M94.3101 25.8003L101.744 33.3402C102.205 33.8069 102.463 34.4398 102.463 35.0997C102.463 35.7596 102.205 36.3925 101.744 36.8591L97.3495 41.3186C94.3377 44.368 90.2546 46.0808 85.9974 46.0808C81.7402 46.0808 77.6571 44.368 74.6452 41.3186L70.2452 36.8591C69.7848 36.3925 69.5262 35.7596 69.5262 35.0997C69.5262 34.4398 69.7848 33.8069 70.2452 33.3402L77.6794 25.7951C77.9807 25.491 78.3547 25.2714 78.7648 25.1577C79.175 25.0441 79.6072 25.0404 80.0192 25.1469C80.4312 25.2534 80.8089 25.4665 81.1152 25.7654C81.4215 26.0643 81.646 26.4386 81.7667 26.8518L85.1398 38.1695C85.1941 38.3552 85.3061 38.5182 85.4593 38.6341C85.6124 38.75 85.7984 38.8126 85.9896 38.8126C86.1807 38.8126 86.3667 38.75 86.5199 38.6341C86.673 38.5182 86.7851 38.3552 86.8394 38.1695L90.2124 26.8624C90.3316 26.4467 90.5556 26.0697 90.8625 25.7687C91.1693 25.4676 91.5483 25.2528 91.9621 25.1456C92.3758 25.0383 92.8101 25.0423 93.2218 25.1572C93.6336 25.272 94.0087 25.4937 94.3101 25.8003Z" fill="#F6F5F1"/>
<path d="M146.543 95.5823L139.104 103.117C138.643 103.583 138.019 103.845 137.367 103.845C136.716 103.845 136.092 103.583 135.631 103.117L131.231 98.6627C129.74 97.1519 128.557 95.3583 127.75 93.3842C126.944 91.4101 126.528 89.2942 126.528 87.1574C126.528 85.0206 126.944 82.9047 127.75 80.9306C128.557 78.9565 129.74 77.1629 131.231 75.6521L135.631 71.1927C136.092 70.7261 136.716 70.464 137.367 70.464C138.019 70.464 138.643 70.7261 139.104 71.1927L146.548 78.7272C146.848 79.0326 147.065 79.4116 147.177 79.8273C147.289 80.243 147.293 80.681 147.188 81.0986C147.083 81.5161 146.872 81.8989 146.578 82.2093C146.283 82.5198 145.913 82.7473 145.506 82.8697L134.339 86.2882C134.155 86.3432 133.994 86.4568 133.88 86.612C133.766 86.7672 133.704 86.9558 133.704 87.1495C133.704 87.3432 133.766 87.5317 133.88 87.6869C133.994 87.8421 134.155 87.9557 134.339 88.0107L145.495 91.4293C145.905 91.55 146.277 91.7771 146.574 92.0881C146.871 92.3991 147.083 92.7832 147.189 93.2025C147.295 93.6219 147.291 94.062 147.178 94.4793C147.064 94.8966 146.846 95.2768 146.543 95.5823Z" fill="#F6F5F1"/>
<path d="M77.6794 148.52L70.2399 140.98C69.7796 140.513 69.521 139.88 69.521 139.22C69.521 138.561 69.7796 137.928 70.2399 137.461L74.64 133.001C76.1307 131.49 77.9004 130.292 79.8482 129.474C81.7961 128.656 83.8838 128.235 85.9922 128.235C88.1006 128.235 90.1883 128.656 92.1361 129.474C94.0839 130.292 95.8537 131.49 97.3443 133.001L101.744 137.461C102.205 137.928 102.463 138.561 102.463 139.22C102.463 139.88 102.205 140.513 101.744 140.98L94.3101 148.525C94.0089 148.829 93.6349 149.049 93.2247 149.162C92.8146 149.276 92.3823 149.28 91.9703 149.173C91.5583 149.067 91.1807 148.854 90.8744 148.555C90.5681 148.256 90.3435 147.881 90.2228 147.468L86.8498 136.151C86.7955 135.965 86.6834 135.802 86.5303 135.686C86.3771 135.57 86.1911 135.507 86 135.507C85.8089 135.507 85.6229 135.57 85.4697 135.686C85.3166 135.802 85.2045 135.965 85.1502 136.151L81.7772 147.458C81.658 147.873 81.434 148.25 81.1271 148.551C80.8203 148.852 80.4413 149.067 80.0275 149.175C79.6137 149.282 79.1795 149.278 78.7677 149.163C78.3559 149.048 77.9808 148.826 77.6794 148.52Z" fill="#F6F5F1"/>
<path d="M25.457 78.7272L32.8965 71.198C33.3569 70.7314 33.9814 70.4693 34.6325 70.4693C35.2836 70.4693 35.9081 70.7314 36.3686 71.198L40.7687 75.6574C43.7775 78.7099 45.4675 82.848 45.4675 87.1627C45.4675 91.4773 43.7775 95.6155 40.7687 98.6679L36.3686 103.127C35.9081 103.594 35.2836 103.856 34.6325 103.856C33.9814 103.856 33.3569 103.594 32.8965 103.127L25.4517 95.5823C25.1517 95.2769 24.935 94.8979 24.8229 94.4822C24.7108 94.0665 24.7071 93.6285 24.8122 93.2109C24.9173 92.7934 25.1276 92.4106 25.4225 92.1002C25.7174 91.7897 26.0867 91.5622 26.4944 91.4398L37.6615 88.0213C37.8448 87.9663 38.0056 87.8527 38.1199 87.6975C38.2343 87.5423 38.2961 87.3537 38.2961 87.16C38.2961 86.9663 38.2343 86.7778 38.1199 86.6226C38.0056 86.4674 37.8448 86.3538 37.6615 86.2988L26.5048 82.8802C26.0947 82.7595 25.7228 82.5324 25.4257 82.2214C25.1286 81.9104 24.9167 81.5263 24.8109 81.107C24.7051 80.6876 24.709 80.2475 24.8223 79.8302C24.9356 79.4129 25.1544 79.0327 25.457 78.7272Z" fill="#F6F5F1"/>
<path d="M99.7529 102.314L105.263 112.738C105.465 113.117 105.566 113.543 105.556 113.973C105.547 114.403 105.427 114.823 105.209 115.193C104.991 115.562 104.681 115.867 104.312 116.079C103.942 116.291 103.524 116.401 103.1 116.4H92.5741C91.9228 116.4 91.2983 116.138 90.8378 115.671C90.3773 115.204 90.1186 114.571 90.1186 113.911V107.608C90.1186 103.293 91.8098 99.1553 94.8201 96.1044C97.8304 93.0534 101.913 91.3394 106.171 91.3394H112.39C112.713 91.3387 113.033 91.4026 113.331 91.5273C113.63 91.6521 113.901 91.8353 114.13 92.0665C114.358 92.2976 114.54 92.5722 114.663 92.8745C114.787 93.1768 114.851 93.5008 114.851 93.8281V104.485C114.85 104.916 114.74 105.339 114.531 105.713C114.321 106.087 114.02 106.4 113.655 106.622C113.291 106.843 112.877 106.965 112.452 106.976C112.028 106.986 111.608 106.886 111.233 106.683L100.957 101.104C100.79 101.012 100.598 100.978 100.41 101.005C100.222 101.033 100.048 101.121 99.9127 101.257C99.7778 101.392 99.6894 101.568 99.6607 101.758C99.6319 101.949 99.6642 102.143 99.7529 102.314Z" fill="#F6F5F1"/>
<path d="M81.8814 105.146V113.938C81.8814 114.265 81.8179 114.588 81.6945 114.89C81.5711 115.192 81.3902 115.466 81.1622 115.698C80.9342 115.929 80.6635 116.112 80.3656 116.237C80.0677 116.362 79.7484 116.426 79.4259 116.426H68.9001C68.4756 116.427 68.0583 116.316 67.6887 116.104C67.3192 115.893 67.0101 115.588 66.7917 115.219C66.5732 114.85 66.4528 114.43 66.4422 114C66.4317 113.57 66.5313 113.144 66.7313 112.765L72.2471 102.34C72.3372 102.169 72.3703 101.974 72.3417 101.782C72.313 101.591 72.224 101.414 72.088 101.278C71.952 101.141 71.7762 101.054 71.5869 101.027C71.3976 101 71.2049 101.037 71.0376 101.13L60.7672 106.71C60.3925 106.912 59.9724 107.013 59.5479 107.002C59.1234 106.991 58.7089 106.869 58.3447 106.648C57.9805 106.427 57.679 106.114 57.4695 105.739C57.26 105.365 57.1496 104.942 57.1491 104.512V93.828C57.1491 93.168 57.4078 92.535 57.8683 92.0683C58.3288 91.6016 58.9534 91.3394 59.6046 91.3394H68.2953C70.0822 91.3408 71.8512 91.6991 73.5013 92.3939C75.1514 93.0887 76.6502 94.1063 77.912 95.3885C79.1738 96.6708 80.1738 98.1925 80.8549 99.8667C81.536 101.541 81.8848 103.335 81.8814 105.146Z" fill="#F6F5F1"/>
<path d="M61.1686 54.232L53.6092 61.8933C53.2358 62.2725 52.7798 62.5576 52.2778 62.7256C51.7759 62.8936 51.242 62.9399 50.7192 62.8608C50.1964 62.7816 49.6992 62.5793 49.2676 62.2699C48.836 61.9606 48.4821 61.5529 48.2342 61.0796L41.3682 48.0078C41.027 47.3602 40.9006 46.6185 41.0077 45.8924C41.1147 45.1664 41.4495 44.4945 41.9625 43.9763L43.8185 42.09C44.3462 41.5618 45.0306 41.224 45.7662 41.1285C46.5019 41.0331 47.2482 41.1852 47.8902 41.5616L60.4753 48.8373C60.9242 49.1009 61.3073 49.4657 61.595 49.9034C61.8826 50.3411 62.0671 50.8399 62.1341 51.3614C62.2011 51.8829 62.1489 52.413 61.9815 52.9107C61.8141 53.4085 61.536 53.8605 61.1686 54.232Z" fill="#F6F5F1"/>
<path d="M118.485 61.9937L110.93 54.3324C110.557 53.9537 110.276 53.4918 110.111 52.9835C109.945 52.4752 109.9 51.9347 109.977 51.4052C110.055 50.8758 110.253 50.3721 110.557 49.9344C110.861 49.4967 111.262 49.1373 111.728 48.8848L124.631 41.9262C125.27 41.5813 126.002 41.4536 126.718 41.5621C127.434 41.6705 128.097 42.0093 128.609 42.5285L130.465 44.4095C130.99 44.9412 131.328 45.6333 131.427 46.379C131.526 47.1247 131.38 47.8827 131.012 48.5361L123.807 61.291C123.547 61.746 123.187 62.1343 122.756 62.4258C122.324 62.7173 121.831 62.9043 121.317 62.9722C120.802 63.0402 120.279 62.9872 119.788 62.8176C119.297 62.6479 118.851 62.366 118.485 61.9937Z" fill="#F6F5F1"/>
<path d="M110.831 120.083L118.391 112.427C118.764 112.048 119.219 111.764 119.72 111.596C120.222 111.428 120.754 111.382 121.277 111.46C121.799 111.539 122.295 111.741 122.727 112.049C123.158 112.357 123.512 112.763 123.761 113.235L130.632 126.312C130.972 126.96 131.098 127.702 130.991 128.427C130.884 129.153 130.55 129.825 130.037 130.344L128.176 132.225C127.652 132.757 126.971 133.099 126.236 133.2C125.501 133.3 124.754 133.152 124.11 132.78L111.566 125.477C111.114 125.218 110.726 124.857 110.434 124.421C110.141 123.985 109.952 123.487 109.881 122.965C109.81 122.443 109.859 121.911 110.024 121.411C110.188 120.911 110.465 120.457 110.831 120.083Z" fill="#F6F5F1"/>
<path d="M53.5102 112.326L61.0696 119.988C61.4437 120.366 61.725 120.827 61.8908 121.336C62.0566 121.844 62.1023 122.385 62.0242 122.914C61.9461 123.444 61.7464 123.947 61.4411 124.384C61.1358 124.821 60.7336 125.179 60.2667 125.43L47.3688 132.394C46.7299 132.74 45.998 132.868 45.2816 132.759C44.5653 132.651 43.9023 132.311 43.391 131.791L41.5298 129.905C41.0091 129.371 40.676 128.679 40.5818 127.934C40.4876 127.189 40.6375 126.434 41.0085 125.784L48.1873 113.071C48.443 112.612 48.7998 112.22 49.2299 111.923C49.6599 111.627 50.1517 111.435 50.6668 111.363C51.1819 111.291 51.7065 111.341 52.1997 111.508C52.6928 111.675 53.1413 111.955 53.5102 112.326Z" fill="#F6F5F1"/>
</svg>
