<svg width="24" height="24" viewBox="0 0 24 24" fill="none" xmlns="http://www.w3.org/2000/svg">
<path d="M12 0C15.1826 0 18.2348 1.26428 20.4853 3.51472C22.7357 5.76516 24 8.8174 24 12C24 15.1826 22.7357 18.2348 20.4853 20.4853C18.2348 22.7357 15.1826 24 12 24C8.8174 24 5.76516 22.7357 3.51472 20.4853C1.26428 18.2348 0 15.1826 0 12C0 8.8174 1.26428 5.76516 3.51472 3.51472C5.76516 1.26428 8.8174 0 12 0ZM2.25 12C2.25 14.5859 3.27723 17.0658 5.10571 18.8943C6.93419 20.7228 9.41414 21.75 12 21.75C14.5859 21.75 17.0658 20.7228 18.8943 18.8943C20.7228 17.0658 21.75 14.5859 21.75 12C21.75 9.41414 20.7228 6.93419 18.8943 5.10571C17.0658 3.27723 14.5859 2.25 12 2.25C9.41414 2.25 6.93419 3.27723 5.10571 5.10571C3.27723 6.93419 2.25 9.41414 2.25 12ZM9.5685 7.8405L15.9645 11.679C16.0198 11.7124 16.0655 11.7595 16.0972 11.8157C16.129 11.8719 16.1456 11.9354 16.1456 12C16.1456 12.0646 16.129 12.1281 16.0972 12.1843C16.0655 12.2405 16.0198 12.2876 15.9645 12.321L9.5685 16.1595C9.51162 16.1938 9.44667 16.2123 9.38028 16.2132C9.31389 16.2142 9.24844 16.1975 9.19062 16.1648C9.1328 16.1322 9.08469 16.0848 9.0512 16.0274C9.01771 15.9701 9.00004 15.9049 9 15.8385V8.163C8.99977 8.09647 9.01725 8.03109 9.05063 7.97354C9.08401 7.916 9.1321 7.86837 9.18997 7.83555C9.24783 7.80272 9.31338 7.78588 9.3799 7.78675C9.44642 7.78762 9.51152 7.80617 9.5685 7.8405Z" fill="#5C05D7"/>
</svg>
