<svg width="24" height="24" viewBox="0 0 24 24" fill="none" xmlns="http://www.w3.org/2000/svg">
<path d="M11.9968 7.85131C9.79333 7.85131 7.99515 9.61648 7.99515 11.7795C7.99515 13.9425 9.79333 15.7076 11.9968 15.7076C14.2002 15.7076 15.9984 13.9425 15.9984 11.7795C15.9984 9.61648 14.2002 7.85131 11.9968 7.85131ZM23.9987 11.7795C23.9987 10.1528 24.0137 8.54087 23.9206 6.91715C23.8275 5.03116 23.3893 3.35735 21.9843 1.97822C20.5764 0.596142 18.8743 0.168847 16.953 0.0774948C15.2959 -0.0138578 13.6539 0.000876526 11.9998 0.000876526C10.3427 0.000876526 8.70061 -0.0138578 7.04652 0.0774948C5.12526 0.168847 3.42014 0.599089 2.01522 1.97822C0.607291 3.3603 0.172005 5.03116 0.0789442 6.91715C-0.014117 8.54382 0.000892919 10.1558 0.000892919 11.7795C0.000892919 13.4032 -0.014117 15.0181 0.0789442 16.6418C0.172005 18.5278 0.610293 20.2016 2.01522 21.5807C3.42314 22.9628 5.12526 23.3901 7.04652 23.4814C8.70361 23.5728 10.3457 23.5581 11.9998 23.5581C13.6569 23.5581 15.2989 23.5728 16.953 23.4814C18.8743 23.3901 20.5794 22.9599 21.9843 21.5807C23.3923 20.1986 23.8275 18.5278 23.9206 16.6418C24.0167 15.0181 23.9987 13.4061 23.9987 11.7795ZM11.9968 17.8235C8.58954 17.8235 5.83973 15.1242 5.83973 11.7795C5.83973 8.43479 8.58954 5.73546 11.9968 5.73546C15.404 5.73546 18.1538 8.43479 18.1538 11.7795C18.1538 15.1242 15.404 17.8235 11.9968 17.8235ZM18.406 6.89947C17.6105 6.89947 16.968 6.26884 16.968 5.48793C16.968 4.70701 17.6105 4.07638 18.406 4.07638C19.2015 4.07638 19.8439 4.70701 19.8439 5.48793C19.8442 5.67336 19.8071 5.85702 19.735 6.02838C19.6628 6.19974 19.5569 6.35544 19.4233 6.48656C19.2897 6.61768 19.1311 6.72164 18.9565 6.7925C18.782 6.86335 18.5949 6.8997 18.406 6.89947Z" fill="white"/>
</svg>
