<svg width="66" height="67" viewBox="0 0 66 67" fill="none" xmlns="http://www.w3.org/2000/svg">
<path d="M29.3042 17.7215C29.477 17.7215 29.6481 17.7563 29.8077 17.8237C29.9674 17.8912 30.1124 17.9901 30.2346 18.1148C30.3567 18.2395 30.4537 18.3875 30.5198 18.5504C30.5859 18.7133 30.6199 18.8879 30.6199 19.0642V23.8191C30.6177 25.7884 29.85 27.6764 28.4852 29.0686C27.1204 30.4608 25.2701 31.2436 23.3404 31.2451H18.6838C18.3349 31.2451 18.0002 31.1037 17.7535 30.8519C17.5067 30.6001 17.3681 30.2585 17.3681 29.9025V24.1498C17.3681 23.9175 17.427 23.6892 17.5393 23.4872C17.6515 23.2851 17.8132 23.1163 18.0086 22.9971C18.2039 22.8779 18.4262 22.8124 18.6537 22.8071C18.8813 22.8018 19.1063 22.8568 19.3067 22.9668L24.8097 25.9771C24.8997 26.026 25.0027 26.0442 25.1036 26.0291C25.2046 26.014 25.2981 25.9663 25.3705 25.893C25.443 25.8197 25.4905 25.7247 25.5062 25.6218C25.5219 25.519 25.5049 25.4137 25.4578 25.3214L22.5024 19.6999C22.3945 19.4951 22.3406 19.2652 22.3459 19.0328C22.3512 18.8004 22.4156 18.5733 22.5328 18.3739C22.6499 18.1745 22.8158 18.0095 23.0141 17.8951C23.2125 17.7808 23.4366 17.721 23.6644 17.7215H29.3042Z" fill="white"/>
<path d="M48.2853 24.1498V29.9024C48.2853 30.079 48.2511 30.2538 48.1848 30.4169C48.1185 30.58 48.0214 30.7282 47.8989 30.8529C47.7764 30.9776 47.6311 31.0764 47.4711 31.1437C47.3112 31.211 47.1398 31.2455 46.9668 31.2451H43.6343C41.3534 31.2444 39.1662 30.3194 37.5534 28.6735C35.9406 27.0276 35.0342 24.7955 35.0335 22.4679V19.0642C35.0335 18.8879 35.0675 18.7133 35.1336 18.5504C35.1997 18.3875 35.2966 18.2395 35.4188 18.1148C35.541 17.9901 35.686 17.8912 35.8457 17.8237C36.0053 17.7563 36.1764 17.7215 36.3491 17.7215H41.989C42.2166 17.7215 42.4403 17.7816 42.6383 17.8962C42.8363 18.0108 43.0017 18.1758 43.1185 18.3751C43.2354 18.5744 43.2995 18.8013 43.3047 19.0335C43.3099 19.2657 43.256 19.4953 43.1482 19.6999L40.1956 25.3214C40.147 25.4134 40.1288 25.5189 40.1437 25.6223C40.1586 25.7256 40.2059 25.8213 40.2784 25.8951C40.351 25.9688 40.445 26.0166 40.5463 26.0314C40.6477 26.0462 40.751 26.0271 40.8409 25.9771L46.3467 22.9639C46.5473 22.8538 46.7726 22.7988 47.0003 22.8043C47.2281 22.8097 47.4506 22.8754 47.646 22.9949C47.8414 23.1145 48.0031 23.2837 48.1151 23.4862C48.2272 23.6886 48.2858 23.9173 48.2853 24.1498Z" fill="white"/>
<path d="M37.2793 0.395119L41.2627 4.46303C41.5094 4.71481 41.6479 5.05627 41.6479 5.4123C41.6479 5.76833 41.5094 6.10979 41.2627 6.36158L38.9079 8.76754C37.2941 10.4127 35.1064 11.3369 32.8253 11.3369C30.5442 11.3369 28.3565 10.4127 26.7427 8.76754L24.3851 6.36158C24.1384 6.10979 23.9999 5.76833 23.9999 5.4123C23.9999 5.05627 24.1384 4.71481 24.3851 4.46303L28.3685 0.392267C28.5299 0.228199 28.7303 0.109716 28.95 0.0484182C29.1698 -0.01288 29.4014 -0.0148928 29.6221 0.0425765C29.8429 0.100046 30.0452 0.215027 30.2094 0.376266C30.3735 0.537504 30.4938 0.739473 30.5585 0.962402L32.3658 7.06854C32.3949 7.16875 32.4549 7.25668 32.537 7.31921C32.619 7.38174 32.7187 7.41552 32.8211 7.41552C32.9235 7.41552 33.0232 7.38174 33.1052 7.31921C33.1873 7.25668 33.2473 7.16875 33.2764 7.06854L35.0837 0.968103C35.1476 0.743845 35.2676 0.540457 35.432 0.378021C35.5964 0.215584 35.7995 0.0997172 36.0212 0.0418598C36.2429 -0.0159976 36.4756 -0.0138442 36.6962 0.0481072C36.9169 0.110059 37.1178 0.229666 37.2793 0.395119Z" fill="white"/>
<path d="M65.2662 38.0438L61.2801 42.1089C61.0333 42.3606 60.6987 42.502 60.3499 42.502C60.001 42.502 59.6664 42.3606 59.4197 42.1089L57.0621 39.7058C56.2631 38.8907 55.6294 37.923 55.197 36.8579C54.7646 35.7929 54.5421 34.6513 54.5421 33.4984C54.5421 32.3456 54.7646 31.204 55.197 30.139C55.6294 29.0739 56.2631 28.1062 57.0621 27.2911L59.4197 24.8851C59.6664 24.6334 60.001 24.492 60.3499 24.492C60.6987 24.492 61.0333 24.6334 61.2801 24.8851L65.269 28.9502C65.4298 29.1149 65.5459 29.3194 65.6059 29.5437C65.666 29.768 65.668 30.0043 65.6117 30.2296C65.5554 30.4549 65.4427 30.6614 65.2847 30.8289C65.1267 30.9964 64.9288 31.1191 64.7103 31.1851L58.7269 33.0295C58.6287 33.0592 58.5426 33.1205 58.4813 33.2042C58.42 33.2879 58.3869 33.3897 58.3869 33.4942C58.3869 33.5987 58.42 33.7004 58.4813 33.7841C58.5426 33.8679 58.6287 33.9291 58.7269 33.9588L64.7047 35.8032C64.9245 35.8684 65.1238 35.9909 65.283 36.1586C65.4421 36.3264 65.5557 36.5337 65.6124 36.7599C65.6691 36.9862 65.667 37.2236 65.6062 37.4488C65.5455 37.6739 65.4283 37.879 65.2662 38.0438Z" fill="white"/>
<path d="M28.3685 66.6047L24.3823 62.5368C24.1356 62.285 23.9971 61.9436 23.9971 61.5875C23.9971 61.2315 24.1356 60.89 24.3823 60.6383L26.7399 58.2323C27.5386 57.417 28.4869 56.7702 29.5305 56.329C30.5742 55.8877 31.6928 55.6606 32.8225 55.6606C33.9522 55.6606 35.0708 55.8877 36.1145 56.329C37.1581 56.7702 38.1064 57.417 38.9051 58.2323L41.2627 60.6383C41.5094 60.89 41.6479 61.2315 41.6479 61.5875C41.6479 61.9436 41.5094 62.285 41.2627 62.5368L37.2793 66.6076C37.1179 66.7716 36.9175 66.8901 36.6978 66.9514C36.478 67.0127 36.2464 67.0147 36.0257 66.9572C35.8049 66.8998 35.6026 66.7848 35.4384 66.6236C35.2743 66.4623 35.154 66.2604 35.0893 66.0374L33.282 59.9313C33.2529 59.8311 33.1929 59.7432 33.1108 59.6806C33.0288 59.6181 32.9291 59.5843 32.8267 59.5843C32.7243 59.5843 32.6246 59.6181 32.5426 59.6806C32.4605 59.7432 32.4005 59.8311 32.3714 59.9313L30.5641 66.0317C30.5002 66.256 30.3802 66.4594 30.2158 66.6218C30.0514 66.7842 29.8483 66.9001 29.6266 66.958C29.4049 67.0158 29.1722 67.0137 28.9516 66.9517C28.7309 66.8898 28.53 66.7702 28.3685 66.6047Z" fill="white"/>
<path d="M0.387177 28.9503L4.37333 24.8881C4.62006 24.6364 4.95465 24.4949 5.30352 24.4949C5.6524 24.4949 5.98699 24.6364 6.23372 24.8881L8.59133 27.294C10.2035 28.9409 11.109 31.1735 11.109 33.5014C11.109 35.8292 10.2035 38.0618 8.59133 39.7087L6.23372 42.1147C5.98699 42.3664 5.6524 42.5078 5.30352 42.5078C4.95465 42.5078 4.62006 42.3664 4.37333 42.1147L0.384384 38.0439C0.223613 37.8792 0.107511 37.6747 0.0474451 37.4504C-0.0126212 37.2261 -0.0145935 36.9898 0.0417208 36.7645C0.098035 36.5392 0.210705 36.3328 0.368703 36.1653C0.526701 35.9978 0.724611 35.875 0.943059 35.809L6.92648 33.9646C7.02467 33.9349 7.11083 33.8736 7.17211 33.7899C7.23338 33.7062 7.26649 33.6045 7.26649 33.4999C7.26649 33.3954 7.23338 33.2937 7.17211 33.21C7.11083 33.1262 7.02467 33.065 6.92648 33.0353L0.948646 31.1909C0.728896 31.1258 0.529595 31.0032 0.370423 30.8355C0.211251 30.6677 0.0977131 30.4604 0.0410185 30.2342C-0.015676 30.0079 -0.013566 29.7705 0.0471404 29.5454C0.107847 29.3202 0.22505 29.1151 0.387177 28.9503Z" fill="white"/>
<path d="M40.1956 41.6755L43.1482 47.2998C43.2562 47.5042 43.3102 47.7337 43.3051 47.9658C43.2999 48.1979 43.2358 48.4247 43.1189 48.6239C43.002 48.8231 42.8364 48.9879 42.6383 49.1021C42.4402 49.2163 42.2165 49.276 41.989 49.2754H36.3491C36.0002 49.2754 35.6656 49.1339 35.4188 48.8821C35.1721 48.6303 35.0335 48.2888 35.0335 47.9327V44.5318C35.0335 42.204 35.9396 39.9715 37.5526 38.3254C39.1656 36.6794 41.3532 35.7546 43.6343 35.7546H46.9668C47.1398 35.7543 47.3112 35.7887 47.4711 35.856C47.6311 35.9233 47.7764 36.0222 47.8989 36.1469C48.0214 36.2716 48.1185 36.4197 48.1848 36.5828C48.2511 36.7459 48.2853 36.9207 48.2853 37.0973V42.8471C48.285 43.0793 48.2259 43.3075 48.1136 43.5094C48.0014 43.7114 47.8398 43.8803 47.6447 43.9996C47.4495 44.119 47.2274 44.1848 46.9999 44.1907C46.7725 44.1965 46.5474 44.1422 46.3466 44.033L40.8409 41.0227C40.7513 40.9734 40.6485 40.9548 40.5478 40.9696C40.447 40.9845 40.3536 41.032 40.2813 41.1051C40.209 41.1783 40.1616 41.2732 40.1462 41.3759C40.1308 41.4786 40.1481 41.5836 40.1956 41.6755Z" fill="white"/>
<path d="M30.6199 43.2034V47.947C30.6199 48.1233 30.5859 48.2979 30.5198 48.4608C30.4537 48.6237 30.3567 48.7717 30.2346 48.8964C30.1124 49.021 29.9674 49.1199 29.8077 49.1874C29.6481 49.2549 29.477 49.2896 29.3042 49.2896H23.6644C23.437 49.2899 23.2133 49.23 23.0153 49.1158C22.8173 49.0016 22.6517 48.837 22.5347 48.638C22.4176 48.439 22.3531 48.2124 22.3475 47.9804C22.3418 47.7484 22.3952 47.5188 22.5024 47.3141L25.4578 41.6897C25.506 41.5976 25.5238 41.4919 25.5084 41.3886C25.4931 41.2853 25.4454 41.1898 25.3725 41.1164C25.2997 41.043 25.2055 40.9956 25.104 40.9813C25.0026 40.967 24.8994 40.9865 24.8097 41.0369L19.3067 44.0472C19.106 44.1564 18.8809 44.2108 18.6534 44.2049C18.426 44.1991 18.2039 44.1333 18.0087 44.0139C17.8136 43.8945 17.652 43.7256 17.5398 43.5237C17.4275 43.3217 17.3684 43.0935 17.3681 42.8614V37.0973C17.3681 36.7412 17.5067 36.3997 17.7535 36.1479C18.0002 35.8961 18.3349 35.7546 18.6838 35.7546H23.3404C24.2978 35.7554 25.2457 35.9487 26.1298 36.3235C27.0139 36.6984 27.817 37.2474 28.4931 37.9392C29.1692 38.631 29.705 39.452 30.0699 40.3553C30.4349 41.2586 30.6218 42.2264 30.6199 43.2034Z" fill="white"/>
<path d="M19.5218 15.7348L15.4714 19.8682C15.2713 20.0728 15.027 20.2266 14.758 20.3173C14.4891 20.4079 14.203 20.4329 13.9229 20.3902C13.6428 20.3475 13.3764 20.2383 13.1451 20.0714C12.9139 19.9045 12.7242 19.6845 12.5914 19.4292L8.91257 12.3767C8.72976 12.0273 8.66203 11.6271 8.71938 11.2354C8.77673 10.8437 8.95612 10.4812 9.23101 10.2016L10.2255 9.18391C10.5082 8.89894 10.8749 8.71668 11.2691 8.66518C11.6633 8.61367 12.0631 8.69577 12.4071 8.89884L19.1503 12.8242C19.3909 12.9665 19.5961 13.1633 19.7503 13.3994C19.9044 13.6355 20.0032 13.9047 20.0391 14.186C20.075 14.4674 20.0471 14.7534 19.9574 15.0219C19.8677 15.2905 19.7186 15.5344 19.5218 15.7348Z" fill="white"/>
<path d="M50.2322 19.9222L46.1846 15.7887C45.9846 15.5845 45.8342 15.3352 45.7455 15.061C45.6568 14.7868 45.6323 14.4951 45.6738 14.2095C45.7154 13.9238 45.8218 13.6521 45.9848 13.4159C46.1477 13.1798 46.3625 12.9859 46.612 12.8497L53.5256 9.09536C53.8681 8.90926 54.2601 8.84039 54.6439 8.8989C55.0276 8.95741 55.3828 9.1402 55.657 9.42033L56.6514 10.4352C56.9329 10.722 57.1141 11.0954 57.1671 11.4977C57.2201 11.9001 57.142 12.309 56.9447 12.6615L53.0843 19.5431C52.9449 19.7886 52.7521 19.9981 52.5207 20.1553C52.2893 20.3126 52.0255 20.4135 51.7498 20.4501C51.4742 20.4868 51.1939 20.4582 50.9307 20.3667C50.6676 20.2752 50.4286 20.1231 50.2322 19.9222Z" fill="white"/>
<path d="M46.1316 51.2627L50.182 47.1321C50.3819 46.928 50.6259 46.7745 50.8944 46.684C51.1629 46.5934 51.4485 46.5684 51.7282 46.6108C52.0079 46.6532 52.274 46.7619 52.5051 46.9281C52.7363 47.0944 52.926 47.3136 53.0591 47.5682L56.7408 54.6237C56.9232 54.9732 56.9907 55.3732 56.9333 55.7648C56.876 56.1564 56.6969 56.5189 56.4224 56.7987L55.4251 57.8136C55.1445 58.1006 54.7791 58.2854 54.3853 58.3395C53.9916 58.3935 53.5913 58.3139 53.2463 58.1129L46.5254 54.1732C46.2828 54.0334 46.0751 53.8383 45.9185 53.6032C45.7619 53.368 45.6606 53.0991 45.6224 52.8175C45.5843 52.5358 45.6104 52.249 45.6987 51.9793C45.787 51.7096 45.9352 51.4644 46.1316 51.2627Z" fill="white"/>
<path d="M15.4184 47.0778L19.4688 51.2112C19.6692 51.4152 19.8199 51.6643 19.9088 51.9385C19.9976 52.2128 20.0221 52.5045 19.9802 52.7902C19.9384 53.0759 19.8314 53.3475 19.6678 53.5833C19.5042 53.819 19.2887 54.0123 19.0386 54.1474L12.1278 57.9046C11.7854 58.0912 11.3933 58.1603 11.0094 58.1018C10.6256 58.0432 10.2704 57.8602 9.9964 57.5796L8.99917 56.562C8.72016 56.2739 8.54168 55.9001 8.49121 55.4984C8.44073 55.0966 8.52106 54.689 8.71983 54.3384L12.5663 47.4797C12.7033 47.2321 12.8945 47.0202 13.1249 46.8603C13.3553 46.7005 13.6188 46.5971 13.8948 46.5582C14.1708 46.5193 14.4519 46.546 14.7162 46.6361C14.9804 46.7262 15.2207 46.8773 15.4184 47.0778Z" fill="white"/>
</svg>
