<svg width="66" height="17" viewBox="0 0 66 17" fill="none" xmlns="http://www.w3.org/2000/svg">
<path d="M26.7156 0.0113065H25.3343C25.0537 0.0113065 24.8262 0.243477 24.8262 0.529874V15.8806C24.8262 16.167 25.0537 16.3992 25.3343 16.3992H26.7156C26.9962 16.3992 27.2237 16.167 27.2237 15.8806V0.529874C27.2237 0.243477 26.9962 0.0113065 26.7156 0.0113065Z" fill="white"/>
<path d="M9.44983 16.3994H7.88609C7.80224 16.3989 7.71977 16.3775 7.64587 16.3371C7.57198 16.2966 7.50891 16.2383 7.46217 16.1673L4.46945 11.526C4.42702 11.4609 4.3708 11.4064 4.30496 11.3665C4.23912 11.3266 4.16533 11.3023 4.08905 11.2955C4.01277 11.2886 3.93595 11.2993 3.86427 11.3268C3.79259 11.3543 3.72789 11.3979 3.67494 11.4543L2.53512 12.692C2.44688 12.7884 2.39773 12.9154 2.39756 13.0473V15.8779C2.39756 16.0157 2.34411 16.1479 2.2489 16.2456C2.15368 16.3433 2.02444 16.3986 1.88941 16.3994H0.508154C0.441186 16.3994 0.37488 16.3859 0.313045 16.3596C0.25121 16.3334 0.195067 16.2949 0.147844 16.2465C0.100622 16.198 0.0632509 16.1405 0.0378799 16.0773C0.0125089 16.014 -0.000362144 15.9463 7.8425e-06 15.8779V0.518575C-0.000364505 0.45037 0.0125254 0.382769 0.0379302 0.319682C0.0633351 0.256595 0.10075 0.199278 0.14801 0.151049C0.19527 0.10282 0.251437 0.0646319 0.313256 0.038706C0.375075 0.0127801 0.441319 -0.000371979 0.508154 8.00463e-06H1.88941C1.95651 -0.00036927 2.02303 0.0127446 2.08516 0.0386011C2.14729 0.0644576 2.20383 0.102546 2.25153 0.150699C2.29924 0.198853 2.33719 0.256125 2.36321 0.319245C2.38923 0.382364 2.40281 0.450099 2.40317 0.518575V8.4031C2.40947 8.60272 2.38387 8.80206 2.32737 8.99329C2.3182 9.01462 2.31069 9.03666 2.30491 9.05919L2.02417 9.8442C2.01634 9.86753 2.01651 9.89289 2.02464 9.91611C2.03278 9.93934 2.0484 9.95906 2.06895 9.97204C2.0895 9.98503 2.11375 9.9905 2.13775 9.98757C2.16175 9.98465 2.18406 9.9735 2.20104 9.95594L3.62721 8.44034L7.04106 4.84475C7.08792 4.79496 7.14415 4.75534 7.20638 4.72826C7.26862 4.70119 7.33556 4.68721 7.40321 4.68717H9.02872C9.12738 4.68835 9.2236 4.71867 9.30574 4.77444C9.38789 4.83021 9.45246 4.90906 9.49165 5.00147C9.53084 5.09388 9.54297 5.19588 9.52659 5.29517C9.5102 5.39447 9.46599 5.4868 9.3993 5.56101L6.14829 9.08784C6.07049 9.17281 6.02293 9.282 6.01326 9.39787C6.00358 9.51374 6.03236 9.62957 6.09495 9.72674L9.87376 15.5943C9.92453 15.6725 9.95358 15.7632 9.95781 15.8569C9.96205 15.9506 9.94132 16.0437 9.89782 16.1263C9.85432 16.2089 9.78969 16.2779 9.7108 16.326C9.63191 16.3741 9.54173 16.3994 9.44983 16.3994Z" fill="white"/>
<path d="M22.1226 7.68105C21.8815 7.01409 21.5175 6.40042 21.0501 5.87322C20.5727 5.33632 19.9864 4.91201 19.332 4.62981C18.5951 4.31299 17.8013 4.15779 17.0018 4.17427C15.9893 4.16032 14.993 4.4341 14.1242 4.96501C13.2741 5.4821 12.5752 6.22207 12.1 7.10805C11.5894 8.0753 11.333 9.1611 11.3561 10.2596C11.3413 11.3498 11.5972 12.4261 12.1 13.3882C12.578 14.3006 13.2891 15.0639 14.1579 15.5971C15.0753 16.1491 16.1251 16.4298 17.1899 16.4079C17.9316 16.4166 18.6687 16.2885 19.3657 16.0297C19.985 15.7969 20.5563 15.448 21.0501 15.0012C21.3302 14.7494 21.5757 14.4603 21.7801 14.1417C21.8281 14.0686 21.8603 13.9859 21.8744 13.8992C21.8886 13.8124 21.8843 13.7235 21.862 13.6386C21.8396 13.5536 21.7997 13.4745 21.7449 13.4066C21.6901 13.3387 21.6217 13.2836 21.5443 13.2449L20.6178 12.7693C20.4916 12.7056 20.3477 12.6885 20.2105 12.7209C20.0733 12.7533 19.9514 12.8332 19.8654 12.947C19.6176 13.2668 19.3198 13.5427 18.9839 13.7635C18.4472 14.0974 17.8265 14.2637 17.1983 14.2419C16.5683 14.2497 15.9487 14.077 15.41 13.7434C14.8817 13.4087 14.4595 12.9251 14.1944 12.351C14.0996 12.1608 14.0243 11.9611 13.9698 11.7551C13.9476 11.6638 13.9461 11.5686 13.9654 11.4767C13.9847 11.3847 14.0242 11.2984 14.081 11.2244C14.1379 11.1504 14.2105 11.0906 14.2934 11.0495C14.3763 11.0084 14.4672 10.9871 14.5594 10.9873H21.884C22.0356 10.9875 22.1814 10.928 22.2912 10.8213C22.401 10.7146 22.4663 10.5688 22.4735 10.4143C22.4904 10.2137 22.496 10.0189 22.496 9.84127C22.4992 9.1042 22.3727 8.37253 22.1226 7.68105ZM19.5285 9.03906H15.0366C14.7586 9.04276 14.4891 9.13713 14.2674 9.30838L13.8547 9.69802C13.8394 9.71249 13.8199 9.72161 13.7992 9.72404C13.7785 9.72648 13.7575 9.72212 13.7394 9.71158C13.7212 9.70105 13.7068 9.68489 13.6983 9.66545C13.6898 9.64602 13.6875 9.6243 13.6919 9.60347L13.8379 8.95025C13.9763 8.34288 14.2566 7.77868 14.6548 7.30573C14.8447 7.07386 15.0681 6.87291 15.3174 6.7098C15.819 6.38 16.4052 6.2095 17.0018 6.21989C17.5989 6.20634 18.186 6.3771 18.6863 6.7098C19.1608 7.03061 19.5297 7.48987 19.7447 8.02771C19.8194 8.21205 19.874 8.4042 19.9075 8.60072C19.9163 8.65591 19.9129 8.7124 19.8977 8.76611C19.8825 8.81982 19.8558 8.86942 19.8196 8.91134C19.7833 8.95326 19.7384 8.98645 19.6881 9.00854C19.6378 9.03063 19.5833 9.04105 19.5285 9.03906Z" fill="white"/>
<path d="M40.4383 14.3309H40.0537C39.9561 14.3334 39.8602 14.3578 39.7729 14.4025L39.3462 14.6317C39.3278 14.6412 39.3068 14.6445 39.2864 14.6412C39.266 14.6378 39.2472 14.628 39.2326 14.6131C39.2179 14.5982 39.2083 14.5789 39.205 14.5581C39.2017 14.5373 39.205 14.5159 39.2143 14.4971L39.4445 14.0473C39.4811 13.9746 39.5003 13.8941 39.5006 13.8124V8.50634C39.5151 7.75275 39.312 7.01146 38.9167 6.37477C38.5118 5.75271 37.9464 5.25696 37.2828 4.94226C36.5295 4.58593 35.7069 4.40862 34.8768 4.4237C34.1708 4.41806 33.4698 4.54329 32.8077 4.79329C32.1836 5.02135 31.6108 5.375 31.1232 5.83328C30.7473 6.18084 30.4379 6.59664 30.2108 7.05951C30.1909 7.09841 30.1787 7.14095 30.175 7.18468C30.1713 7.2284 30.1761 7.27245 30.1892 7.31427C30.2022 7.35609 30.2232 7.39486 30.2511 7.42834C30.2789 7.46181 30.3129 7.48933 30.3512 7.50932L31.797 8.2399C31.8705 8.27838 31.9558 8.28582 32.0346 8.26062C32.1134 8.23543 32.1793 8.17962 32.2181 8.10524C32.4394 7.68859 32.7551 7.332 33.139 7.06524C33.6221 6.72848 34.1963 6.55418 34.7813 6.56672C35.3901 6.53492 35.9893 6.73161 36.4658 7.11968C36.6442 7.26784 36.7905 7.45223 36.8953 7.66116L36.9094 7.67835C36.9094 7.67835 36.9094 7.67836 36.9094 7.70128V7.72993C36.926 7.76078 36.9392 7.79346 36.9487 7.82734C36.9708 7.87096 36.9878 7.91712 36.9992 7.96485V8.00497C37.0722 8.24563 37.1368 8.54646 37.2182 8.89312C37.2378 8.96475 37.2547 9.03924 37.2743 9.11659L37.3894 9.5578C37.3939 9.57806 37.3921 9.59924 37.3842 9.6184C37.3764 9.63756 37.3629 9.65377 37.3456 9.66478C37.3284 9.67578 37.3082 9.68105 37.2879 9.67985C37.2676 9.67865 37.2481 9.67104 37.2322 9.65808L36.8111 9.29422C36.6139 9.15657 36.3748 9.09558 36.1373 9.12232L33.4197 9.58073C32.6497 9.68425 31.9052 9.93295 31.2243 10.3142C30.7001 10.6044 30.2651 11.0374 29.9677 11.565C29.6703 12.0926 29.5222 12.694 29.5398 13.3024C29.5251 13.9297 29.6942 14.5472 30.0255 15.0758C30.3621 15.5929 30.8378 15.9998 31.3956 16.2476C32.0405 16.5347 32.7388 16.6755 33.4422 16.6602C34.0404 16.6642 34.6351 16.5674 35.2024 16.3737C35.3828 16.3118 35.5592 16.2381 35.7302 16.1531H35.7499L35.8734 16.09L35.9548 16.0442C36.0391 15.9898 36.1289 15.9296 36.2356 15.858C36.2496 15.858 36.2637 15.8379 36.2805 15.8293L36.6286 15.5801L37.2238 15.1589C37.2406 15.1452 37.2615 15.1377 37.2831 15.1376C37.3046 15.1376 37.3255 15.1449 37.3425 15.1585C37.3594 15.1721 37.3713 15.1912 37.3762 15.2126C37.3812 15.234 37.3789 15.2565 37.3698 15.2764L37.2294 15.6631C37.1997 15.7557 37.1836 15.8523 37.1817 15.9496V16.0671C37.1824 16.1543 37.2167 16.2376 37.2771 16.2993C37.3374 16.3609 37.4191 16.3959 37.5045 16.3966H40.4271C40.5122 16.3958 40.5936 16.3608 40.6536 16.2991C40.7135 16.2374 40.7471 16.154 40.7471 16.0671V14.669C40.749 14.626 40.7425 14.5831 40.7279 14.5427C40.7133 14.5023 40.691 14.4653 40.6623 14.4338C40.6335 14.4023 40.5989 14.377 40.5604 14.3594C40.522 14.3417 40.4805 14.332 40.4383 14.3309ZM37.089 11.5146C37.0969 12.0769 36.956 12.631 36.6814 13.1186C36.4067 13.6061 36.0083 14.0091 35.5281 14.2851C35.0147 14.5807 34.433 14.7301 33.8436 14.7177C33.3814 14.7374 32.9274 14.588 32.5635 14.2965C32.4033 14.1657 32.2748 13.9988 32.1881 13.809C32.1015 13.6191 32.0589 13.4115 32.0637 13.2021C32.059 12.9933 32.0962 12.7857 32.173 12.5921C32.2497 12.3985 32.3645 12.2229 32.5101 12.0762C32.905 11.7269 33.3945 11.5081 33.9138 11.4487L36.7213 10.9674C36.7674 10.9595 36.8147 10.9619 36.8599 10.9746C36.905 10.9872 36.947 11.0097 36.9827 11.0405C37.0185 11.0713 37.0473 11.1096 37.0671 11.1529C37.0869 11.1962 37.0973 11.2434 37.0975 11.2911L37.089 11.5146Z" fill="white"/>
<path d="M36.9335 7.71653C36.9282 7.69869 36.92 7.68188 36.9094 7.6668C36.9094 7.6668 36.9094 7.66679 36.9094 7.68889L36.9335 7.71653Z" fill="white"/>
<path d="M65.6659 14.331H65.2897C65.1926 14.3294 65.0965 14.3509 65.009 14.394H64.9893L64.5654 14.6232C64.5469 14.6327 64.526 14.636 64.5056 14.6326C64.4852 14.6293 64.4664 14.6194 64.4517 14.6045C64.4371 14.5896 64.4275 14.5704 64.4242 14.5495C64.4209 14.5287 64.4242 14.5074 64.4335 14.4885L64.6637 14.0387C64.6981 13.9653 64.7163 13.8851 64.717 13.8038V8.50638C64.7328 7.75261 64.5296 7.01093 64.1331 6.37481C63.7298 5.75134 63.1639 5.2552 62.4991 4.9423C61.746 4.58568 60.9233 4.40836 60.0932 4.42373C59.3882 4.41831 58.6881 4.54354 58.0269 4.79332C57.4025 5.02067 56.8295 5.37441 56.3424 5.83331C55.9665 6.18156 55.6563 6.59717 55.4272 7.05954C55.3877 7.13825 55.3804 7.2297 55.4066 7.31395C55.4329 7.39819 55.4908 7.46842 55.5676 7.50935L57.0134 8.23994C57.0874 8.2778 57.1729 8.28493 57.252 8.25982C57.331 8.23471 57.3974 8.17932 57.4373 8.10528C57.6575 7.68875 57.9723 7.33213 58.3554 7.06528C58.8393 6.73007 59.413 6.55592 59.9977 6.56676C60.6067 6.5336 61.2063 6.73045 61.6822 7.11971C61.867 7.27195 62.0181 7.46233 62.1257 7.67839V7.70131C62.142 7.73274 62.1561 7.76529 62.1679 7.79872C62.1915 7.85287 62.2121 7.90835 62.2296 7.96489C62.3251 8.25139 62.4037 8.65822 62.5104 9.11089L62.6255 9.55211C62.6299 9.57237 62.6281 9.59355 62.6203 9.61271C62.6124 9.63187 62.5989 9.64807 62.5817 9.65907C62.5644 9.67008 62.5442 9.67536 62.5239 9.67416C62.5036 9.67296 62.4842 9.66535 62.4683 9.65239L62.0471 9.28852C61.8491 9.1502 61.609 9.08919 61.3705 9.11663L58.6558 9.57503C57.8847 9.67813 57.1393 9.92686 56.4575 10.3085C55.9333 10.5987 55.4983 11.0317 55.2009 11.5593C54.9035 12.0869 54.7554 12.6883 54.7731 13.2967C54.7592 13.9243 54.9293 14.5418 55.2616 15.0701C55.5963 15.5878 56.0713 15.9949 56.6288 16.2419C57.2737 16.529 57.972 16.6698 58.6754 16.6545C59.2736 16.6583 59.8683 16.5615 60.4357 16.368C60.6203 16.302 60.8013 16.2255 60.9775 16.1388L61.0982 16.0757C61.1884 16.0278 61.2756 15.9742 61.3593 15.9153L61.4042 15.8838L61.5053 15.815L61.8534 15.5658L61.904 15.5343L62.4823 15.1303C62.4991 15.1166 62.52 15.1091 62.5415 15.109C62.5631 15.1089 62.584 15.1163 62.6009 15.1299C62.6179 15.1435 62.6298 15.1626 62.6347 15.184C62.6397 15.2054 62.6374 15.2279 62.6283 15.2478L62.4879 15.6345C62.4566 15.7268 62.4396 15.8234 62.4374 15.921V16.0385C62.4381 16.1257 62.4724 16.209 62.5327 16.2707C62.5931 16.3323 62.6748 16.3672 62.7602 16.368H65.68C65.7651 16.3672 65.8465 16.3322 65.9064 16.2705C65.9664 16.2088 66 16.1254 66 16.0385V14.6404C65.9982 14.5976 65.9881 14.5556 65.9703 14.5168C65.9525 14.4781 65.9273 14.4433 65.8963 14.4145C65.8652 14.3857 65.8288 14.3635 65.7893 14.3492C65.7498 14.3348 65.7078 14.3286 65.6659 14.331ZM62.3166 11.5146C62.3242 12.0766 62.1835 12.6302 61.9094 13.1176C61.6353 13.6051 61.2378 14.0083 60.7585 14.2851C60.2451 14.5806 59.6634 14.73 59.0741 14.7177C58.6102 14.7368 58.1547 14.5875 57.7883 14.2966C57.6281 14.1657 57.4996 13.9988 57.4129 13.809C57.3263 13.6192 57.2837 13.4115 57.2885 13.2021C57.2845 12.9934 57.322 12.786 57.3987 12.5925C57.4754 12.399 57.5898 12.2233 57.7349 12.0762C58.1302 11.7276 58.6195 11.5089 59.1386 11.4487L61.9461 10.9674C61.9921 10.9595 62.0393 10.9619 62.0843 10.9746C62.1293 10.9872 62.1711 11.0097 62.2066 11.0406C62.2422 11.0714 62.2707 11.1098 62.2902 11.1531C62.3097 11.1964 62.3197 11.2435 62.3195 11.2912L62.3166 11.5146Z" fill="white"/>
<path d="M52.7236 8.84448V15.8781C52.7236 16.0159 52.6702 16.1481 52.575 16.2458C52.4798 16.3435 52.3505 16.3988 52.2155 16.3995H50.8342C50.7673 16.3995 50.701 16.386 50.6391 16.3598C50.5773 16.3335 50.5211 16.2951 50.4739 16.2466C50.4267 16.1982 50.3893 16.1407 50.364 16.0774C50.3386 16.0142 50.3257 15.9464 50.3261 15.8781V9.49484C50.338 8.98139 50.2292 8.47249 50.0088 8.01076C49.8065 7.61011 49.497 7.2763 49.1161 7.04812C48.7165 6.81195 48.2611 6.69204 47.7994 6.70145C47.3351 6.69279 46.8772 6.8126 46.4743 7.04812C46.0891 7.27348 45.7761 7.60782 45.5731 8.01076C45.3504 8.47166 45.2415 8.98115 45.2559 9.49484V15.8781C45.2562 15.9464 45.2434 16.0142 45.218 16.0774C45.1926 16.1407 45.1552 16.1982 45.108 16.2466C45.0608 16.2951 45.0047 16.3335 44.9428 16.3598C44.881 16.386 44.8147 16.3995 44.7477 16.3995H43.3665C43.2995 16.3995 43.2332 16.386 43.1713 16.3598C43.1095 16.3335 43.0534 16.2951 43.0061 16.2466C42.9589 16.1982 42.9215 16.1407 42.8962 16.0774C42.8708 16.0142 42.8579 15.9464 42.8583 15.8781V5.20591C42.8583 5.06838 42.9118 4.93648 43.0071 4.83923C43.1024 4.74198 43.2317 4.68734 43.3665 4.68734H44.7954C44.9498 4.71313 45.0004 4.86211 44.947 5.08272C44.9468 5.08749 44.9468 5.09228 44.947 5.09705L44.7 6.0425C44.6955 6.06276 44.6974 6.08394 44.7052 6.1031C44.713 6.12226 44.7265 6.13846 44.7438 6.14946C44.761 6.16047 44.7812 6.16574 44.8015 6.16455C44.8219 6.16335 44.8413 6.15574 44.8572 6.14278L45.9409 5.20305L45.9914 5.16008C46.0728 5.10278 46.1514 5.04834 46.2328 4.99964C46.889 4.60913 47.638 4.41086 48.3974 4.42663C49.1822 4.41409 49.9566 4.61166 50.6433 4.99964C51.2837 5.36488 51.8131 5.90315 52.1734 6.55534C52.5474 7.25712 52.7369 8.04575 52.7236 8.84448Z" fill="white"/>
</svg>
