<svg width="38" height="37" viewBox="0 0 38 37" fill="none" xmlns="http://www.w3.org/2000/svg">
<path d="M16.7129 9.78711C16.8115 9.78711 16.9091 9.80629 17.0001 9.84355C17.0911 9.88082 17.1738 9.93543 17.2435 10.0043C17.3132 10.0731 17.3685 10.1549 17.4062 10.2448C17.4439 10.3348 17.4633 10.4312 17.4633 10.5286V13.1545C17.462 14.242 17.0242 15.2847 16.2458 16.0535C15.4674 16.8224 14.4122 17.2547 13.3116 17.2555H10.6558C10.4568 17.2555 10.266 17.1774 10.1253 17.0383C9.98454 16.8993 9.90548 16.7107 9.90548 16.514V13.3371C9.90544 13.2088 9.93908 13.0828 10.0031 12.9712C10.0671 12.8596 10.1593 12.7663 10.2707 12.7005C10.3821 12.6347 10.5089 12.5985 10.6387 12.5956C10.7685 12.5927 10.8968 12.6231 11.0111 12.6838L14.1496 14.3462C14.2009 14.3733 14.2597 14.3833 14.3172 14.375C14.3748 14.3666 14.4281 14.3403 14.4694 14.2998C14.5108 14.2593 14.5379 14.2069 14.5468 14.1501C14.5558 14.0933 14.5461 14.0351 14.5192 13.9841L12.8337 10.8797C12.7721 10.7666 12.7414 10.6396 12.7444 10.5113C12.7475 10.3829 12.7842 10.2575 12.851 10.1474C12.9178 10.0372 13.0124 9.94614 13.1255 9.88299C13.2387 9.81984 13.3665 9.7868 13.4964 9.78711H16.7129Z" fill="#F6F5F1"/>
<path d="M27.5383 13.3371V16.514C27.5383 16.6115 27.5188 16.7081 27.481 16.7981C27.4432 16.8882 27.3878 16.97 27.3179 17.0389C27.2481 17.1078 27.1652 17.1623 27.074 17.1995C26.9827 17.2367 26.885 17.2557 26.7863 17.2555H24.8857C23.5849 17.2551 22.3375 16.7443 21.4176 15.8353C20.4978 14.9264 19.9809 13.6937 19.9805 12.4083V10.5286C19.9805 10.4312 19.9999 10.3348 20.0376 10.2448C20.0753 10.1549 20.1306 10.0731 20.2002 10.0043C20.2699 9.93543 20.3526 9.88081 20.4437 9.84355C20.5347 9.80629 20.6323 9.78711 20.7308 9.78711H23.9474C24.0772 9.78707 24.2048 9.82031 24.3177 9.88357C24.4306 9.94684 24.525 10.038 24.5916 10.148C24.6582 10.2581 24.6948 10.3834 24.6977 10.5116C24.7007 10.6399 24.67 10.7667 24.6085 10.8797L22.9246 13.9841C22.8968 14.0349 22.8864 14.0932 22.895 14.1503C22.9035 14.2074 22.9304 14.2602 22.9718 14.3009C23.0132 14.3416 23.0668 14.3681 23.1246 14.3762C23.1824 14.3844 23.2413 14.3739 23.2926 14.3462L26.4327 12.6822C26.5471 12.6214 26.6756 12.591 26.8055 12.594C26.9354 12.597 27.0623 12.6333 27.1737 12.6993C27.2852 12.7654 27.3773 12.8588 27.4413 12.9706C27.5052 13.0824 27.5386 13.2087 27.5383 13.3371Z" fill="#F6F5F1"/>
<path d="M21.2613 0.218204L23.5332 2.4647C23.6738 2.60375 23.7529 2.79232 23.7529 2.98894C23.7529 3.18556 23.6738 3.37413 23.5332 3.51318L22.1901 4.84187C21.2698 5.75043 20.022 6.26079 18.7211 6.26079C17.4202 6.26079 16.1724 5.75043 15.252 4.84187L13.9074 3.51318C13.7668 3.37413 13.6877 3.18556 13.6877 2.98894C13.6877 2.79232 13.7668 2.60375 13.9074 2.4647L16.1793 0.216629C16.2713 0.126023 16.3856 0.0605909 16.5109 0.0267389C16.6363 -0.007113 16.7684 -0.00822452 16.8943 0.0235128C17.0202 0.0552502 17.1356 0.118749 17.2292 0.207792C17.3228 0.296836 17.3914 0.408374 17.4283 0.531486L18.459 3.9036C18.4756 3.95894 18.5099 4.0075 18.5567 4.04203C18.6035 4.07656 18.6603 4.09522 18.7187 4.09522C18.7771 4.09522 18.834 4.07656 18.8808 4.04203C18.9276 4.0075 18.9618 3.95894 18.9784 3.9036L20.0091 0.534634C20.0456 0.410788 20.114 0.298467 20.2078 0.208762C20.3016 0.119056 20.4174 0.0550688 20.5438 0.0231171C20.6703 -0.00883464 20.8029 -0.00764546 20.9288 0.0265672C21.0546 0.0607798 21.1692 0.126833 21.2613 0.218204Z" fill="#F6F5F1"/>
<path d="M37.2229 21.0096L34.9495 23.2545C34.8088 23.3935 34.6179 23.4716 34.419 23.4716C34.22 23.4716 34.0292 23.3935 33.8885 23.2545L32.5438 21.9274C32.0882 21.4772 31.7268 20.9428 31.4802 20.3546C31.2336 19.7665 31.1066 19.136 31.1066 18.4994C31.1066 17.8627 31.2336 17.2323 31.4802 16.6441C31.7268 16.0559 32.0882 15.5215 32.5438 15.0714L33.8885 13.7427C34.0292 13.6037 34.22 13.5256 34.419 13.5256C34.6179 13.5256 34.8088 13.6037 34.9495 13.7427L37.2245 15.9876C37.3162 16.0786 37.3824 16.1915 37.4166 16.3154C37.4509 16.4392 37.452 16.5697 37.4199 16.6941C37.3878 16.8186 37.3235 16.9326 37.2334 17.0251C37.1433 17.1176 37.0304 17.1854 36.9058 17.2218L33.4934 18.2404C33.4374 18.2568 33.3882 18.2906 33.3533 18.3369C33.3183 18.3831 33.2994 18.4393 33.2994 18.497C33.2994 18.5547 33.3183 18.6109 33.3533 18.6571C33.3882 18.7034 33.4374 18.7372 33.4934 18.7536L36.9027 19.7722C37.028 19.8082 37.1417 19.8758 37.2324 19.9685C37.3232 20.0611 37.388 20.1756 37.4203 20.3005C37.4526 20.4255 37.4514 20.5566 37.4168 20.6809C37.3822 20.8053 37.3153 20.9185 37.2229 21.0096Z" fill="#F6F5F1"/>
<path d="M16.1792 36.7818L13.9058 34.5353C13.7651 34.3963 13.6861 34.2077 13.6861 34.0111C13.6861 33.8145 13.7651 33.6259 13.9058 33.4869L15.2504 32.1582C15.7059 31.7079 16.2467 31.3507 16.842 31.1071C17.4372 30.8634 18.0752 30.7379 18.7194 30.7379C19.3637 30.7379 20.0017 30.8634 20.5969 31.1071C21.1922 31.3507 21.733 31.7079 22.1885 32.1582L23.5331 33.4869C23.6738 33.6259 23.7528 33.8145 23.7528 34.0111C23.7528 34.2077 23.6738 34.3963 23.5331 34.5353L21.2613 36.7834C21.1692 36.874 21.0549 36.9394 20.9296 36.9733C20.8043 37.0071 20.6722 37.0083 20.5463 36.9765C20.4204 36.9448 20.305 36.8813 20.2114 36.7922C20.1178 36.7032 20.0492 36.5917 20.0123 36.4685L18.9815 33.0964C18.9649 33.0411 18.9307 32.9925 18.8839 32.958C18.8371 32.9235 18.7802 32.9048 18.7218 32.9048C18.6634 32.9048 18.6066 32.9235 18.5598 32.958C18.513 32.9925 18.4787 33.0411 18.4622 33.0964L17.4314 36.4654C17.395 36.5892 17.3265 36.7016 17.2328 36.7913C17.139 36.881 17.0232 36.945 16.8967 36.9769C16.7703 37.0089 16.6376 37.0077 16.5118 36.9735C16.3859 36.9393 16.2713 36.8732 16.1792 36.7818Z" fill="#F6F5F1"/>
<path d="M0.220817 15.9873L2.49422 13.7439C2.63493 13.6049 2.82576 13.5268 3.02473 13.5268C3.2237 13.5268 3.41453 13.6049 3.55525 13.7439L4.89985 15.0726C5.81929 15.9821 6.33576 17.215 6.33576 18.5006C6.33576 19.7861 5.81929 21.0191 4.89985 21.9286L3.55525 23.2573C3.41453 23.3963 3.2237 23.4744 3.02473 23.4744C2.82576 23.4744 2.63493 23.3963 2.49422 23.2573L0.219223 21.0092C0.127532 20.9182 0.0613164 20.8053 0.0270591 20.6814C-0.00719817 20.5576 -0.00832301 20.4271 0.0237944 20.3027C0.0559118 20.1783 0.12017 20.0642 0.210281 19.9717C0.300391 19.8792 0.413264 19.8114 0.53785 19.775L3.95034 18.7564C4.00634 18.74 4.05548 18.7062 4.09043 18.6599C4.12538 18.6137 4.14426 18.5575 4.14426 18.4998C4.14426 18.4421 4.12538 18.3859 4.09043 18.3397C4.05548 18.2934 4.00634 18.2596 3.95034 18.2432L0.541036 17.2246C0.415707 17.1887 0.302041 17.121 0.211262 17.0283C0.120482 16.9357 0.0557282 16.8212 0.0233939 16.6963C-0.00894043 16.5713 -0.00773701 16.4402 0.0268853 16.3159C0.0615076 16.1915 0.128352 16.0783 0.220817 15.9873Z" fill="#F6F5F1"/>
<path d="M22.9246 23.0154L24.6085 26.1215C24.6701 26.2343 24.7009 26.3611 24.698 26.4892C24.695 26.6174 24.6584 26.7427 24.5918 26.8527C24.5251 26.9627 24.4307 27.0537 24.3177 27.1167C24.2047 27.1798 24.0771 27.2128 23.9474 27.2124H20.7308C20.5318 27.2124 20.341 27.1343 20.2002 26.9953C20.0595 26.8562 19.9805 26.6676 19.9805 26.4709V24.5928C19.9805 23.3073 20.4973 22.0744 21.4172 21.1653C22.3371 20.2563 23.5848 19.7456 24.8857 19.7456H26.7863C26.885 19.7454 26.9827 19.7644 27.074 19.8016C27.1652 19.8388 27.2481 19.8934 27.3179 19.9622C27.3878 20.0311 27.4432 20.1129 27.481 20.203C27.5188 20.293 27.5383 20.3896 27.5383 20.4871V23.6624C27.5381 23.7907 27.5044 23.9167 27.4404 24.0282C27.3764 24.1397 27.2842 24.233 27.1729 24.2989C27.0616 24.3648 26.935 24.4012 26.8052 24.4044C26.6755 24.4076 26.5472 24.3776 26.4327 24.3173L23.2926 22.6549C23.2415 22.6277 23.1829 22.6174 23.1254 22.6256C23.0679 22.6338 23.0146 22.66 22.9734 22.7004C22.9322 22.7408 22.9052 22.7932 22.8964 22.8499C22.8876 22.9066 22.8975 22.9647 22.9246 23.0154Z" fill="#F6F5F1"/>
<path d="M17.4633 23.8592V26.4788C17.4633 26.5762 17.4439 26.6726 17.4062 26.7626C17.3685 26.8525 17.3132 26.9343 17.2435 27.0031C17.1739 27.072 17.0911 27.1266 17.0001 27.1639C16.9091 27.2011 16.8115 27.2203 16.7129 27.2203H13.4964C13.3667 27.2205 13.2392 27.1874 13.1262 27.1243C13.0133 27.0613 12.9189 26.9703 12.8521 26.8604C12.7853 26.7505 12.7485 26.6254 12.7453 26.4973C12.7421 26.3691 12.7725 26.2424 12.8337 26.1293L14.5192 23.0233C14.5467 22.9724 14.5569 22.914 14.5481 22.857C14.5393 22.7999 14.5121 22.7472 14.4706 22.7067C14.429 22.6661 14.3753 22.6399 14.3175 22.632C14.2596 22.6241 14.2007 22.6349 14.1496 22.6628L11.0111 24.3252C10.8966 24.3855 10.7682 24.4155 10.6385 24.4123C10.5088 24.4091 10.3821 24.3727 10.2708 24.3068C10.1595 24.2409 10.0674 24.1476 10.0034 24.0361C9.93935 23.9245 9.90563 23.7985 9.90548 23.6703V20.4871C9.90548 20.2904 9.98454 20.1018 10.1253 19.9628C10.266 19.8237 10.4568 19.7456 10.6558 19.7456H13.3116C13.8576 19.746 14.3982 19.8528 14.9025 20.0598C15.4067 20.2668 15.8647 20.57 16.2503 20.952C16.6359 21.3341 16.9415 21.7875 17.1496 22.2863C17.3578 22.7852 17.4644 23.3196 17.4633 23.8592Z" fill="#F6F5F1"/>
<path d="M11.1338 8.68976L8.82371 10.9725C8.70959 11.0854 8.57023 11.1704 8.41685 11.2204C8.26346 11.2705 8.10032 11.2843 7.94056 11.2607C7.78079 11.2371 7.62885 11.1768 7.49697 11.0847C7.36508 10.9925 7.25692 10.871 7.18119 10.73L5.08303 6.83526C4.97878 6.64231 4.94014 6.42132 4.97285 6.20499C5.00556 5.98866 5.10787 5.78849 5.26465 5.63408L5.83181 5.07206C5.99307 4.91469 6.20219 4.81404 6.42701 4.78559C6.65182 4.75715 6.87986 4.80249 7.07604 4.91463L10.9219 7.08242C11.0591 7.16097 11.1761 7.26965 11.264 7.40006C11.3519 7.53046 11.4083 7.6791 11.4288 7.83447C11.4493 7.98985 11.4333 8.14779 11.3822 8.2961C11.331 8.4444 11.246 8.5791 11.1338 8.68976Z" fill="#F6F5F1"/>
<path d="M28.6487 11.0026L26.3402 8.71986C26.2262 8.60705 26.1404 8.46941 26.0898 8.31797C26.0392 8.16652 26.0252 8.00548 26.0489 7.84773C26.0726 7.68997 26.1333 7.53989 26.2263 7.40949C26.3192 7.27909 26.4417 7.172 26.584 7.09678L30.527 5.02345C30.7223 4.92068 30.9459 4.88264 31.1648 4.91495C31.3836 4.94727 31.5862 5.04822 31.7426 5.20292L32.3097 5.76336C32.4702 5.92178 32.5736 6.12797 32.6038 6.35016C32.634 6.57235 32.5895 6.79819 32.477 6.99288L30.2753 10.7932C30.1958 10.9288 30.0858 11.0445 29.9538 11.1313C29.8219 11.2182 29.6715 11.2739 29.5142 11.2941C29.357 11.3144 29.1972 11.2986 29.0471 11.248C28.897 11.1975 28.7607 11.1135 28.6487 11.0026Z" fill="#F6F5F1"/>
<path d="M26.31 28.3097L28.62 26.0286C28.734 25.9159 28.8732 25.8311 29.0263 25.7811C29.1795 25.7311 29.3423 25.7173 29.5019 25.7407C29.6614 25.7641 29.8132 25.8241 29.945 25.916C30.0768 26.0078 30.185 26.1289 30.261 26.2695L32.3607 30.1658C32.4647 30.3588 32.5032 30.5797 32.4705 30.796C32.4378 31.0123 32.3356 31.2124 32.1791 31.367L31.6103 31.9274C31.4503 32.0859 31.2419 32.188 31.0173 32.2178C30.7928 32.2477 30.5645 32.2038 30.3677 32.0927L26.5346 29.9171C26.3963 29.8399 26.2778 29.7321 26.1885 29.6022C26.0991 29.4724 26.0414 29.3239 26.0196 29.1683C25.9979 29.0128 26.0128 28.8544 26.0631 28.7055C26.1135 28.5565 26.198 28.4211 26.31 28.3097Z" fill="#F6F5F1"/>
<path d="M8.79347 25.9991L11.1035 28.2819C11.2178 28.3945 11.3038 28.5321 11.3545 28.6835C11.4051 28.835 11.4191 28.9961 11.3952 29.1538C11.3714 29.3116 11.3103 29.4616 11.217 29.5918C11.1238 29.722 11.0008 29.8287 10.8582 29.9034L6.91676 31.9783C6.7215 32.0813 6.49787 32.1195 6.27895 32.0871C6.06003 32.0548 5.85746 31.9537 5.7012 31.7988L5.13245 31.2368C4.97333 31.0777 4.87154 30.8713 4.84275 30.6494C4.81396 30.4275 4.85978 30.2025 4.97314 30.0088L7.16688 26.2211C7.24502 26.0844 7.35405 25.9673 7.48547 25.8791C7.61689 25.7908 7.76716 25.7337 7.92457 25.7122C8.08198 25.6907 8.24228 25.7055 8.39299 25.7552C8.54371 25.805 8.68076 25.8885 8.79347 25.9991Z" fill="#F6F5F1"/>
</svg>
