<svg width="123" height="31" viewBox="0 0 123 31" fill="none" xmlns="http://www.w3.org/2000/svg">
<path d="M49.7881 0.0215612H47.2139C46.6909 0.0215612 46.2669 0.451265 46.2669 0.981333V29.3927C46.2669 29.9228 46.6909 30.3525 47.2139 30.3525H49.7881C50.3111 30.3525 50.7351 29.9228 50.7351 29.3927V0.981333C50.7351 0.451265 50.3111 0.0215612 49.7881 0.0215612Z" fill="#F6F5F1"/>
<path d="M17.6111 30.3522H14.6968C14.5405 30.3514 14.3868 30.3118 14.2491 30.2369C14.1114 30.162 13.9939 30.0542 13.9068 29.9227L8.32942 21.3324C8.25035 21.212 8.14559 21.1112 8.02288 21.0373C7.90017 20.9635 7.76265 20.9185 7.6205 20.9058C7.47834 20.8931 7.33518 20.9129 7.20159 20.9638C7.06801 21.0147 6.94743 21.0954 6.84875 21.1999L4.72455 23.4906C4.5601 23.669 4.46849 23.904 4.46818 24.1481V29.3871C4.46818 29.6421 4.36857 29.8868 4.19113 30.0676C4.01368 30.2485 3.77282 30.3508 3.52118 30.3522H0.947014C0.822211 30.3522 0.698639 30.3272 0.583402 30.2786C0.468164 30.23 0.363533 30.1589 0.275528 30.0692C0.187522 29.9795 0.117877 29.8731 0.0705944 29.756C0.023312 29.6389 -0.000674905 29.5136 1.46156e-05 29.3871V0.959786C-0.000679304 0.833551 0.0233428 0.708434 0.0706882 0.591672C0.118034 0.474909 0.187762 0.368827 0.275837 0.279564C0.363913 0.1903 0.468586 0.119622 0.583795 0.0716376C0.699003 0.0236536 0.822459 -0.000688465 0.947014 1.48151e-05H3.52118C3.64623 -0.00068345 3.77019 0.0235879 3.88598 0.0714434C4.00177 0.119299 4.10713 0.189793 4.19604 0.278917C4.28495 0.36804 4.35567 0.47404 4.40416 0.590863C4.45265 0.707685 4.47795 0.83305 4.47864 0.959786V15.5526C4.49038 15.922 4.44267 16.291 4.33738 16.6449C4.32029 16.6844 4.30629 16.7252 4.29552 16.7669L3.77232 18.2198C3.75772 18.263 3.75803 18.3099 3.77319 18.3529C3.78835 18.3959 3.81747 18.4324 3.85576 18.4564C3.89406 18.4804 3.93927 18.4906 3.98399 18.4851C4.02872 18.4797 4.0703 18.4591 4.10193 18.4266L6.75981 15.6215L13.122 8.96673C13.2093 8.87458 13.3141 8.80125 13.4301 8.75114C13.5461 8.70102 13.6708 8.67515 13.7969 8.67508H16.8262C17.0101 8.67727 17.1894 8.73337 17.3425 8.8366C17.4956 8.93982 17.616 9.08576 17.689 9.25679C17.762 9.42782 17.7846 9.61661 17.7541 9.80038C17.7236 9.98415 17.6412 10.155 17.5169 10.2924L11.4582 16.8199C11.3132 16.9772 11.2246 17.1793 11.2065 17.3937C11.1885 17.6082 11.2421 17.8225 11.3588 18.0024L18.4011 28.8621C18.4957 29.0068 18.5498 29.1748 18.5577 29.3481C18.5656 29.5215 18.527 29.6938 18.4459 29.8467C18.3649 29.9996 18.2444 30.1273 18.0974 30.2163C17.9504 30.3054 17.7823 30.3523 17.6111 30.3522Z" fill="#F6F5F1"/>
<path d="M41.2285 14.2164C40.7792 12.982 40.1007 11.8462 39.2298 10.8705C38.3401 9.87675 37.2474 9.09143 36.0278 8.56914C34.6546 7.98277 33.1751 7.69552 31.6852 7.72603C29.7983 7.7002 27.9414 8.20692 26.3224 9.18954C24.7381 10.1466 23.4355 11.5161 22.5501 13.1559C21.5984 14.9461 21.1207 16.9557 21.1636 18.9888C21.136 21.0066 21.613 22.9987 22.5501 24.7792C23.4409 26.4679 24.7661 27.8807 26.3852 28.8675C28.0949 29.8892 30.0514 30.4088 32.0358 30.3682C33.418 30.3843 34.7916 30.1472 36.0906 29.6682C37.2448 29.2373 38.3095 28.5917 39.2298 27.7646C39.7517 27.2986 40.2093 26.7636 40.5902 26.1738C40.6797 26.0386 40.7397 25.8856 40.766 25.725C40.7924 25.5644 40.7844 25.3999 40.7428 25.2427C40.7012 25.0854 40.6268 24.939 40.5246 24.8134C40.4225 24.6877 40.295 24.5856 40.1507 24.5141L38.4241 23.6339C38.1889 23.516 37.9207 23.4844 37.6651 23.5443C37.4094 23.6042 37.1822 23.7521 37.0219 23.9626C36.5601 24.5546 36.005 25.0652 35.3791 25.4739C34.3789 26.0919 33.2222 26.3997 32.0515 26.3594C30.8773 26.3738 29.7226 26.0541 28.7187 25.4367C27.734 24.8172 26.9472 23.9222 26.4532 22.8597C26.2765 22.5076 26.1363 22.138 26.0346 21.7567C25.9933 21.5878 25.9905 21.4116 26.0264 21.2414C26.0623 21.0712 26.1361 20.9115 26.242 20.7745C26.3479 20.6376 26.4832 20.5268 26.6377 20.4508C26.7921 20.3747 26.9617 20.3354 27.1334 20.3356H40.7838C41.0663 20.336 41.3381 20.2259 41.5428 20.0284C41.7474 19.831 41.869 19.5612 41.8825 19.2751C41.9139 18.9039 41.9243 18.5434 41.9243 18.2146C41.9303 16.8504 41.6946 15.4962 41.2285 14.2164ZM36.3941 16.7299H28.0228C27.5047 16.7367 27.0024 16.9114 26.5892 17.2283L25.8201 17.9495C25.7916 17.9762 25.7554 17.9931 25.7167 17.9976C25.6781 18.0021 25.639 17.9941 25.6052 17.9746C25.5714 17.9551 25.5446 17.9252 25.5287 17.8892C25.5127 17.8532 25.5085 17.813 25.5167 17.7745L25.7887 16.5655C26.0467 15.4414 26.5691 14.3971 27.3113 13.5218C27.6651 13.0926 28.0815 12.7207 28.546 12.4188C29.4808 11.8084 30.5734 11.4929 31.6852 11.5121C32.7979 11.487 33.892 11.803 34.8245 12.4188C35.7088 13.0126 36.3962 13.8626 36.7969 14.858C36.9361 15.1992 37.0379 15.5548 37.1004 15.9186C37.1167 16.0207 37.1105 16.1252 37.0821 16.2247C37.0538 16.3241 37.0041 16.4159 36.9365 16.4935C36.869 16.5711 36.7853 16.6325 36.6915 16.6734C36.5977 16.7142 36.4961 16.7335 36.3941 16.7299Z" fill="#F6F5F1"/>
<path d="M75.3623 26.5237H74.6455C74.4636 26.5283 74.2849 26.5736 74.1223 26.6563L73.327 27.0805C73.2926 27.0981 73.2536 27.1042 73.2156 27.098C73.1776 27.0918 73.1425 27.0736 73.1152 27.046C73.088 27.0184 73.07 26.9828 73.0639 26.9442C73.0578 26.9057 73.0638 26.8662 73.0811 26.8313L73.5102 25.9988C73.5784 25.8642 73.6142 25.7152 73.6148 25.564V15.7435C73.6417 14.3488 73.2633 12.9768 72.5265 11.7984C71.772 10.6471 70.7182 9.72953 69.4815 9.14709C68.0777 8.48758 66.5446 8.15942 64.9976 8.18732C63.682 8.17688 62.3755 8.40866 61.1416 8.87136C59.9786 9.29346 58.9111 9.94801 58.0024 10.7962C57.3018 11.4395 56.7252 12.209 56.302 13.0657C56.2649 13.1377 56.2422 13.2165 56.2353 13.2974C56.2283 13.3783 56.2373 13.4598 56.2616 13.5372C56.2859 13.6146 56.3251 13.6864 56.377 13.7483C56.4288 13.8103 56.4922 13.8612 56.5636 13.8982L59.2581 15.2504C59.395 15.3216 59.554 15.3354 59.7009 15.2888C59.8477 15.2421 59.9706 15.1388 60.0429 15.0012C60.4553 14.23 61.0437 13.57 61.759 13.0763C62.6595 12.453 63.7296 12.1304 64.8197 12.1537C65.9544 12.0948 67.071 12.4588 67.959 13.1771C68.2915 13.4513 68.5641 13.7926 68.7595 14.1793L68.7856 14.2111C68.7856 14.2111 68.7856 14.2111 68.7856 14.2535V14.3065C68.8167 14.3636 68.8413 14.4241 68.8589 14.4868C68.9002 14.5676 68.9318 14.653 68.9531 14.7413V14.8156C69.0891 15.261 69.2094 15.8178 69.3612 16.4594C69.3978 16.592 69.4292 16.7298 69.4658 16.873L69.6803 17.6896C69.6886 17.7271 69.6852 17.7663 69.6706 17.8018C69.656 17.8372 69.6308 17.8672 69.5987 17.8876C69.5665 17.908 69.5289 17.9177 69.4911 17.9155C69.4532 17.9133 69.4169 17.8992 69.3873 17.8752L68.6025 17.2018C68.2349 16.947 67.7895 16.8341 67.3468 16.8836L62.2822 17.732C60.8472 17.9236 59.4598 18.3839 58.1908 19.0895C57.2138 19.6267 56.4031 20.4281 55.8489 21.4046C55.2947 22.381 55.0186 23.4941 55.0515 24.6201C55.0241 25.7811 55.3393 26.924 55.9567 27.9024C56.5839 28.8595 57.4705 29.6125 58.5099 30.0712C59.7118 30.6026 61.0131 30.8631 62.3241 30.8348C63.4389 30.8423 64.5473 30.6631 65.6046 30.3045C65.9408 30.19 66.2693 30.0537 66.5882 29.8962H66.6248L66.855 29.7796L67.0067 29.6947C67.1637 29.594 67.3311 29.4826 67.5299 29.3501C67.5561 29.3501 67.5823 29.3129 67.6137 29.297L68.2624 28.8357L69.3716 28.0562C69.403 28.0308 69.4419 28.0169 69.4821 28.0168C69.5222 28.0167 69.5612 28.0303 69.5928 28.0555C69.6243 28.0807 69.6465 28.116 69.6557 28.1556C69.665 28.1952 69.6607 28.2368 69.6437 28.2736L69.3821 28.9895C69.3267 29.1608 69.2967 29.3395 69.2931 29.5197V29.7371C69.2945 29.8984 69.3583 30.0527 69.4709 30.1668C69.5834 30.2809 69.7357 30.3456 69.8948 30.3469H75.3414C75.5 30.3455 75.6517 30.2807 75.7635 30.1665C75.8752 30.0523 75.9378 29.8979 75.9378 29.7371V27.1495C75.9413 27.0699 75.9291 26.9904 75.902 26.9157C75.8748 26.8409 75.8332 26.7724 75.7797 26.7142C75.7261 26.6559 75.6616 26.6091 75.5899 26.5764C75.5182 26.5437 75.4409 26.5258 75.3623 26.5237ZM69.1205 21.3113C69.1351 22.3521 68.8726 23.3776 68.3607 24.2799C67.8488 25.1823 67.1063 25.9281 66.2115 26.4389C65.2547 26.986 64.1705 27.2625 63.0722 27.2396C62.2108 27.276 61.3647 26.9996 60.6864 26.4601C60.3879 26.2179 60.1485 25.9091 59.987 25.5577C59.8255 25.2064 59.7461 24.822 59.7551 24.4345C59.7464 24.048 59.8157 23.6638 59.9587 23.3055C60.1018 22.9471 60.3156 22.6222 60.587 22.3506C61.323 21.7042 62.2352 21.2993 63.203 21.1893L68.4351 20.2985C68.5211 20.2839 68.6093 20.2884 68.6934 20.3118C68.7776 20.3351 68.8557 20.3767 68.9224 20.4337C68.9891 20.4907 69.0427 20.5617 69.0797 20.6419C69.1166 20.722 69.1359 20.8093 69.1362 20.8977L69.1205 21.3113Z" fill="#F6F5F1"/>
<path d="M68.8327 14.2864C68.8223 14.2517 68.8064 14.2191 68.7856 14.1898C68.7856 14.1898 68.7856 14.1897 68.7856 14.2327L68.8327 14.2864Z" fill="#F6F5F1"/>
<path d="M122.377 26.5236H121.676C121.495 26.5206 121.316 26.5606 121.153 26.6402H121.116L120.326 27.0644C120.292 27.082 120.253 27.0881 120.215 27.0819C120.177 27.0757 120.142 27.0575 120.115 27.0299C120.087 27.0023 120.069 26.9667 120.063 26.9281C120.057 26.8896 120.063 26.8501 120.081 26.8152L120.51 25.9827C120.574 25.8469 120.608 25.6985 120.609 25.5479V15.7434C120.638 14.3483 120.26 12.9756 119.521 11.7982C118.769 10.6443 117.715 9.72604 116.476 9.14691C115.072 8.48687 113.539 8.15869 111.992 8.18714C110.678 8.17711 109.373 8.40888 108.141 8.87118C106.977 9.29196 105.91 9.94666 105.002 10.796C104.301 11.4406 103.723 12.2098 103.296 13.0655C103.223 13.2112 103.209 13.3805 103.258 13.5364C103.307 13.6923 103.415 13.8223 103.558 13.898L106.252 15.2502C106.39 15.3203 106.55 15.3335 106.697 15.287C106.844 15.2405 106.968 15.138 107.042 15.001C107.453 14.2301 108.039 13.57 108.753 13.0761C109.655 12.4557 110.724 12.1334 111.814 12.1535C112.949 12.0921 114.066 12.4564 114.953 13.1769C115.298 13.4587 115.579 13.811 115.78 14.2109V14.2533C115.81 14.3115 115.836 14.3717 115.858 14.4336C115.902 14.5338 115.941 14.6365 115.973 14.7412C116.151 15.2714 116.298 16.0244 116.497 16.8622L116.711 17.6788C116.719 17.7163 116.716 17.7555 116.701 17.791C116.687 17.8264 116.662 17.8564 116.629 17.8768C116.597 17.8972 116.56 17.9069 116.522 17.9047C116.484 17.9025 116.448 17.8884 116.418 17.8644L115.633 17.191C115.264 16.9349 114.817 16.822 114.372 16.8728L109.313 17.7212C107.876 17.9121 106.487 18.3724 105.216 19.0787C104.239 19.6159 103.429 20.4173 102.874 21.3938C102.32 22.3702 102.044 23.4834 102.077 24.6093C102.051 25.7709 102.368 26.9139 102.987 27.8916C103.611 28.8497 104.497 29.6032 105.535 30.0604C106.737 30.5918 108.039 30.8523 109.35 30.824C110.464 30.831 111.573 30.6519 112.63 30.2937C112.974 30.1716 113.311 30.03 113.64 29.8695L113.865 29.7529C114.033 29.6641 114.195 29.5649 114.351 29.4559L114.435 29.3976L114.624 29.2703L115.272 28.809L115.366 28.7507L116.444 28.003C116.476 27.9776 116.515 27.9637 116.555 27.9636C116.595 27.9635 116.634 27.9771 116.665 28.0023C116.697 28.0275 116.719 28.0628 116.728 28.1024C116.738 28.142 116.733 28.1836 116.716 28.2204L116.455 28.9363C116.396 29.107 116.365 29.2859 116.361 29.4665V29.6839C116.362 29.8452 116.426 29.9995 116.538 30.1136C116.651 30.2277 116.803 30.2923 116.962 30.2937H122.404C122.562 30.2923 122.714 30.2275 122.826 30.1133C122.937 29.999 123 29.8447 123 29.6839V27.0963C122.997 27.0171 122.978 26.9393 122.945 26.8676C122.911 26.7958 122.865 26.7315 122.807 26.6782C122.749 26.6249 122.681 26.5838 122.607 26.5573C122.534 26.5308 122.455 26.5193 122.377 26.5236ZM116.136 21.3111C116.15 22.3511 115.887 23.3758 115.377 24.278C114.866 25.1801 114.125 25.9264 113.232 26.4387C112.275 26.9855 111.191 27.2621 110.093 27.2394C109.228 27.2746 108.379 26.9985 107.696 26.4599C107.398 26.2177 107.158 25.9089 106.997 25.5575C106.835 25.2062 106.756 24.8218 106.765 24.4343C106.757 24.048 106.827 23.6642 106.97 23.306C107.113 22.9478 107.326 22.6227 107.597 22.3504C108.334 21.7052 109.245 21.3004 110.213 21.1891L115.445 20.2983C115.531 20.2836 115.619 20.2881 115.703 20.3115C115.786 20.3349 115.864 20.3766 115.931 20.4337C115.997 20.4908 116.05 20.5619 116.086 20.642C116.123 20.7221 116.141 20.8093 116.141 20.8975L116.136 21.3111Z" fill="#F6F5F1"/>
<path d="M98.2577 16.3691V29.387C98.2577 29.642 98.1581 29.8867 97.9806 30.0675C97.8032 30.2483 97.5623 30.3506 97.3107 30.352H94.7365C94.6117 30.352 94.4882 30.327 94.3729 30.2785C94.2577 30.2299 94.1531 30.1588 94.065 30.0691C93.977 29.9794 93.9074 29.8729 93.8601 29.7559C93.8128 29.6388 93.7888 29.5135 93.7895 29.387V17.5727C93.8118 16.6224 93.6091 15.6806 93.1983 14.826C92.8213 14.0845 92.2443 13.4666 91.5345 13.0443C90.7898 12.6072 89.9411 12.3853 89.0807 12.4027C88.2155 12.3867 87.3621 12.6084 86.6112 13.0443C85.8934 13.4614 85.3101 14.0802 84.9317 14.826C84.5166 15.679 84.3136 16.622 84.3405 17.5727V29.387C84.3412 29.5135 84.3172 29.6388 84.2699 29.7559C84.2226 29.8729 84.153 29.9794 84.065 30.0691C83.977 30.1588 83.8723 30.2299 83.7571 30.2785C83.6418 30.327 83.5183 30.352 83.3935 30.352H80.8193C80.6945 30.352 80.5709 30.327 80.4557 30.2785C80.3405 30.2299 80.2358 30.1588 80.1478 30.0691C80.0598 29.9794 79.9902 29.8729 79.9429 29.7559C79.8956 29.6388 79.8716 29.5135 79.8723 29.387V9.63474C79.8723 9.38019 79.9721 9.13607 80.1497 8.95608C80.3273 8.77609 80.5681 8.67496 80.8193 8.67496H83.4824C83.7702 8.72269 83.8644 8.99843 83.7649 9.40673C83.7644 9.41556 83.7644 9.42442 83.7649 9.43325L83.3045 11.1831C83.2962 11.2206 83.2996 11.2598 83.3143 11.2953C83.3289 11.3307 83.354 11.3607 83.3862 11.3811C83.4183 11.4014 83.4559 11.4112 83.4938 11.409C83.5316 11.4068 83.5679 11.3927 83.5975 11.3687L85.6171 9.62944L85.7113 9.54991C85.863 9.44386 86.0095 9.34311 86.1612 9.25296C87.384 8.5302 88.7798 8.16324 90.1951 8.19244C91.6578 8.16923 93.1009 8.53488 94.3808 9.25296C95.5742 9.92897 96.5608 10.9252 97.2322 12.1323C97.9292 13.4311 98.2825 14.8908 98.2577 16.3691Z" fill="#F6F5F1"/>
</svg>
