<svg width="24" height="25" viewBox="0 0 24 25" fill="none" xmlns="http://www.w3.org/2000/svg">
<path d="M11.9968 8.53441C9.79333 8.53441 7.99515 10.2996 7.99515 12.4626C7.99515 14.6256 9.79333 16.3907 11.9968 16.3907C14.2002 16.3907 15.9984 14.6256 15.9984 12.4626C15.9984 10.2996 14.2002 8.53441 11.9968 8.53441ZM23.9987 12.4626C23.9987 10.8359 24.0137 9.22398 23.9206 7.60026C23.8275 5.71427 23.3893 4.04045 21.9843 2.66132C20.5764 1.27925 18.8743 0.851953 16.953 0.7606C15.2959 0.669248 13.6539 0.683982 11.9998 0.683982C10.3427 0.683982 8.70061 0.669248 7.04652 0.7606C5.12526 0.851953 3.42014 1.28219 2.01522 2.66132C0.607291 4.0434 0.172005 5.71427 0.0789442 7.60026C-0.014117 9.22692 0.000892919 10.8389 0.000892919 12.4626C0.000892919 14.0863 -0.014117 15.7012 0.0789442 17.3249C0.172005 19.2109 0.610293 20.8847 2.01522 22.2638C3.42314 23.6459 5.12526 24.0732 7.04652 24.1646C8.70361 24.2559 10.3457 24.2412 11.9998 24.2412C13.6569 24.2412 15.2989 24.2559 16.953 24.1646C18.8743 24.0732 20.5794 23.643 21.9843 22.2638C23.3923 20.8818 23.8275 19.2109 23.9206 17.3249C24.0167 15.7012 23.9987 14.0892 23.9987 12.4626ZM11.9968 18.5066C8.58954 18.5066 5.83973 15.8073 5.83973 12.4626C5.83973 9.11789 8.58954 6.41857 11.9968 6.41857C15.404 6.41857 18.1538 9.11789 18.1538 12.4626C18.1538 15.8073 15.404 18.5066 11.9968 18.5066ZM18.406 7.58258C17.6105 7.58258 16.968 6.95195 16.968 6.17103C16.968 5.39012 17.6105 4.75949 18.406 4.75949C19.2015 4.75949 19.8439 5.39012 19.8439 6.17103C19.8442 6.35646 19.8071 6.54012 19.735 6.71148C19.6628 6.88284 19.5569 7.03854 19.4233 7.16966C19.2897 7.30079 19.1311 7.40475 18.9565 7.47561C18.782 7.54646 18.5949 7.58281 18.406 7.58258Z" fill="white"/>
</svg>
