<svg width="38" height="36" viewBox="0 0 38 36" fill="none" xmlns="http://www.w3.org/2000/svg">
<path d="M16.7007 9.52271C16.7991 9.52271 16.8966 9.54137 16.9876 9.57762C17.0786 9.61388 17.1612 9.66702 17.2309 9.73401C17.3005 9.80101 17.3557 9.88054 17.3934 9.96807C17.4311 10.0556 17.4505 10.1494 17.4505 10.2442V12.7991C17.4492 13.8572 17.0117 14.8717 16.2339 15.6198C15.4561 16.3678 14.4016 16.7884 13.3018 16.7893H10.648C10.4491 16.7893 10.2584 16.7132 10.1178 16.578C9.97719 16.4427 9.89819 16.2591 9.89819 16.0678V12.9768C9.89816 12.852 9.93177 12.7293 9.99574 12.6207C10.0597 12.5122 10.1519 12.4214 10.2632 12.3574C10.3745 12.2933 10.5012 12.2582 10.6309 12.2553C10.7605 12.2524 10.8888 12.282 11.003 12.3411L14.1392 13.9586C14.1905 13.9849 14.2492 13.9947 14.3067 13.9866C14.3642 13.9784 14.4175 13.9528 14.4588 13.9134C14.5001 13.8741 14.5272 13.823 14.5361 13.7677C14.5451 13.7125 14.5354 13.6559 14.5085 13.6063L12.8242 10.5857C12.7627 10.4757 12.732 10.3522 12.7351 10.2273C12.7381 10.1024 12.7748 9.98039 12.8415 9.87323C12.9083 9.76608 13.0028 9.67744 13.1159 9.616C13.2289 9.55455 13.3566 9.52241 13.4865 9.52271H16.7007Z" fill="#F6F5F1"/>
<path d="M27.5181 12.9768V16.0678C27.5181 16.1627 27.4986 16.2566 27.4608 16.3442C27.4231 16.4319 27.3677 16.5115 27.2979 16.5785C27.2281 16.6455 27.1452 16.6986 27.0541 16.7348C26.9629 16.7709 26.8653 16.7895 26.7667 16.7893H24.8674C23.5676 16.7888 22.3211 16.2918 21.4019 15.4075C20.4828 14.5231 19.9662 13.3237 19.9658 12.073V10.2442C19.9658 10.1494 19.9852 10.0556 20.0229 9.96807C20.0605 9.88054 20.1158 9.801 20.1854 9.73401C20.255 9.66702 20.3377 9.61388 20.4287 9.57762C20.5196 9.54137 20.6171 9.52271 20.7156 9.52271H23.9298C24.0595 9.52267 24.187 9.55501 24.2998 9.61656C24.4127 9.67812 24.507 9.76678 24.5735 9.87389C24.6401 9.981 24.6767 10.1029 24.6796 10.2277C24.6826 10.3524 24.6519 10.4758 24.5904 10.5857L22.9077 13.6063C22.88 13.6557 22.8696 13.7124 22.8781 13.768C22.8866 13.8235 22.9136 13.8749 22.9549 13.9145C22.9963 13.9541 23.0498 13.9798 23.1076 13.9878C23.1654 13.9957 23.2243 13.9855 23.2755 13.9586L26.4132 12.3396C26.5276 12.2804 26.656 12.2509 26.7858 12.2538C26.9156 12.2567 27.0424 12.292 27.1538 12.3562C27.2651 12.4205 27.3572 12.5114 27.4211 12.6202C27.485 12.729 27.5184 12.8518 27.5181 12.9768Z" fill="#F6F5F1"/>
<path d="M21.2457 0.212307L23.5158 2.39809C23.6564 2.53338 23.7354 2.71686 23.7354 2.90816C23.7354 3.09946 23.6564 3.28294 23.5158 3.41823L22.1738 4.71101C21.2541 5.59502 20.0073 6.09158 18.7073 6.09158C17.4073 6.09158 16.1605 5.59502 15.2408 4.71101L13.8972 3.41823C13.7566 3.28294 13.6777 3.09946 13.6777 2.90816C13.6777 2.71686 13.7566 2.53338 13.8972 2.39809L16.1673 0.210775C16.2593 0.122617 16.3735 0.0589533 16.4988 0.0260163C16.624 -0.00692076 16.756 -0.00800224 16.8818 0.0228774C17.0076 0.053757 17.1229 0.115539 17.2165 0.202177C17.31 0.288814 17.3786 0.397337 17.4154 0.517122L18.4454 3.7981C18.462 3.85194 18.4962 3.89919 18.543 3.93279C18.5898 3.96639 18.6466 3.98454 18.7049 3.98454C18.7633 3.98454 18.8201 3.96639 18.8669 3.93279C18.9136 3.89919 18.9478 3.85194 18.9644 3.7981L19.9944 0.520185C20.0308 0.399686 20.0992 0.290401 20.1929 0.20312C20.2866 0.115839 20.4023 0.0535805 20.5287 0.0224923C20.655 -0.00859587 20.7876 -0.00743883 20.9134 0.0258492C21.0391 0.0591372 21.1537 0.123405 21.2457 0.212307Z" fill="#F6F5F1"/>
<path d="M37.1956 20.4419L34.9238 22.6261C34.7832 22.7614 34.5925 22.8374 34.3937 22.8374C34.1949 22.8374 34.0042 22.7614 33.8636 22.6261L32.52 21.3349C32.0646 20.8969 31.7035 20.3769 31.457 19.8047C31.2106 19.2324 31.0838 18.619 31.0838 17.9995C31.0838 17.3801 31.2106 16.7667 31.457 16.1944C31.7035 15.6221 32.0646 15.1021 32.52 14.6642L33.8636 13.3714C34.0042 13.2361 34.1949 13.1602 34.3937 13.1602C34.5925 13.1602 34.7832 13.2361 34.9238 13.3714L37.1972 15.5556C37.2888 15.6442 37.3549 15.754 37.3892 15.8745C37.4234 15.9951 37.4245 16.122 37.3924 16.2431C37.3603 16.3641 37.2961 16.4751 37.2061 16.5651C37.116 16.6551 37.0033 16.7211 36.8788 16.7565L33.4688 17.7476C33.4128 17.7635 33.3637 17.7964 33.3288 17.8414C33.2939 17.8864 33.275 17.9411 33.275 17.9972C33.275 18.0534 33.2939 18.108 33.3288 18.153C33.3637 18.198 33.4128 18.231 33.4688 18.2469L36.8756 19.2379C37.0008 19.2729 37.1144 19.3388 37.2051 19.4289C37.2958 19.5191 37.3605 19.6304 37.3928 19.752C37.4251 19.8736 37.4239 20.0011 37.3893 20.1221C37.3547 20.2431 37.288 20.3533 37.1956 20.4419Z" fill="#F6F5F1"/>
<path d="M16.1673 35.7878L13.8956 33.602C13.755 33.4667 13.6761 33.2832 13.6761 33.0919C13.6761 32.9006 13.755 32.7171 13.8956 32.5818L15.2392 31.2891C15.6944 30.851 16.2348 30.5035 16.8296 30.2664C17.4244 30.0293 18.0619 29.9072 18.7057 29.9072C19.3495 29.9072 19.9871 30.0293 20.5818 30.2664C21.1766 30.5035 21.717 30.851 22.1722 31.2891L23.5158 32.5818C23.6564 32.7171 23.7354 32.9006 23.7354 33.0919C23.7354 33.2832 23.6564 33.4667 23.5158 33.602L21.2457 35.7893C21.1537 35.8775 21.0395 35.9411 20.9143 35.9741C20.789 36.007 20.657 36.0081 20.5312 35.9772C20.4054 35.9463 20.2901 35.8845 20.1966 35.7979C20.103 35.7113 20.0345 35.6027 19.9976 35.483L18.9676 32.202C18.951 32.1481 18.9168 32.1009 18.87 32.0673C18.8233 32.0337 18.7665 32.0155 18.7081 32.0155C18.6498 32.0155 18.593 32.0337 18.5462 32.0673C18.4994 32.1009 18.4652 32.1481 18.4486 32.202L17.4186 35.4799C17.3822 35.6004 17.3138 35.7097 17.2201 35.7969C17.1264 35.8842 17.0107 35.9465 16.8843 35.9776C16.758 36.0087 16.6254 36.0075 16.4997 35.9742C16.3739 35.9409 16.2594 35.8767 16.1673 35.7878Z" fill="#F6F5F1"/>
<path d="M0.220655 15.5553L2.49239 13.3726C2.633 13.2374 2.82368 13.1614 3.02251 13.1614C3.22134 13.1614 3.41202 13.2374 3.55263 13.3726L4.89625 14.6654C5.81502 15.5503 6.3311 16.7499 6.3311 18.0007C6.3311 19.2516 5.81502 20.4512 4.89625 21.3361L3.55263 22.6289C3.41202 22.7641 3.22134 22.8401 3.02251 22.8401C2.82368 22.8401 2.633 22.7641 2.49239 22.6289L0.219062 20.4416C0.127438 20.3531 0.0612714 20.2432 0.0270392 20.1227C-0.00719289 20.0022 -0.0083169 19.8752 0.0237769 19.7541C0.0558707 19.6331 0.120082 19.5221 0.210126 19.4321C0.30017 19.3421 0.41296 19.2762 0.537455 19.2407L3.94744 18.2497C4.0034 18.2337 4.05251 18.2008 4.08743 18.1558C4.12235 18.1108 4.14121 18.0561 4.14121 18C4.14121 17.9438 4.12235 17.8892 4.08743 17.8442C4.05251 17.7992 4.0034 17.7663 3.94744 17.7503L0.540639 16.7593C0.415402 16.7243 0.301819 16.6584 0.211106 16.5683C0.120393 16.4781 0.0556873 16.3668 0.0233767 16.2452C-0.00893387 16.1236 -0.00773133 15.9961 0.0268656 15.8751C0.0614625 15.7541 0.128257 15.6439 0.220655 15.5553Z" fill="#F6F5F1"/>
<path d="M22.9077 22.3933L24.5904 25.4154C24.652 25.5253 24.6828 25.6486 24.6798 25.7733C24.6769 25.898 24.6403 26.0199 24.5737 26.1269C24.5071 26.2339 24.4127 26.3225 24.2998 26.3838C24.187 26.4452 24.0594 26.4773 23.9298 26.4769H20.7156C20.5167 26.4769 20.326 26.4009 20.1854 26.2656C20.0448 26.1303 19.9658 25.9468 19.9658 25.7555V23.9281C19.9658 22.6773 20.4822 21.4777 21.4015 20.5933C22.3207 19.7088 23.5674 19.2119 24.8674 19.2119H26.7667C26.8653 19.2117 26.9629 19.2302 27.0541 19.2664C27.1452 19.3026 27.2281 19.3557 27.2979 19.4227C27.3677 19.4897 27.4231 19.5693 27.4608 19.6569C27.4986 19.7446 27.5181 19.8385 27.5181 19.9334V23.0229C27.5179 23.1476 27.4842 23.2702 27.4202 23.3788C27.3563 23.4873 27.2642 23.578 27.153 23.6422C27.0418 23.7063 26.9152 23.7417 26.7856 23.7448C26.6559 23.7479 26.5277 23.7188 26.4132 23.6601L23.2755 22.0426C23.2244 22.0161 23.1658 22.0061 23.1084 22.0141C23.051 22.022 22.9978 22.0476 22.9565 22.0869C22.9153 22.1262 22.8884 22.1772 22.8796 22.2323C22.8708 22.2875 22.8807 22.344 22.9077 22.3933Z" fill="#F6F5F1"/>
<path d="M17.4505 23.2143V25.7631C17.4505 25.8579 17.4311 25.9517 17.3934 26.0392C17.3557 26.1268 17.3005 26.2063 17.2309 26.2733C17.1612 26.3403 17.0786 26.3934 16.9876 26.4297C16.8966 26.4659 16.7991 26.4846 16.7007 26.4846H13.4865C13.3569 26.4848 13.2294 26.4526 13.1166 26.3912C13.0037 26.3298 12.9094 26.2414 12.8426 26.1345C12.7759 26.0275 12.7392 25.9058 12.7359 25.7811C12.7327 25.6564 12.7631 25.5331 12.8242 25.4231L14.5085 22.401C14.536 22.3515 14.5462 22.2947 14.5374 22.2392C14.5286 22.1837 14.5015 22.1324 14.4599 22.0929C14.4184 22.0535 14.3647 22.028 14.3069 22.0203C14.2491 22.0126 14.1903 22.0231 14.1392 22.0502L11.003 23.6677C10.8886 23.7264 10.7603 23.7556 10.6307 23.7525C10.5011 23.7493 10.3745 23.714 10.2633 23.6498C10.1521 23.5857 10.06 23.4949 9.99601 23.3864C9.93204 23.2779 9.89834 23.1553 9.89819 23.0305V19.9334C9.89819 19.742 9.97719 19.5585 10.1178 19.4232C10.2584 19.2879 10.4491 19.2119 10.648 19.2119H13.3018C13.8474 19.2123 14.3876 19.3162 14.8915 19.5176C15.3954 19.719 15.8531 20.014 16.2384 20.3857C16.6237 20.7575 16.929 21.1986 17.137 21.684C17.345 22.1693 17.4515 22.6894 17.4505 23.2143Z" fill="#F6F5F1"/>
<path d="M11.1256 8.4549L8.81726 10.6759C8.70322 10.7858 8.56396 10.8685 8.41069 10.9172C8.25741 10.9659 8.0944 10.9793 7.93475 10.9564C7.7751 10.9334 7.62328 10.8748 7.49148 10.7851C7.35969 10.6954 7.25162 10.5772 7.17594 10.44L5.07932 6.65051C4.97514 6.46278 4.93654 6.24776 4.96923 6.03728C5.00191 5.8268 5.10415 5.63203 5.26081 5.4818L5.82755 4.93497C5.98869 4.78185 6.19766 4.68392 6.42231 4.65624C6.64696 4.62857 6.87483 4.67268 7.07087 4.7818L10.9139 6.89099C11.051 6.96742 11.168 7.07317 11.2558 7.20005C11.3436 7.32693 11.4 7.47155 11.4204 7.62273C11.4409 7.7739 11.4249 7.92758 11.3738 8.07187C11.3227 8.21617 11.2378 8.34722 11.1256 8.4549Z" fill="#F6F5F1"/>
<path d="M28.6276 10.7055L26.3209 8.48446C26.2069 8.37469 26.1212 8.24077 26.0706 8.09342C26.0201 7.94607 26.0061 7.78938 26.0298 7.63589C26.0534 7.4824 26.1141 7.33638 26.207 7.2095C26.2998 7.08263 26.4223 6.97843 26.5645 6.90524L30.5046 4.88794C30.6997 4.78795 30.9232 4.75094 31.1419 4.78238C31.3606 4.81382 31.563 4.91204 31.7192 5.06256L32.286 5.60786C32.4464 5.762 32.5497 5.96262 32.5799 6.1788C32.6101 6.39498 32.5655 6.61472 32.4531 6.80415L30.253 10.5018C30.1736 10.6337 30.0637 10.7462 29.9318 10.8307C29.8 10.9152 29.6497 10.9694 29.4925 10.9891C29.3354 11.0088 29.1757 10.9935 29.0257 10.9443C28.8758 10.8951 28.7395 10.8134 28.6276 10.7055Z" fill="#F6F5F1"/>
<path d="M26.2907 27.5446L28.599 25.3251C28.713 25.2154 28.852 25.1329 29.005 25.0843C29.1581 25.0356 29.3208 25.0222 29.4802 25.045C29.6396 25.0677 29.7913 25.1261 29.923 25.2155C30.0547 25.3048 30.1629 25.4226 30.2387 25.5594L32.337 29.3505C32.4409 29.5383 32.4793 29.7532 32.4467 29.9636C32.414 30.1741 32.3119 30.3688 32.1555 30.5192L31.5871 31.0645C31.4272 31.2187 31.219 31.318 30.9946 31.3471C30.7701 31.3761 30.542 31.3333 30.3454 31.2253L26.5151 29.1084C26.3769 29.0333 26.2585 28.9285 26.1692 28.8021C26.08 28.6758 26.0222 28.5313 26.0005 28.38C25.9788 28.2286 25.9937 28.0745 26.044 27.9296C26.0943 27.7847 26.1787 27.6529 26.2907 27.5446Z" fill="#F6F5F1"/>
<path d="M8.78702 25.2963L11.0954 27.5173C11.2096 27.6269 11.2955 27.7608 11.3461 27.9081C11.3968 28.0555 11.4107 28.2122 11.3869 28.3657C11.363 28.5192 11.302 28.6652 11.2088 28.7919C11.1156 28.9186 10.9928 29.0224 10.8502 29.095L6.91169 31.1138C6.71658 31.2141 6.49311 31.2512 6.27435 31.2198C6.05559 31.1883 5.85316 31.09 5.69702 30.9392L5.12869 30.3924C4.96968 30.2376 4.86797 30.0368 4.8392 29.8209C4.81044 29.605 4.85622 29.386 4.9695 29.1976L7.16163 25.5123C7.23971 25.3793 7.34866 25.2654 7.47998 25.1795C7.6113 25.0936 7.76146 25.038 7.91876 25.0171C8.07605 24.9962 8.23624 25.0106 8.38684 25.059C8.53744 25.1074 8.67439 25.1886 8.78702 25.2963Z" fill="#F6F5F1"/>
</svg>
