<svg width="97" height="96" viewBox="0 0 97 96" fill="none" xmlns="http://www.w3.org/2000/svg">
<g clip-path="url(#clip0_30_106)">
<path d="M56.8288 92.6113C56.7875 92.5116 56.7491 92.4109 56.7097 92.3112C55.8888 90.2608 55.0651 88.2113 54.2481 86.159C52.3624 81.4204 50.4816 76.6808 48.5998 71.9413C48.524 71.7494 48.4626 71.5529 48.3886 71.3412C49.0492 71.1898 49.6319 71.044 50.2205 70.9227C51.7125 70.6142 52.6821 69.7263 53.2102 68.3502C53.4349 67.7643 53.647 67.1726 53.8487 66.5782C54.1242 65.7627 54.3786 64.9397 54.6513 64.1233C54.8203 63.6182 54.9364 63.543 55.4894 63.542C55.8188 63.5411 56.1481 63.5515 56.4774 63.5533C58.4168 63.5646 60.3561 63.5731 62.2955 63.5863C62.909 63.59 63.1001 63.7179 63.318 64.2813C63.5062 64.7667 63.6608 65.2642 63.8585 65.7458C64.1725 66.5086 64.449 67.2949 64.8494 68.0126C65.7394 69.6087 67.1229 70.6349 68.9499 70.9744C70.0588 71.1804 71.1965 71.3121 72.3237 71.3328C74.3341 71.3685 76.3464 71.297 78.3588 71.2651C79.5742 71.2453 80.7571 71.0318 81.914 70.6716C83.6921 70.1185 84.5907 68.9277 84.5638 67.1096C84.5081 63.3182 84.7712 59.555 85.5114 55.8284C85.8926 53.9087 86.3678 52.0163 87.1638 50.2142C87.5142 49.4203 87.9414 48.6726 88.5482 48.0349C89.8117 46.7068 91.0924 46.6485 92.4683 47.8571C92.7947 48.144 93.1134 48.4422 93.4591 48.7065C93.9612 49.0902 94.5324 49.2614 95.1575 49.0573C96.0859 48.7544 96.732 48.1647 96.9691 47.2072C97.5097 45.0241 95.6999 43.0123 93.3823 43.1919C92.0592 43.2944 90.9139 43.7967 89.8693 44.5689C88.2314 45.7794 87.1196 47.3746 86.3246 49.2031C85.7351 50.5584 85.3309 51.9712 84.9738 53.399C84.9316 53.5654 84.8826 53.731 84.8365 53.8965C84.7395 53.7677 84.7251 53.6614 84.7232 53.5541C84.6963 51.673 84.6752 49.7919 84.6416 47.9107C84.6339 47.4818 84.6147 47.0492 84.5494 46.6259C84.3469 45.3091 83.6229 44.3911 82.3211 43.9453C82.0801 43.8625 81.8353 43.7741 81.5847 43.7403C80.4268 43.5841 79.268 43.427 78.1053 43.3085C77.1961 43.2154 76.2802 43.1938 75.37 43.112C74.8429 43.064 74.6749 42.9107 74.6202 42.4197C74.529 41.6014 74.4186 40.7793 74.4186 39.9582C74.4234 34.3299 74.456 28.7024 74.4762 23.0741C74.48 22.1062 74.4848 21.1384 74.4531 20.1715C74.409 18.8124 73.6198 17.8031 72.3275 17.409C72.1019 17.3404 71.8667 17.298 71.6334 17.2529C69.8485 16.9068 68.0378 16.8569 66.2281 16.8118C64.7102 16.7742 63.1922 16.7459 61.6753 16.7093C61.4814 16.7045 61.2884 16.6735 61.0599 16.6509C61.0609 16.4017 61.0618 16.207 61.0628 16.0123C61.0695 14.2563 61.082 12.4993 61.081 10.7432C61.081 10.2607 61.0705 9.77444 61.0138 9.29569C60.841 7.819 59.9615 6.89066 58.4763 6.67339C56.1049 6.32632 53.7181 6.13068 51.3198 6.09023C51.1258 6.08647 50.9319 6.11093 50.7284 6.12221C50.7264 6.49468 50.7255 6.81071 50.7245 7.16436C51.0318 7.20575 51.3198 7.23961 51.6049 7.28476C52.6428 7.44935 53.2803 8.06449 53.4214 9.08594C53.4944 9.61642 53.5395 10.1554 53.5405 10.6915C53.5453 12.9319 53.528 15.1724 53.5184 17.4128C53.5174 17.5727 53.5174 17.7317 53.5165 17.9978C53.2419 17.8991 53.0604 17.8219 52.8722 17.7674C52.0494 17.5294 51.2343 17.2529 50.3981 17.0723C48.3781 16.6378 46.3312 16.6425 44.2833 16.8503C42.5052 17.0309 40.7742 17.4147 39.1967 18.2612C34.8552 20.591 32.6566 24.3072 32.047 29.0232C31.8482 30.5619 31.9413 32.0988 32.1257 33.6338C32.4694 36.4922 33.5649 39.0233 35.5244 41.18C36.8647 42.6548 38.4459 43.8296 40.2125 44.7711C40.3997 44.8708 40.5812 44.979 40.8212 45.1144C40.5245 45.3289 40.2884 45.4925 40.0608 45.6665C38.7887 46.64 38.2021 47.8957 38.4459 49.4824C38.6533 50.8265 39.2188 51.9533 40.5466 52.5571C41.2965 52.8976 42.0895 53.1102 42.9209 53.1638C44.4475 53.2635 45.6457 54.206 46.0969 55.6432C46.382 56.5517 46.2832 57.4509 46.0527 58.3473C45.4911 60.5275 44.4571 62.4943 43.2032 64.3613C43.1897 64.381 43.1427 64.3782 43.0669 64.398C42.9824 64.2136 42.8844 64.0255 42.8096 63.8289C42.0348 61.7804 41.258 59.7327 40.4938 57.6804C39.3283 54.5521 38.1704 51.4209 37.0145 48.2879C36.3184 46.4011 35.1634 44.8661 33.3728 43.8653C32.1324 43.1712 31.3422 42.1742 30.8238 40.8903C27.8859 33.6132 24.926 26.3454 21.9708 19.0748C21.7346 18.4926 21.4821 17.9169 21.2296 17.3404C21.0693 16.9745 20.7688 16.7713 20.3703 16.776C19.3661 16.7873 18.3542 16.7704 17.3816 17.0761C16.5137 17.3488 15.8886 17.8915 15.5651 18.7399C15.4057 19.1585 15.2435 19.578 15.1062 20.0041C13.2743 25.671 11.4444 31.3379 9.8084 37.0632C9.45893 38.2868 9.12002 39.5152 8.7331 40.7276C8.28186 42.1413 7.30257 43.0245 5.81827 43.3603C4.26389 43.713 2.68934 43.9152 1.09655 43.9782C0.789323 43.9904 0.482095 44.014 0.163345 44.0337C0.162385 44.3338 0.161425 44.5877 0.159505 44.9037C0.86133 44.9066 1.51803 44.8972 2.17377 44.9141C4.09299 44.9621 6.01413 44.9912 7.93143 45.0834C9.54534 45.1615 10.6533 45.9365 11.2313 47.4706C14.0856 55.0468 16.9639 62.6137 19.8385 70.1834C19.9402 70.4505 20.0564 70.7195 20.2129 70.9575C20.3876 71.2237 20.4001 71.4569 20.2907 71.757C19.995 72.5677 19.9431 73.3992 20.1793 74.2401C20.6949 76.077 22.4134 77.3073 24.4181 77.2461C25.6643 77.2085 26.8461 77.4408 28.0002 77.8989C29.495 78.4924 30.3793 79.5458 30.7547 81.0742C31.1205 82.5679 31.0389 84.0615 30.8881 85.5626C30.8564 85.8749 30.8113 86.1862 30.7643 86.5615C30.6087 86.4439 30.5031 86.38 30.4186 86.2963C30.0346 85.9125 29.6448 85.5335 29.2771 85.1347C26.3056 81.9189 23.3418 78.6974 20.3703 75.4816C18.6883 73.6616 17.0052 71.8416 15.3068 70.0367C14.3122 68.9795 13.1774 68.1104 11.6892 67.831C11.0268 67.7069 10.3518 67.5921 9.67975 67.578C6.68043 67.5141 3.68111 67.4849 0.680833 67.451C0.454252 67.4482 0.226711 67.499 0.00781023 67.5235C0.00685014 67.831 0.00589016 68.0756 0.00493007 68.3013C0.0673359 68.3361 0.0970986 68.3634 0.129742 68.3681C0.238232 68.3813 0.347682 68.3926 0.457132 68.3926C1.97695 68.3907 3.42285 68.766 4.85914 69.2024C5.42847 69.3755 5.68962 69.7536 5.7309 70.3066C5.7453 70.5032 5.73954 70.7007 5.73858 70.8982C5.72034 76.2933 5.70114 81.6884 5.68194 87.0826C5.67618 88.6599 5.68578 90.2373 5.6541 91.8146C5.62241 93.3844 4.8361 94.2977 3.25963 94.5413C2.39651 94.6749 1.51227 94.6824 0.638589 94.7482C0.408168 94.7652 0.178706 94.7896 -0.0622763 94.8122C-0.0632363 95.1273 -0.0641962 95.3878 -0.0661163 95.6775C0.0471742 95.686 0.134542 95.7038 0.22095 95.6982C1.93567 95.5806 3.65135 95.4725 5.36415 95.3333C5.90756 95.2891 6.45385 95.1969 6.98094 95.0614C7.86902 94.8329 8.48156 94.2676 8.82047 93.4296C8.91456 93.1972 8.99809 92.9583 9.05953 92.7157C9.37636 91.4572 9.52038 90.1789 9.52614 88.8828C9.54534 84.4923 9.56646 80.1008 9.59046 75.7102C9.59238 75.3528 9.61831 74.9944 9.64999 74.6379C9.65959 74.5298 9.72775 74.4272 9.78824 74.2749C10.1915 74.7508 10.5409 75.1816 10.9106 75.5964C13.811 78.8498 16.7162 82.0985 19.6186 85.3501C22.5094 88.5875 25.4003 91.8259 28.2872 95.0661C28.8518 95.7001 29.231 96.0124 30.1853 95.5562C30.2967 95.5026 30.4916 95.4932 30.5876 95.5534C30.9006 95.7509 31.2405 95.78 31.589 95.7735C32.3561 95.7584 33.1299 95.7819 33.8903 95.6992C35.8825 95.4838 37.3025 94.5169 37.9477 92.5896C38.3576 91.365 38.7868 90.146 39.2044 88.9233C39.504 88.0476 39.502 88.0467 40.4209 88.058C40.585 88.0598 40.7502 88.0589 40.9143 88.0608C42.9449 88.0787 44.9755 88.1031 47.0061 88.1106C47.4765 88.1125 47.7627 88.3138 47.9153 88.7342C48.1428 89.3578 48.3445 89.9927 48.6085 90.6022C48.9426 91.3754 49.2614 92.1654 49.703 92.8793C50.5805 94.2949 51.8814 95.2025 53.5587 95.4781C54.6907 95.6643 55.8428 95.7518 56.9891 95.8365C57.6372 95.8844 58.292 95.8383 58.9631 95.8336C58.965 95.432 58.9659 95.0991 58.9679 94.7238C57.7543 94.5018 57.2368 93.6083 56.8288 92.6113ZM61.0618 18.7719C61.0628 18.5603 61.0829 18.3487 61.0983 18.0505C61.5851 18.09 62.0027 18.1239 62.4194 18.1587C63.439 18.2443 64.4596 18.327 65.4792 18.4173C66.1628 18.4785 66.5314 18.739 66.6803 19.3955C66.8223 20.0201 66.9433 20.6653 66.9424 21.3011C66.9395 27.8051 66.9088 34.3092 66.8944 40.8123C66.8934 41.275 66.9232 41.7463 67.0124 42.1987C67.313 43.7205 68.1482 44.519 69.7103 44.7636C70.4304 44.8765 71.1619 44.9357 71.8916 44.9762C73.206 45.0476 74.5223 45.0862 75.8376 45.1389C75.9653 45.1436 76.0949 45.1417 76.2207 45.1615C76.6277 45.2273 76.8073 45.3853 76.8658 45.7794C76.9206 46.1509 76.9705 46.5272 76.9686 46.9015C76.9474 53.5485 76.9263 60.1955 76.8812 66.8425C76.8764 67.5357 76.742 68.2308 76.6297 68.9183C76.5471 69.4187 76.2178 69.7442 75.7205 69.8993C75.6686 69.9153 75.6177 69.937 75.564 69.9492C73.8368 70.3254 73.1282 70.0574 72.4341 68.5186C71.6439 66.7682 70.9478 64.9755 70.2211 63.1978C67.6135 56.816 65.0078 50.4333 62.4079 44.0488C62.2552 43.6725 62.0795 43.3386 61.7166 43.1157C61.3748 42.905 61.1732 42.5975 61.1319 42.1949C61.0829 41.7152 60.9764 41.2365 60.9773 40.7568C60.9975 33.4279 61.0301 26.0999 61.0618 18.7719ZM19.9181 49.2021C19.7069 48.6491 19.5312 48.0829 19.3114 47.5336C18.3734 45.1906 16.5924 43.8193 14.1192 43.2775C13.3905 43.1176 12.6474 43.0198 11.9081 42.8937C11.8995 42.8665 11.8726 42.8288 11.8822 42.8034C12.4698 41.1669 13.0612 39.5312 13.6516 37.8956C13.6641 37.8617 13.6699 37.826 13.6833 37.793C13.8677 37.3049 14.053 37.1713 14.582 37.1779C15.2761 37.1864 15.9712 37.2165 16.6654 37.2193C18.1833 37.2249 19.7012 37.2165 21.2191 37.2193C22.0227 37.2202 22.0918 37.2814 22.3645 38.0188C22.8253 39.2641 23.2986 40.5047 23.7614 41.75C24.2558 43.08 25.1151 44.061 26.4852 44.5943C27.1831 44.8652 27.6584 45.4069 27.9387 46.0663C28.4437 47.2552 28.8892 48.4685 29.3654 49.6696C29.4768 49.9508 29.3731 50.1963 29.2733 50.4474C28.4207 52.6004 27.5691 54.7534 26.7146 56.9063C26.152 58.3247 25.5865 59.7421 25.0201 61.1586C24.9557 61.3195 24.878 61.4737 24.7532 61.7474C24.6437 61.5339 24.5967 61.4587 24.565 61.3778C23.0135 57.3174 21.4648 53.2607 19.9181 49.2021ZM40.2202 72.2677C38.4056 78.0334 36.5911 83.7981 34.7755 89.5638C34.3953 90.7724 33.8404 91.8955 33.0416 92.8953C32.502 93.5697 31.8511 94.1068 31.0504 94.4614C30.9841 94.4905 30.916 94.5178 30.8459 94.5366C30.8152 94.5451 30.7777 94.5291 30.6836 94.515C30.7451 94.2751 30.7979 94.0372 30.866 93.803C31.8434 90.479 32.4272 87.0958 32.3446 83.6288C32.2851 81.1354 32.0479 78.6589 31.3163 76.2501C30.7614 74.4225 29.8339 72.7841 28.6924 71.2585C27.5384 69.7159 25.9465 69.0039 24.0052 69.0171C23.7883 69.019 23.5713 69.0162 23.3533 69.0152C23.3937 68.5797 29.9175 52.6503 30.2132 52.2505C30.2305 52.2515 30.2487 52.2477 30.2641 52.2524C30.2813 52.2571 30.3025 52.2665 30.3102 52.2797C30.3534 52.3568 30.4014 52.4339 30.433 52.5158C32.6336 58.2852 34.8331 64.0556 37.0298 69.8269C37.0471 69.873 37.0317 69.9304 37.0308 70.0376C36.3933 70.0348 35.7625 70.0329 35.0924 70.0301C35.0904 70.4298 35.0895 70.7778 35.0876 71.1795C36.8743 71.1861 38.6591 71.1936 40.5428 71.2011C40.417 71.6206 40.322 71.9451 40.2202 72.2677ZM47.6369 68.544C47.5553 68.5807 47.4698 68.6079 47.3153 68.6653C47.0839 68.0878 46.8736 67.5555 46.6576 67.025C46.3129 66.1766 45.9826 65.3216 45.6101 64.4854C45.3403 63.8778 45.3692 63.3201 45.6841 62.7369C46.5741 61.0881 47.3537 59.3923 47.8875 57.5948C48.4434 55.7222 48.7007 53.8128 48.6267 51.863C48.5931 50.9648 48.4443 50.0806 48.1707 49.2219C47.8174 48.1139 47.1367 47.2157 46.2592 46.4519C46.0729 46.2892 45.8876 46.1255 45.6284 45.8989C45.9375 45.8349 46.1459 45.7945 46.3532 45.7493C49.7078 45.0119 51.7451 42.9408 52.5861 39.7297C52.7494 39.108 52.686 38.4082 52.6169 37.7564C52.517 36.8252 52.1887 35.9458 51.7288 35.119C50.9319 33.6875 49.6847 33.0065 48.0411 33.0498C46.3974 33.093 45.1781 33.8727 44.4302 35.2892C43.0995 37.8109 44.7144 40.7953 47.5812 41.1669C47.7079 41.1838 47.8347 41.2101 47.9614 41.2167C49.0617 41.2769 49.5484 42.4188 49.15 43.2841C48.7179 44.2237 47.9316 44.6808 46.9178 44.7965C46.4214 44.8529 45.9356 44.7777 45.4594 44.6234C44.1854 44.2115 43.16 43.4571 42.3401 42.4319C40.9873 40.7398 40.1914 38.8032 39.9302 36.6869C39.5193 33.3517 39.4483 30.0023 39.8669 26.6605C40.1568 24.3429 40.8308 22.1439 42.1519 20.1658C42.8864 19.0663 43.8282 18.2254 45.1205 17.8154C47.1895 17.1579 49.3852 17.9169 50.7745 19.7699C51.7384 21.0547 52.4008 22.4815 52.8166 24.0231C53.1977 25.4387 53.2985 26.889 53.3225 28.3375C53.384 32.0095 53.3878 35.6833 53.4224 39.3563C53.431 40.2329 53.4368 41.1123 53.4992 41.9861C53.5885 43.2229 54.2711 44.0412 55.4645 44.4466C55.8245 44.5689 56.1913 44.6724 56.5743 44.7899C56.5638 44.8953 56.5724 44.9865 56.5436 45.0655C54.8971 49.568 53.623 54.1853 52.1618 58.7451C51.4177 61.0674 50.7178 63.4047 50.0006 65.7355C49.6137 66.9949 48.8869 67.9806 47.6369 68.544Z" fill="white"/>
<path d="M64.9934 72.6285C64.8378 72.2655 64.6689 71.9071 64.5239 71.5403C64.3463 71.0907 64.0602 70.8302 63.5312 70.8782C63.2412 70.9045 62.9465 70.8725 62.6536 70.8716C61.5947 70.8659 60.5357 70.8631 59.4018 70.8584C59.5247 71.1979 59.6159 71.4839 59.7302 71.7604C62.8725 79.3611 66.0168 86.9619 69.1611 94.5617C69.2226 94.7112 69.2792 94.8626 69.3474 95.0094C69.5125 95.3687 69.7756 95.5596 70.2009 95.5587C71.0967 95.5577 71.9924 95.5878 72.8892 95.5991C73.471 95.6066 74.0528 95.6048 74.7642 95.6076C74.6183 95.2069 74.5328 94.936 74.4215 94.6764C71.28 87.3278 68.1367 79.9782 64.9934 72.6285Z" fill="white"/>
<path d="M59.1858 74.6859C58.748 73.6616 58.315 72.6354 57.8829 71.6093C57.6765 71.1202 57.3568 70.8136 56.7702 70.823C55.6181 70.8399 54.466 70.8314 53.3139 70.8371C53.1382 70.838 52.9625 70.8615 52.7244 70.8794C52.8329 71.1794 52.9126 71.4315 53.0134 71.6761C55.5413 77.7822 58.073 83.8875 60.599 89.9936C61.2586 91.587 61.9009 93.1859 62.5557 94.7811C62.8072 95.3944 63.0607 95.575 63.6483 95.574C64.9646 95.5712 66.2818 95.5656 67.5981 95.559C67.7402 95.558 67.8823 95.5411 68.0877 95.5279C67.9917 95.2919 67.9149 95.0953 67.8314 94.9006C64.9502 88.1623 62.067 81.4241 59.1858 74.6859Z" fill="white"/>
<path d="M70.2403 16.2934C73.1743 16.3169 75.6101 13.9523 75.6475 11.0431C75.684 8.20075 73.2914 5.76185 70.4333 5.72893C67.3149 5.69319 64.8878 7.97031 64.8542 10.9641C64.8206 13.8696 67.2477 16.2699 70.2403 16.2934Z" fill="white"/>
</g>
<defs>
<clipPath id="clip0_30_106">
<rect width="97" height="96" fill="white"/>
</clipPath>
</defs>
</svg>
