<svg width="81" height="35" viewBox="0 0 81 35" fill="none" xmlns="http://www.w3.org/2000/svg">
<g clip-path="url(#clip0_17_107)">
<path d="M22.1729 33.6985C22.1567 33.6598 22.1419 33.6212 22.1257 33.5825C21.8058 32.7873 21.4847 31.9934 21.166 31.1983C20.4307 29.3626 19.6979 27.5258 18.9651 25.689C18.9353 25.6153 18.9118 25.5379 18.8833 25.4558C19.1399 25.3965 19.3681 25.341 19.5975 25.2938C20.179 25.1742 20.5572 24.8298 20.763 24.2969C20.8511 24.0697 20.9329 23.8401 21.0123 23.6105C21.1201 23.2939 21.2193 22.976 21.3247 22.6594C21.3904 22.4637 21.4363 22.4347 21.6521 22.4335C21.7798 22.4335 21.9087 22.4371 22.0365 22.4383C22.7928 22.4431 23.548 22.4455 24.3043 22.4516C24.5436 22.4528 24.618 22.5023 24.7024 22.7211C24.7755 22.9096 24.8363 23.1017 24.9132 23.289C25.0359 23.5851 25.1438 23.8896 25.2988 24.1676C25.646 24.7863 26.1853 25.1839 26.8971 25.3156C27.3298 25.3953 27.7725 25.4461 28.2114 25.4545C28.9951 25.4678 29.7787 25.4413 30.5636 25.428C31.0373 25.4207 31.4986 25.3373 31.9487 25.1984C32.6418 24.9845 32.9915 24.5228 32.9815 23.8183C32.9605 22.3489 33.0621 20.8903 33.351 19.4462C33.4998 18.7018 33.6846 17.9695 33.9946 17.271C34.131 16.9628 34.2971 16.674 34.534 16.4263C35.0262 15.9115 35.5259 15.8885 36.0616 16.3574C36.1893 16.4686 36.3133 16.5846 36.4472 16.6861C36.6431 16.8348 36.8651 16.9012 37.1093 16.8227C37.4714 16.7055 37.7231 16.4771 37.8149 16.1061C38.0257 15.2602 37.3201 14.4807 36.4162 14.5496C35.9004 14.5895 35.454 14.784 35.0473 15.0837C34.4087 15.5526 33.976 16.1713 33.666 16.8795C33.4366 17.4051 33.2791 17.9526 33.139 18.5048C33.1229 18.5701 33.1031 18.6329 33.0857 18.6982C33.0472 18.6486 33.0423 18.6063 33.0411 18.5652C33.0311 17.8366 33.0225 17.1079 33.0088 16.378C33.0063 16.2112 32.9989 16.0444 32.9729 15.8801C32.8935 15.3701 32.612 15.0136 32.1049 14.8408C32.0107 14.8094 31.9152 14.7744 31.8185 14.7611C31.3671 14.7007 30.9158 14.639 30.4619 14.5931C30.1073 14.5568 29.7502 14.5484 29.3956 14.517C29.1898 14.4988 29.1253 14.4384 29.103 14.2487C29.067 13.9321 29.0248 13.6131 29.0248 13.2952C29.0273 11.114 29.0397 8.93398 29.0472 6.75275C29.0484 6.37814 29.0509 6.00231 29.0385 5.6277C29.0211 5.10082 28.7136 4.71049 28.2102 4.55702C28.1222 4.53044 28.0304 4.51473 27.9399 4.4966C27.2443 4.36246 26.5387 4.34313 25.8332 4.32621C25.2417 4.31171 24.6503 4.30083 24.0588 4.28633C23.9832 4.28512 23.9076 4.27183 23.8195 4.26337C23.8195 4.16669 23.8208 4.09177 23.8208 4.01564C23.8232 3.33529 23.8282 2.65494 23.8282 1.97338C23.8282 1.78607 23.8245 1.59756 23.8022 1.41266C23.7352 0.841073 23.3917 0.480958 22.8139 0.396368C21.8901 0.262231 20.9602 0.186099 20.0253 0.17039C19.9496 0.169181 19.874 0.17764 19.7946 0.182474C19.7946 0.326278 19.7934 0.449539 19.7934 0.586092C19.9137 0.601802 20.0253 0.615095 20.1369 0.633221C20.5411 0.697269 20.7903 0.935331 20.8449 1.3317C20.8734 1.53713 20.8907 1.74619 20.892 1.95404C20.8932 2.8217 20.887 3.69057 20.8833 4.55823C20.8833 4.61986 20.8833 4.68149 20.8821 4.78421C20.7754 4.74554 20.7048 4.71653 20.6304 4.69478C20.3092 4.60294 19.9918 4.49539 19.6669 4.4253C18.8795 4.25733 18.0822 4.25854 17.2837 4.3395C16.5906 4.40959 15.916 4.55823 15.301 4.88692C13.6085 5.78963 12.7517 7.23009 12.5149 9.05724C12.438 9.653 12.4739 10.2488 12.5459 10.8445C12.6798 11.9527 13.1063 12.9327 13.8701 13.7689C14.3921 14.3405 15.0084 14.7961 15.6978 15.1611C15.771 15.1997 15.8417 15.242 15.9346 15.294C15.8193 15.3774 15.7276 15.4402 15.6383 15.5079C15.1423 15.8849 14.9142 16.3719 15.0096 16.987C15.0902 17.5079 15.311 17.9441 15.828 18.1785C16.1206 18.3103 16.4294 18.3924 16.753 18.4142C17.3482 18.4529 17.8144 18.8178 17.9905 19.3749C18.1021 19.7265 18.0636 20.0758 17.9731 20.4226C17.7537 21.2673 17.3507 22.0298 16.8634 22.7525C16.8584 22.7597 16.8398 22.7597 16.8101 22.767C16.7778 22.6957 16.7394 22.6232 16.7096 22.5458C16.4071 21.7519 16.1045 20.9579 15.8069 20.1628C15.3531 18.9507 14.9018 17.7375 14.4517 16.523C14.1801 15.7919 13.73 15.1973 13.0319 14.8094C12.5483 14.5411 12.2408 14.1544 12.0387 13.6566C10.8942 10.8373 9.73984 8.0204 8.58792 5.20233C8.49616 4.97635 8.39697 4.754 8.29901 4.53044C8.23701 4.38905 8.11922 4.3105 7.96422 4.31171C7.5724 4.31654 7.17809 4.30929 6.79991 4.42772C6.4614 4.53406 6.21837 4.74433 6.09189 5.07302C6.0299 5.23495 5.96666 5.39809 5.91334 5.56244C5.19913 7.75817 4.48615 9.95391 3.84882 12.1726C3.71242 12.6463 3.58099 13.1224 3.42971 13.5925C3.25364 14.1399 2.87173 14.4819 2.29391 14.6124C1.68758 14.749 1.07504 14.8275 0.453823 14.8517C0.333548 14.8565 0.214512 14.8662 0.0905166 14.8735C0.0905166 14.9895 0.0892767 15.0886 0.0892767 15.2106C0.363307 15.2118 0.618737 15.2082 0.874168 15.2142C1.62186 15.2324 2.37079 15.2444 3.11848 15.2795C3.74714 15.3097 4.17864 15.6106 4.40432 16.204C5.51656 19.1392 6.63871 22.0721 7.75839 25.005C7.79807 25.1089 7.84395 25.2129 7.90471 25.3047C7.9729 25.4074 7.97786 25.4981 7.93571 25.6141C7.82039 25.9283 7.80055 26.2509 7.89231 26.576C8.09318 27.2877 8.76275 27.7651 9.54393 27.7409C10.03 27.7264 10.49 27.8158 10.9401 27.9935C11.5229 28.2231 11.8676 28.6315 12.0139 29.2237C12.1565 29.8025 12.1243 30.3813 12.066 30.9626C12.0536 31.0835 12.0362 31.2043 12.0176 31.3493C11.9569 31.3034 11.916 31.2792 11.8825 31.2466C11.7324 31.098 11.5812 30.9505 11.4373 30.7971C10.2792 29.5512 9.12358 28.3028 7.9667 27.0569C7.31077 26.3512 6.65483 25.6467 5.99394 24.947C5.60583 24.5373 5.16441 24.2002 4.58411 24.0926C4.3262 24.0443 4.06333 23.9996 3.80046 23.9948C2.63118 23.9694 1.46191 23.9585 0.293869 23.9452C0.205832 23.944 0.116556 23.9633 0.0309988 23.973C0.0309988 24.0926 0.0297589 24.1869 0.0297589 24.2739C0.054558 24.2872 0.0657176 24.2981 0.0781171 24.2993C0.120276 24.3041 0.163674 24.3089 0.205832 24.3089C0.79853 24.3089 1.36147 24.454 1.92069 24.6231C2.14264 24.6908 2.24432 24.837 2.26044 25.0509C2.26664 25.1271 2.26416 25.2032 2.26292 25.2805C2.25548 27.3711 2.24804 29.4617 2.2406 31.5523C2.23812 32.1638 2.24184 32.7753 2.22944 33.3855C2.21704 33.9934 1.91077 34.3474 1.29575 34.4417C0.959724 34.4937 0.615017 34.4961 0.27403 34.5215C0.184753 34.5287 0.0942365 34.5372 0.00123995 34.5456C0.00123995 34.6677 0 34.7692 0 34.8804C0.0446383 34.884 0.0781171 34.8912 0.111596 34.8888C0.779931 34.8429 1.44827 34.8018 2.1166 34.7474C2.32863 34.7305 2.54191 34.6943 2.7465 34.6423C3.09245 34.5541 3.33176 34.3342 3.46319 34.0103C3.50039 33.9197 3.53263 33.8278 3.55619 33.7336C3.68018 33.2466 3.73598 32.7499 3.73846 32.2484C3.7459 30.5469 3.75458 28.8454 3.76326 27.1439C3.7645 27.005 3.77442 26.866 3.78682 26.7282C3.79054 26.6859 3.81782 26.6461 3.84014 26.5881C3.99761 26.773 4.13401 26.9397 4.27784 27.1004C5.40868 28.3608 6.54076 29.62 7.6716 30.8804C8.79871 32.1348 9.92459 33.3904 11.0505 34.6459C11.2699 34.8912 11.4187 35.0121 11.7895 34.8357C11.8329 34.8151 11.9085 34.8115 11.947 34.8344C12.0685 34.9106 12.2011 34.9227 12.3375 34.9202C12.6364 34.9142 12.9377 34.9239 13.234 34.8912C14.0102 34.8079 14.5645 34.4332 14.815 33.6864C14.9749 33.2115 15.1423 32.739 15.3048 32.2653C15.4213 31.9257 15.4201 31.9257 15.7784 31.9306C15.8429 31.9318 15.9074 31.9306 15.9706 31.9318C16.7617 31.939 17.5528 31.9487 18.3451 31.9511C18.5286 31.9523 18.6402 32.0297 18.6997 32.1928C18.7878 32.4345 18.8671 32.681 18.9701 32.9167C19.1003 33.2163 19.2242 33.5221 19.3966 33.7988C19.7388 34.3474 20.246 34.6991 20.8994 34.8054C21.3408 34.8779 21.7897 34.9118 22.2361 34.9444C22.489 34.9625 22.7432 34.9456 23.0049 34.9432C23.0061 34.7873 23.0061 34.658 23.0061 34.513C22.5337 34.4308 22.3316 34.084 22.1729 33.6985ZM23.8232 5.08511C23.8232 5.00293 23.8319 4.92076 23.8381 4.80596C24.0278 4.82167 24.1903 4.83375 24.3527 4.84825C24.7507 4.88088 25.1475 4.91351 25.5455 4.94855C25.8121 4.97152 25.956 5.07302 26.0142 5.328C26.07 5.56969 26.1172 5.81984 26.1172 6.06636C26.1159 8.58716 26.1035 11.1068 26.0986 13.6276C26.0986 13.8064 26.1097 13.9889 26.1444 14.1653C26.261 14.755 26.5871 15.0644 27.1959 15.1587C27.4761 15.2022 27.7613 15.2251 28.0465 15.2408C28.5586 15.2686 29.072 15.2831 29.5841 15.3037C29.6337 15.3061 29.6845 15.3049 29.7329 15.3121C29.8916 15.3375 29.961 15.3991 29.9846 15.5514C30.0056 15.6952 30.0255 15.8414 30.0242 15.9864C30.0156 18.5628 30.0081 21.138 29.9895 23.7132C29.9883 23.9815 29.935 24.2509 29.8916 24.518C29.8593 24.7114 29.7304 24.8382 29.5369 24.8987C29.5171 24.9047 29.4973 24.9132 29.4762 24.918C28.8029 25.063 28.5276 24.9603 28.2561 24.3633C27.9486 23.6854 27.677 22.9905 27.3943 22.3017C26.3775 19.8293 25.362 17.3556 24.349 14.8819C24.2895 14.7357 24.2213 14.6064 24.0799 14.5206C23.9472 14.4396 23.8679 14.32 23.8518 14.1641C23.8319 13.978 23.791 13.7931 23.7922 13.607C23.7972 10.7636 23.8108 7.92494 23.8232 5.08511ZM7.78815 16.8771C7.70631 16.6632 7.63688 16.4432 7.55132 16.2305C7.18553 15.323 6.49116 14.7913 5.52771 14.581C5.24377 14.5194 4.95362 14.4807 4.66595 14.4324C4.66223 14.4215 4.65231 14.407 4.65603 14.3973C4.88542 13.7629 5.11605 13.1297 5.34544 12.4953C5.3504 12.482 5.35288 12.4687 5.35784 12.4554C5.42976 12.2669 5.50168 12.2149 5.70875 12.2173C5.97906 12.2209 6.25061 12.233 6.52092 12.233C7.11238 12.2354 7.70383 12.2318 8.29529 12.233C8.609 12.233 8.63504 12.2572 8.74168 12.5424C8.92147 13.0245 9.10622 13.5055 9.28601 13.9877C9.47821 14.5025 9.81299 14.8831 10.3474 15.0898C10.619 15.1949 10.805 15.4052 10.9141 15.6602C11.1112 16.1206 11.2848 16.5907 11.4696 17.0559C11.513 17.1647 11.4721 17.2601 11.4336 17.3568C11.1013 18.1906 10.769 19.0257 10.4367 19.8595C10.2172 20.4093 9.99651 20.9579 9.7758 21.5078C9.751 21.5694 9.72 21.6298 9.67164 21.7362C9.62948 21.6528 9.61088 21.6238 9.59848 21.5924C8.99463 20.0214 8.39077 18.4492 7.78815 16.8771ZM15.7003 25.8147C14.9935 28.0491 14.2855 30.2835 13.5787 32.5167C13.4299 32.9855 13.2142 33.4206 12.903 33.8073C12.6934 34.0683 12.4392 34.2761 12.1267 34.4139C12.1007 34.4248 12.0747 34.4357 12.0474 34.4429C12.035 34.4465 12.0214 34.4405 11.9842 34.4345C12.0077 34.3414 12.0288 34.2496 12.0548 34.1589C12.4355 32.8707 12.6636 31.5596 12.6314 30.2158C12.6079 29.2502 12.5161 28.2895 12.2309 27.3566C12.0152 26.6485 11.6531 26.0141 11.2079 25.4219C10.7578 24.8237 10.1379 24.5482 9.38149 24.5531C9.29718 24.5531 9.21286 24.5531 9.1273 24.5518C9.14342 24.3827 11.6853 18.21 11.8006 18.0553C11.8068 18.0553 11.8143 18.0541 11.8205 18.0565C11.8267 18.0589 11.8354 18.0613 11.8378 18.0674C11.8552 18.0976 11.8738 18.1266 11.8862 18.1592C12.7442 20.3948 13.6011 22.6316 14.4566 24.8672C14.4628 24.8854 14.4579 24.9071 14.4566 24.9482C14.2086 24.947 13.9619 24.9458 13.7015 24.9458C13.7003 25.1005 13.7003 25.2358 13.7003 25.3917C14.3971 25.3941 15.0915 25.3965 15.8268 25.4002C15.7772 25.5633 15.74 25.689 15.7003 25.8147ZM18.5906 24.3718C18.5584 24.3863 18.5249 24.396 18.4654 24.4189C18.3749 24.1954 18.293 23.9887 18.2087 23.7833C18.0748 23.4546 17.9459 23.1235 17.8008 22.7996C17.6954 22.564 17.7065 22.3477 17.8293 22.1217C18.1765 21.4824 18.4803 20.825 18.6873 20.129C18.9043 19.4039 19.0048 18.6631 18.975 17.9078C18.9614 17.5598 18.9043 17.2166 18.7977 16.8843C18.6601 16.4553 18.3947 16.1073 18.0525 15.8112C17.9793 15.7484 17.9074 15.6843 17.807 15.5973C17.9273 15.5731 18.0091 15.5574 18.0897 15.5393C19.3966 15.2541 20.1914 14.4505 20.5188 13.207C20.582 12.9665 20.5584 12.6946 20.5312 12.4421C20.4927 12.0808 20.365 11.7412 20.1852 11.4197C19.8752 10.8651 19.3892 10.6004 18.7481 10.6173C18.107 10.6343 17.6321 10.9364 17.3408 11.485C16.8225 12.4626 17.4511 13.6191 18.5683 13.7629C18.6179 13.7689 18.6675 13.7798 18.7171 13.7822C19.1461 13.8052 19.3358 14.2475 19.1808 14.5834C19.0122 14.9472 18.7059 15.1248 18.3104 15.1695C18.117 15.1913 17.9273 15.1623 17.7425 15.1019C17.2453 14.9423 16.846 14.6499 16.5273 14.2523C16.0004 13.5973 15.6904 12.8457 15.5887 12.0264C15.4287 10.7333 15.4015 9.4367 15.5639 8.14125C15.6767 7.24338 15.9396 6.39143 16.4542 5.62528C16.7406 5.19991 17.1076 4.87363 17.6111 4.71412C18.417 4.45914 19.2726 4.754 19.8145 5.47181C20.1902 5.96969 20.4481 6.52194 20.6105 7.12012C20.7593 7.66875 20.7977 8.23067 20.8077 8.7926C20.8312 10.2161 20.8325 11.6385 20.8461 13.062C20.8498 13.4016 20.8511 13.7424 20.8759 14.0807C20.9106 14.5593 21.1772 14.8771 21.6422 15.0342C21.7823 15.0813 21.9249 15.1212 22.0749 15.1671C22.0712 15.2082 22.0737 15.2432 22.0625 15.2735C21.4214 17.0184 20.9242 18.8081 20.3551 20.5749C20.0649 21.4752 19.7921 22.3803 19.5132 23.283C19.3606 23.7712 19.0779 24.1531 18.5906 24.3718Z" fill="#F6F5F1"/>
<path d="M25.3546 25.9548C25.2938 25.8147 25.2281 25.6757 25.1711 25.5331C25.1016 25.3591 24.99 25.2576 24.7842 25.2769C24.6714 25.2866 24.5561 25.2745 24.442 25.2745C24.0291 25.2721 23.6162 25.2709 23.1747 25.2697C23.2231 25.4014 23.2578 25.5125 23.3025 25.6189C24.5275 28.5639 25.7526 31.51 26.9777 34.455C27.0012 34.513 27.0236 34.571 27.0496 34.629C27.1141 34.768 27.217 34.8417 27.3819 34.8417C27.7316 34.8417 28.08 34.8526 28.4297 34.8574C28.6566 34.8598 28.8835 34.8598 29.16 34.861C29.103 34.7064 29.0695 34.6012 29.0261 34.4997C27.8047 31.6502 26.5797 28.8031 25.3546 25.9548Z" fill="#F6F5F1"/>
<path d="M23.0917 26.7512C22.9206 26.3548 22.7519 25.9573 22.5833 25.5597C22.5027 25.37 22.3787 25.2515 22.1493 25.2552C21.7004 25.2624 21.2516 25.2588 20.8027 25.2612C20.7345 25.2612 20.6663 25.2709 20.5733 25.2769C20.6155 25.3929 20.6465 25.4908 20.6862 25.5851C21.6707 27.9512 22.6577 30.3173 23.6422 32.6834C23.8989 33.3009 24.1493 33.9209 24.4048 34.5384C24.5027 34.7764 24.6019 34.8465 24.8301 34.8453C25.3434 34.8441 25.8568 34.8417 26.3689 34.8393C26.4247 34.8393 26.4792 34.832 26.5598 34.8272C26.5226 34.7354 26.4929 34.6592 26.4594 34.5843C25.3385 31.9741 24.2151 29.3626 23.0917 26.7512Z" fill="#F6F5F1"/>
<path d="M27.3993 4.1244C28.5425 4.13286 29.4923 3.21686 29.5072 2.08939C29.5221 0.987295 28.5884 0.0422963 27.4749 0.0302119C26.2597 0.0169191 25.3137 0.899079 25.3013 2.05918C25.2876 3.18544 26.2337 4.11473 27.3993 4.1244Z" fill="#F6F5F1"/>
<path d="M61.1161 9.25905C61.5141 9.25905 61.8353 9.57325 61.8353 9.95995V12.4385C61.8353 14.5846 60.0485 16.3224 57.8501 16.3224H55.3069C54.9089 16.3224 54.5877 16.0082 54.5877 15.6215V12.6161C54.5877 12.0856 55.168 11.7472 55.6479 11.9974L58.6585 13.5696C58.8854 13.6904 59.1334 13.4487 59.0119 13.2276L57.3962 10.2911C57.1396 9.82339 57.4868 9.25784 58.0311 9.25784H61.1161V9.25905Z" fill="#F6F5F1"/>
<path d="M71.4982 12.6161V15.6203C71.4982 16.0082 71.1758 16.3212 70.7791 16.3212H68.9563C66.3574 16.3212 64.2519 14.268 64.2519 11.7364V9.95995C64.2519 9.57204 64.5743 9.25906 64.9711 9.25906H68.0561C68.6005 9.25906 68.9476 9.8246 68.691 10.2923L67.0753 13.2288C66.955 13.4499 67.2018 13.6916 67.4287 13.5708L70.4393 11.9986C70.9179 11.7472 71.4982 12.0856 71.4982 12.6161Z" fill="#F6F5F1"/>
<path d="M65.4783 0.207837L67.6581 2.33227C67.9396 2.60659 67.9396 3.05008 67.6581 3.3244L66.3685 4.58118C64.5309 6.37208 61.5526 6.37208 59.7149 4.58118L58.4254 3.3244C58.1439 3.05008 58.1439 2.60659 58.4254 2.33227L60.6077 0.20542C60.9921 -0.169196 61.648 -0.00847322 61.8055 0.499071L62.7938 3.68935C62.8694 3.92862 63.2191 3.92862 63.2922 3.68693L64.2805 0.500279C64.4379 -0.00726481 65.0939 -0.166779 65.4783 0.207837Z" fill="#F6F5F1"/>
<path d="M80.7867 19.8728L78.6069 21.9972C78.3254 22.2715 77.8704 22.2715 77.5889 21.9972L76.2993 20.7404C74.4617 18.9495 74.4617 16.0469 76.2993 14.2559L77.5889 12.9992C77.8704 12.7249 78.3254 12.7249 78.6069 12.9992L80.788 15.1248C81.1724 15.4994 81.0074 16.1387 80.4867 16.2922L77.2132 17.2553C76.9677 17.329 76.9677 17.6698 77.2157 17.7411L80.4854 18.7042C81.0062 18.8589 81.1711 19.4982 80.7867 19.8728Z" fill="#F6F5F1"/>
<path d="M60.6077 34.7921L58.4279 32.6677C58.1464 32.3934 58.1464 31.9499 58.4279 31.6756L59.7174 30.4188C61.555 28.6279 64.5334 28.6279 66.371 30.4188L67.6606 31.6756C67.942 31.9499 67.942 32.3934 67.6606 32.6677L65.4795 34.7934C65.0951 35.168 64.4392 35.0072 64.2817 34.4997L63.2935 31.3094C63.2178 31.0702 62.8681 31.0702 62.795 31.3118L61.8067 34.4985C61.6493 35.0073 60.9933 35.168 60.6077 34.7921Z" fill="#F6F5F1"/>
<path d="M45.3005 15.1272L47.4803 13.0028C47.7618 12.7285 48.2169 12.7285 48.4983 13.0028L49.7879 14.2596C51.6255 16.0505 51.6255 18.9531 49.7879 20.7441L48.4983 22.0008C48.2169 22.2751 47.7618 22.2751 47.4803 22.0008L45.2992 19.8752C44.9149 19.5006 45.0798 18.8613 45.6006 18.7078L48.874 17.7447C49.1195 17.671 49.1195 17.3302 48.8715 17.2589L45.6018 16.2958C45.0798 16.1411 44.9149 15.5018 45.3005 15.1272Z" fill="#F6F5F1"/>
<path d="M67.0741 21.7712L68.6897 24.7077C68.9464 25.1754 68.5992 25.7409 68.0549 25.7409H64.9699C64.5718 25.7409 64.2507 25.4268 64.2507 25.0401V23.2636C64.2507 20.7308 66.3574 18.6788 68.9551 18.6788H70.7778C71.1758 18.6788 71.497 18.993 71.497 19.3797V22.3839C71.497 22.9144 70.9167 23.2528 70.4368 23.0026L67.4262 21.4304C67.2006 21.3096 66.9538 21.5501 67.0741 21.7712Z" fill="#F6F5F1"/>
<path d="M61.8365 22.5615V25.04C61.8365 25.428 61.5141 25.7409 61.1173 25.7409H58.0323C57.488 25.7409 57.1408 25.1754 57.3975 24.7077L59.0131 21.7712C59.1334 21.5501 58.8867 21.3084 58.6597 21.4292L55.6491 23.0014C55.1693 23.2516 54.589 22.9132 54.589 22.3827V19.3785C54.589 18.9906 54.9114 18.6776 55.3081 18.6776H57.8513C60.0497 18.6776 61.8365 20.4154 61.8365 22.5615Z" fill="#F6F5F1"/>
<path d="M55.7657 8.22101L53.5499 10.3805C53.08 10.8385 52.2876 10.7237 51.9752 10.1521L49.9627 6.46756C49.7581 6.09295 49.8288 5.63132 50.1363 5.33163L50.6806 4.80113C50.9968 4.49297 51.4854 4.42893 51.8735 4.64645L55.5574 6.70321C56.124 7.0174 56.227 7.77147 55.7657 8.22101Z" fill="#F6F5F1"/>
<path d="M72.5646 10.4071L70.3488 8.24759C69.8788 7.78959 69.9966 7.0174 70.5831 6.71287L74.3638 4.75158C74.7481 4.55218 75.2218 4.62107 75.5293 4.92076L76.0737 5.45126C76.3899 5.75941 76.4556 6.23554 76.2324 6.61378L74.1245 10.2053C73.7996 10.7563 73.0259 10.8578 72.5646 10.4071Z" fill="#F6F5F1"/>
<path d="M70.3203 26.779L72.5361 24.6195C73.006 24.1615 73.7983 24.2763 74.1108 24.8479L76.1233 28.5324C76.3279 28.907 76.2572 29.3687 75.9497 29.6684L75.4053 30.1989C75.0891 30.507 74.6006 30.5711 74.2125 30.3535L70.5286 28.2968C69.9619 27.9838 69.859 27.2285 70.3203 26.779Z" fill="#F6F5F1"/>
<path d="M53.5226 24.5929L55.7384 26.7524C56.2084 27.2104 56.0906 27.9826 55.5041 28.2871L51.7234 30.2484C51.3391 30.4478 50.8654 30.3789 50.5579 30.0792L50.0135 29.5487C49.6974 29.2406 49.6316 28.7645 49.8548 28.3862L51.9652 24.7959C52.2864 24.2437 53.0601 24.1422 53.5226 24.5929Z" fill="#F6F5F1"/>
</g>
<defs>
<clipPath id="clip0_17_107">
<rect width="81" height="35" fill="white"/>
</clipPath>
</defs>
</svg>
